G75*
%MOIN*%
%OFA0B0*%
%FSLAX25Y25*%
%IPPOS*%
%LPD*%
%AMOC8*
5,1,8,0,0,1.08239X$1,22.5*
%
%ADD10C,0.00000*%
D10*
X0002650Y0001800D02*
X0002650Y0421800D01*
X0157571Y0421800D01*
X0157571Y0001800D01*
X0002650Y0001800D01*
X0028319Y0026800D02*
X0028321Y0026931D01*
X0028327Y0027063D01*
X0028337Y0027194D01*
X0028351Y0027325D01*
X0028369Y0027455D01*
X0028391Y0027584D01*
X0028416Y0027713D01*
X0028446Y0027841D01*
X0028480Y0027968D01*
X0028517Y0028095D01*
X0028558Y0028219D01*
X0028603Y0028343D01*
X0028652Y0028465D01*
X0028704Y0028586D01*
X0028760Y0028704D01*
X0028820Y0028822D01*
X0028883Y0028937D01*
X0028950Y0029050D01*
X0029020Y0029162D01*
X0029093Y0029271D01*
X0029169Y0029377D01*
X0029249Y0029482D01*
X0029332Y0029584D01*
X0029418Y0029683D01*
X0029507Y0029780D01*
X0029599Y0029874D01*
X0029694Y0029965D01*
X0029791Y0030054D01*
X0029891Y0030139D01*
X0029994Y0030221D01*
X0030099Y0030300D01*
X0030206Y0030376D01*
X0030316Y0030448D01*
X0030428Y0030517D01*
X0030542Y0030583D01*
X0030657Y0030645D01*
X0030775Y0030704D01*
X0030894Y0030759D01*
X0031015Y0030811D01*
X0031138Y0030858D01*
X0031262Y0030902D01*
X0031387Y0030943D01*
X0031513Y0030979D01*
X0031641Y0031012D01*
X0031769Y0031040D01*
X0031898Y0031065D01*
X0032028Y0031086D01*
X0032158Y0031103D01*
X0032289Y0031116D01*
X0032420Y0031125D01*
X0032551Y0031130D01*
X0032683Y0031131D01*
X0032814Y0031128D01*
X0032946Y0031121D01*
X0033077Y0031110D01*
X0033207Y0031095D01*
X0033337Y0031076D01*
X0033467Y0031053D01*
X0033595Y0031027D01*
X0033723Y0030996D01*
X0033850Y0030961D01*
X0033976Y0030923D01*
X0034100Y0030881D01*
X0034224Y0030835D01*
X0034345Y0030785D01*
X0034465Y0030732D01*
X0034584Y0030675D01*
X0034701Y0030615D01*
X0034815Y0030551D01*
X0034928Y0030483D01*
X0035039Y0030412D01*
X0035148Y0030338D01*
X0035254Y0030261D01*
X0035358Y0030180D01*
X0035459Y0030097D01*
X0035558Y0030010D01*
X0035654Y0029920D01*
X0035747Y0029827D01*
X0035838Y0029732D01*
X0035925Y0029634D01*
X0036010Y0029533D01*
X0036091Y0029430D01*
X0036169Y0029324D01*
X0036244Y0029216D01*
X0036316Y0029106D01*
X0036384Y0028994D01*
X0036449Y0028880D01*
X0036510Y0028763D01*
X0036568Y0028645D01*
X0036622Y0028525D01*
X0036673Y0028404D01*
X0036720Y0028281D01*
X0036763Y0028157D01*
X0036802Y0028032D01*
X0036838Y0027905D01*
X0036869Y0027777D01*
X0036897Y0027649D01*
X0036921Y0027520D01*
X0036941Y0027390D01*
X0036957Y0027259D01*
X0036969Y0027128D01*
X0036977Y0026997D01*
X0036981Y0026866D01*
X0036981Y0026734D01*
X0036977Y0026603D01*
X0036969Y0026472D01*
X0036957Y0026341D01*
X0036941Y0026210D01*
X0036921Y0026080D01*
X0036897Y0025951D01*
X0036869Y0025823D01*
X0036838Y0025695D01*
X0036802Y0025568D01*
X0036763Y0025443D01*
X0036720Y0025319D01*
X0036673Y0025196D01*
X0036622Y0025075D01*
X0036568Y0024955D01*
X0036510Y0024837D01*
X0036449Y0024720D01*
X0036384Y0024606D01*
X0036316Y0024494D01*
X0036244Y0024384D01*
X0036169Y0024276D01*
X0036091Y0024170D01*
X0036010Y0024067D01*
X0035925Y0023966D01*
X0035838Y0023868D01*
X0035747Y0023773D01*
X0035654Y0023680D01*
X0035558Y0023590D01*
X0035459Y0023503D01*
X0035358Y0023420D01*
X0035254Y0023339D01*
X0035148Y0023262D01*
X0035039Y0023188D01*
X0034928Y0023117D01*
X0034816Y0023049D01*
X0034701Y0022985D01*
X0034584Y0022925D01*
X0034465Y0022868D01*
X0034345Y0022815D01*
X0034224Y0022765D01*
X0034100Y0022719D01*
X0033976Y0022677D01*
X0033850Y0022639D01*
X0033723Y0022604D01*
X0033595Y0022573D01*
X0033467Y0022547D01*
X0033337Y0022524D01*
X0033207Y0022505D01*
X0033077Y0022490D01*
X0032946Y0022479D01*
X0032814Y0022472D01*
X0032683Y0022469D01*
X0032551Y0022470D01*
X0032420Y0022475D01*
X0032289Y0022484D01*
X0032158Y0022497D01*
X0032028Y0022514D01*
X0031898Y0022535D01*
X0031769Y0022560D01*
X0031641Y0022588D01*
X0031513Y0022621D01*
X0031387Y0022657D01*
X0031262Y0022698D01*
X0031138Y0022742D01*
X0031015Y0022789D01*
X0030894Y0022841D01*
X0030775Y0022896D01*
X0030657Y0022955D01*
X0030542Y0023017D01*
X0030428Y0023083D01*
X0030316Y0023152D01*
X0030206Y0023224D01*
X0030099Y0023300D01*
X0029994Y0023379D01*
X0029891Y0023461D01*
X0029791Y0023546D01*
X0029694Y0023635D01*
X0029599Y0023726D01*
X0029507Y0023820D01*
X0029418Y0023917D01*
X0029332Y0024016D01*
X0029249Y0024118D01*
X0029169Y0024223D01*
X0029093Y0024329D01*
X0029020Y0024438D01*
X0028950Y0024550D01*
X0028883Y0024663D01*
X0028820Y0024778D01*
X0028760Y0024896D01*
X0028704Y0025014D01*
X0028652Y0025135D01*
X0028603Y0025257D01*
X0028558Y0025381D01*
X0028517Y0025505D01*
X0028480Y0025632D01*
X0028446Y0025759D01*
X0028416Y0025887D01*
X0028391Y0026016D01*
X0028369Y0026145D01*
X0028351Y0026275D01*
X0028337Y0026406D01*
X0028327Y0026537D01*
X0028321Y0026669D01*
X0028319Y0026800D01*
X0028319Y0074300D02*
X0028321Y0074431D01*
X0028327Y0074563D01*
X0028337Y0074694D01*
X0028351Y0074825D01*
X0028369Y0074955D01*
X0028391Y0075084D01*
X0028416Y0075213D01*
X0028446Y0075341D01*
X0028480Y0075468D01*
X0028517Y0075595D01*
X0028558Y0075719D01*
X0028603Y0075843D01*
X0028652Y0075965D01*
X0028704Y0076086D01*
X0028760Y0076204D01*
X0028820Y0076322D01*
X0028883Y0076437D01*
X0028950Y0076550D01*
X0029020Y0076662D01*
X0029093Y0076771D01*
X0029169Y0076877D01*
X0029249Y0076982D01*
X0029332Y0077084D01*
X0029418Y0077183D01*
X0029507Y0077280D01*
X0029599Y0077374D01*
X0029694Y0077465D01*
X0029791Y0077554D01*
X0029891Y0077639D01*
X0029994Y0077721D01*
X0030099Y0077800D01*
X0030206Y0077876D01*
X0030316Y0077948D01*
X0030428Y0078017D01*
X0030542Y0078083D01*
X0030657Y0078145D01*
X0030775Y0078204D01*
X0030894Y0078259D01*
X0031015Y0078311D01*
X0031138Y0078358D01*
X0031262Y0078402D01*
X0031387Y0078443D01*
X0031513Y0078479D01*
X0031641Y0078512D01*
X0031769Y0078540D01*
X0031898Y0078565D01*
X0032028Y0078586D01*
X0032158Y0078603D01*
X0032289Y0078616D01*
X0032420Y0078625D01*
X0032551Y0078630D01*
X0032683Y0078631D01*
X0032814Y0078628D01*
X0032946Y0078621D01*
X0033077Y0078610D01*
X0033207Y0078595D01*
X0033337Y0078576D01*
X0033467Y0078553D01*
X0033595Y0078527D01*
X0033723Y0078496D01*
X0033850Y0078461D01*
X0033976Y0078423D01*
X0034100Y0078381D01*
X0034224Y0078335D01*
X0034345Y0078285D01*
X0034465Y0078232D01*
X0034584Y0078175D01*
X0034701Y0078115D01*
X0034815Y0078051D01*
X0034928Y0077983D01*
X0035039Y0077912D01*
X0035148Y0077838D01*
X0035254Y0077761D01*
X0035358Y0077680D01*
X0035459Y0077597D01*
X0035558Y0077510D01*
X0035654Y0077420D01*
X0035747Y0077327D01*
X0035838Y0077232D01*
X0035925Y0077134D01*
X0036010Y0077033D01*
X0036091Y0076930D01*
X0036169Y0076824D01*
X0036244Y0076716D01*
X0036316Y0076606D01*
X0036384Y0076494D01*
X0036449Y0076380D01*
X0036510Y0076263D01*
X0036568Y0076145D01*
X0036622Y0076025D01*
X0036673Y0075904D01*
X0036720Y0075781D01*
X0036763Y0075657D01*
X0036802Y0075532D01*
X0036838Y0075405D01*
X0036869Y0075277D01*
X0036897Y0075149D01*
X0036921Y0075020D01*
X0036941Y0074890D01*
X0036957Y0074759D01*
X0036969Y0074628D01*
X0036977Y0074497D01*
X0036981Y0074366D01*
X0036981Y0074234D01*
X0036977Y0074103D01*
X0036969Y0073972D01*
X0036957Y0073841D01*
X0036941Y0073710D01*
X0036921Y0073580D01*
X0036897Y0073451D01*
X0036869Y0073323D01*
X0036838Y0073195D01*
X0036802Y0073068D01*
X0036763Y0072943D01*
X0036720Y0072819D01*
X0036673Y0072696D01*
X0036622Y0072575D01*
X0036568Y0072455D01*
X0036510Y0072337D01*
X0036449Y0072220D01*
X0036384Y0072106D01*
X0036316Y0071994D01*
X0036244Y0071884D01*
X0036169Y0071776D01*
X0036091Y0071670D01*
X0036010Y0071567D01*
X0035925Y0071466D01*
X0035838Y0071368D01*
X0035747Y0071273D01*
X0035654Y0071180D01*
X0035558Y0071090D01*
X0035459Y0071003D01*
X0035358Y0070920D01*
X0035254Y0070839D01*
X0035148Y0070762D01*
X0035039Y0070688D01*
X0034928Y0070617D01*
X0034816Y0070549D01*
X0034701Y0070485D01*
X0034584Y0070425D01*
X0034465Y0070368D01*
X0034345Y0070315D01*
X0034224Y0070265D01*
X0034100Y0070219D01*
X0033976Y0070177D01*
X0033850Y0070139D01*
X0033723Y0070104D01*
X0033595Y0070073D01*
X0033467Y0070047D01*
X0033337Y0070024D01*
X0033207Y0070005D01*
X0033077Y0069990D01*
X0032946Y0069979D01*
X0032814Y0069972D01*
X0032683Y0069969D01*
X0032551Y0069970D01*
X0032420Y0069975D01*
X0032289Y0069984D01*
X0032158Y0069997D01*
X0032028Y0070014D01*
X0031898Y0070035D01*
X0031769Y0070060D01*
X0031641Y0070088D01*
X0031513Y0070121D01*
X0031387Y0070157D01*
X0031262Y0070198D01*
X0031138Y0070242D01*
X0031015Y0070289D01*
X0030894Y0070341D01*
X0030775Y0070396D01*
X0030657Y0070455D01*
X0030542Y0070517D01*
X0030428Y0070583D01*
X0030316Y0070652D01*
X0030206Y0070724D01*
X0030099Y0070800D01*
X0029994Y0070879D01*
X0029891Y0070961D01*
X0029791Y0071046D01*
X0029694Y0071135D01*
X0029599Y0071226D01*
X0029507Y0071320D01*
X0029418Y0071417D01*
X0029332Y0071516D01*
X0029249Y0071618D01*
X0029169Y0071723D01*
X0029093Y0071829D01*
X0029020Y0071938D01*
X0028950Y0072050D01*
X0028883Y0072163D01*
X0028820Y0072278D01*
X0028760Y0072396D01*
X0028704Y0072514D01*
X0028652Y0072635D01*
X0028603Y0072757D01*
X0028558Y0072881D01*
X0028517Y0073005D01*
X0028480Y0073132D01*
X0028446Y0073259D01*
X0028416Y0073387D01*
X0028391Y0073516D01*
X0028369Y0073645D01*
X0028351Y0073775D01*
X0028337Y0073906D01*
X0028327Y0074037D01*
X0028321Y0074169D01*
X0028319Y0074300D01*
X0028319Y0121800D02*
X0028321Y0121931D01*
X0028327Y0122063D01*
X0028337Y0122194D01*
X0028351Y0122325D01*
X0028369Y0122455D01*
X0028391Y0122584D01*
X0028416Y0122713D01*
X0028446Y0122841D01*
X0028480Y0122968D01*
X0028517Y0123095D01*
X0028558Y0123219D01*
X0028603Y0123343D01*
X0028652Y0123465D01*
X0028704Y0123586D01*
X0028760Y0123704D01*
X0028820Y0123822D01*
X0028883Y0123937D01*
X0028950Y0124050D01*
X0029020Y0124162D01*
X0029093Y0124271D01*
X0029169Y0124377D01*
X0029249Y0124482D01*
X0029332Y0124584D01*
X0029418Y0124683D01*
X0029507Y0124780D01*
X0029599Y0124874D01*
X0029694Y0124965D01*
X0029791Y0125054D01*
X0029891Y0125139D01*
X0029994Y0125221D01*
X0030099Y0125300D01*
X0030206Y0125376D01*
X0030316Y0125448D01*
X0030428Y0125517D01*
X0030542Y0125583D01*
X0030657Y0125645D01*
X0030775Y0125704D01*
X0030894Y0125759D01*
X0031015Y0125811D01*
X0031138Y0125858D01*
X0031262Y0125902D01*
X0031387Y0125943D01*
X0031513Y0125979D01*
X0031641Y0126012D01*
X0031769Y0126040D01*
X0031898Y0126065D01*
X0032028Y0126086D01*
X0032158Y0126103D01*
X0032289Y0126116D01*
X0032420Y0126125D01*
X0032551Y0126130D01*
X0032683Y0126131D01*
X0032814Y0126128D01*
X0032946Y0126121D01*
X0033077Y0126110D01*
X0033207Y0126095D01*
X0033337Y0126076D01*
X0033467Y0126053D01*
X0033595Y0126027D01*
X0033723Y0125996D01*
X0033850Y0125961D01*
X0033976Y0125923D01*
X0034100Y0125881D01*
X0034224Y0125835D01*
X0034345Y0125785D01*
X0034465Y0125732D01*
X0034584Y0125675D01*
X0034701Y0125615D01*
X0034815Y0125551D01*
X0034928Y0125483D01*
X0035039Y0125412D01*
X0035148Y0125338D01*
X0035254Y0125261D01*
X0035358Y0125180D01*
X0035459Y0125097D01*
X0035558Y0125010D01*
X0035654Y0124920D01*
X0035747Y0124827D01*
X0035838Y0124732D01*
X0035925Y0124634D01*
X0036010Y0124533D01*
X0036091Y0124430D01*
X0036169Y0124324D01*
X0036244Y0124216D01*
X0036316Y0124106D01*
X0036384Y0123994D01*
X0036449Y0123880D01*
X0036510Y0123763D01*
X0036568Y0123645D01*
X0036622Y0123525D01*
X0036673Y0123404D01*
X0036720Y0123281D01*
X0036763Y0123157D01*
X0036802Y0123032D01*
X0036838Y0122905D01*
X0036869Y0122777D01*
X0036897Y0122649D01*
X0036921Y0122520D01*
X0036941Y0122390D01*
X0036957Y0122259D01*
X0036969Y0122128D01*
X0036977Y0121997D01*
X0036981Y0121866D01*
X0036981Y0121734D01*
X0036977Y0121603D01*
X0036969Y0121472D01*
X0036957Y0121341D01*
X0036941Y0121210D01*
X0036921Y0121080D01*
X0036897Y0120951D01*
X0036869Y0120823D01*
X0036838Y0120695D01*
X0036802Y0120568D01*
X0036763Y0120443D01*
X0036720Y0120319D01*
X0036673Y0120196D01*
X0036622Y0120075D01*
X0036568Y0119955D01*
X0036510Y0119837D01*
X0036449Y0119720D01*
X0036384Y0119606D01*
X0036316Y0119494D01*
X0036244Y0119384D01*
X0036169Y0119276D01*
X0036091Y0119170D01*
X0036010Y0119067D01*
X0035925Y0118966D01*
X0035838Y0118868D01*
X0035747Y0118773D01*
X0035654Y0118680D01*
X0035558Y0118590D01*
X0035459Y0118503D01*
X0035358Y0118420D01*
X0035254Y0118339D01*
X0035148Y0118262D01*
X0035039Y0118188D01*
X0034928Y0118117D01*
X0034816Y0118049D01*
X0034701Y0117985D01*
X0034584Y0117925D01*
X0034465Y0117868D01*
X0034345Y0117815D01*
X0034224Y0117765D01*
X0034100Y0117719D01*
X0033976Y0117677D01*
X0033850Y0117639D01*
X0033723Y0117604D01*
X0033595Y0117573D01*
X0033467Y0117547D01*
X0033337Y0117524D01*
X0033207Y0117505D01*
X0033077Y0117490D01*
X0032946Y0117479D01*
X0032814Y0117472D01*
X0032683Y0117469D01*
X0032551Y0117470D01*
X0032420Y0117475D01*
X0032289Y0117484D01*
X0032158Y0117497D01*
X0032028Y0117514D01*
X0031898Y0117535D01*
X0031769Y0117560D01*
X0031641Y0117588D01*
X0031513Y0117621D01*
X0031387Y0117657D01*
X0031262Y0117698D01*
X0031138Y0117742D01*
X0031015Y0117789D01*
X0030894Y0117841D01*
X0030775Y0117896D01*
X0030657Y0117955D01*
X0030542Y0118017D01*
X0030428Y0118083D01*
X0030316Y0118152D01*
X0030206Y0118224D01*
X0030099Y0118300D01*
X0029994Y0118379D01*
X0029891Y0118461D01*
X0029791Y0118546D01*
X0029694Y0118635D01*
X0029599Y0118726D01*
X0029507Y0118820D01*
X0029418Y0118917D01*
X0029332Y0119016D01*
X0029249Y0119118D01*
X0029169Y0119223D01*
X0029093Y0119329D01*
X0029020Y0119438D01*
X0028950Y0119550D01*
X0028883Y0119663D01*
X0028820Y0119778D01*
X0028760Y0119896D01*
X0028704Y0120014D01*
X0028652Y0120135D01*
X0028603Y0120257D01*
X0028558Y0120381D01*
X0028517Y0120505D01*
X0028480Y0120632D01*
X0028446Y0120759D01*
X0028416Y0120887D01*
X0028391Y0121016D01*
X0028369Y0121145D01*
X0028351Y0121275D01*
X0028337Y0121406D01*
X0028327Y0121537D01*
X0028321Y0121669D01*
X0028319Y0121800D01*
X0075819Y0121800D02*
X0075821Y0121931D01*
X0075827Y0122063D01*
X0075837Y0122194D01*
X0075851Y0122325D01*
X0075869Y0122455D01*
X0075891Y0122584D01*
X0075916Y0122713D01*
X0075946Y0122841D01*
X0075980Y0122968D01*
X0076017Y0123095D01*
X0076058Y0123219D01*
X0076103Y0123343D01*
X0076152Y0123465D01*
X0076204Y0123586D01*
X0076260Y0123704D01*
X0076320Y0123822D01*
X0076383Y0123937D01*
X0076450Y0124050D01*
X0076520Y0124162D01*
X0076593Y0124271D01*
X0076669Y0124377D01*
X0076749Y0124482D01*
X0076832Y0124584D01*
X0076918Y0124683D01*
X0077007Y0124780D01*
X0077099Y0124874D01*
X0077194Y0124965D01*
X0077291Y0125054D01*
X0077391Y0125139D01*
X0077494Y0125221D01*
X0077599Y0125300D01*
X0077706Y0125376D01*
X0077816Y0125448D01*
X0077928Y0125517D01*
X0078042Y0125583D01*
X0078157Y0125645D01*
X0078275Y0125704D01*
X0078394Y0125759D01*
X0078515Y0125811D01*
X0078638Y0125858D01*
X0078762Y0125902D01*
X0078887Y0125943D01*
X0079013Y0125979D01*
X0079141Y0126012D01*
X0079269Y0126040D01*
X0079398Y0126065D01*
X0079528Y0126086D01*
X0079658Y0126103D01*
X0079789Y0126116D01*
X0079920Y0126125D01*
X0080051Y0126130D01*
X0080183Y0126131D01*
X0080314Y0126128D01*
X0080446Y0126121D01*
X0080577Y0126110D01*
X0080707Y0126095D01*
X0080837Y0126076D01*
X0080967Y0126053D01*
X0081095Y0126027D01*
X0081223Y0125996D01*
X0081350Y0125961D01*
X0081476Y0125923D01*
X0081600Y0125881D01*
X0081724Y0125835D01*
X0081845Y0125785D01*
X0081965Y0125732D01*
X0082084Y0125675D01*
X0082201Y0125615D01*
X0082315Y0125551D01*
X0082428Y0125483D01*
X0082539Y0125412D01*
X0082648Y0125338D01*
X0082754Y0125261D01*
X0082858Y0125180D01*
X0082959Y0125097D01*
X0083058Y0125010D01*
X0083154Y0124920D01*
X0083247Y0124827D01*
X0083338Y0124732D01*
X0083425Y0124634D01*
X0083510Y0124533D01*
X0083591Y0124430D01*
X0083669Y0124324D01*
X0083744Y0124216D01*
X0083816Y0124106D01*
X0083884Y0123994D01*
X0083949Y0123880D01*
X0084010Y0123763D01*
X0084068Y0123645D01*
X0084122Y0123525D01*
X0084173Y0123404D01*
X0084220Y0123281D01*
X0084263Y0123157D01*
X0084302Y0123032D01*
X0084338Y0122905D01*
X0084369Y0122777D01*
X0084397Y0122649D01*
X0084421Y0122520D01*
X0084441Y0122390D01*
X0084457Y0122259D01*
X0084469Y0122128D01*
X0084477Y0121997D01*
X0084481Y0121866D01*
X0084481Y0121734D01*
X0084477Y0121603D01*
X0084469Y0121472D01*
X0084457Y0121341D01*
X0084441Y0121210D01*
X0084421Y0121080D01*
X0084397Y0120951D01*
X0084369Y0120823D01*
X0084338Y0120695D01*
X0084302Y0120568D01*
X0084263Y0120443D01*
X0084220Y0120319D01*
X0084173Y0120196D01*
X0084122Y0120075D01*
X0084068Y0119955D01*
X0084010Y0119837D01*
X0083949Y0119720D01*
X0083884Y0119606D01*
X0083816Y0119494D01*
X0083744Y0119384D01*
X0083669Y0119276D01*
X0083591Y0119170D01*
X0083510Y0119067D01*
X0083425Y0118966D01*
X0083338Y0118868D01*
X0083247Y0118773D01*
X0083154Y0118680D01*
X0083058Y0118590D01*
X0082959Y0118503D01*
X0082858Y0118420D01*
X0082754Y0118339D01*
X0082648Y0118262D01*
X0082539Y0118188D01*
X0082428Y0118117D01*
X0082316Y0118049D01*
X0082201Y0117985D01*
X0082084Y0117925D01*
X0081965Y0117868D01*
X0081845Y0117815D01*
X0081724Y0117765D01*
X0081600Y0117719D01*
X0081476Y0117677D01*
X0081350Y0117639D01*
X0081223Y0117604D01*
X0081095Y0117573D01*
X0080967Y0117547D01*
X0080837Y0117524D01*
X0080707Y0117505D01*
X0080577Y0117490D01*
X0080446Y0117479D01*
X0080314Y0117472D01*
X0080183Y0117469D01*
X0080051Y0117470D01*
X0079920Y0117475D01*
X0079789Y0117484D01*
X0079658Y0117497D01*
X0079528Y0117514D01*
X0079398Y0117535D01*
X0079269Y0117560D01*
X0079141Y0117588D01*
X0079013Y0117621D01*
X0078887Y0117657D01*
X0078762Y0117698D01*
X0078638Y0117742D01*
X0078515Y0117789D01*
X0078394Y0117841D01*
X0078275Y0117896D01*
X0078157Y0117955D01*
X0078042Y0118017D01*
X0077928Y0118083D01*
X0077816Y0118152D01*
X0077706Y0118224D01*
X0077599Y0118300D01*
X0077494Y0118379D01*
X0077391Y0118461D01*
X0077291Y0118546D01*
X0077194Y0118635D01*
X0077099Y0118726D01*
X0077007Y0118820D01*
X0076918Y0118917D01*
X0076832Y0119016D01*
X0076749Y0119118D01*
X0076669Y0119223D01*
X0076593Y0119329D01*
X0076520Y0119438D01*
X0076450Y0119550D01*
X0076383Y0119663D01*
X0076320Y0119778D01*
X0076260Y0119896D01*
X0076204Y0120014D01*
X0076152Y0120135D01*
X0076103Y0120257D01*
X0076058Y0120381D01*
X0076017Y0120505D01*
X0075980Y0120632D01*
X0075946Y0120759D01*
X0075916Y0120887D01*
X0075891Y0121016D01*
X0075869Y0121145D01*
X0075851Y0121275D01*
X0075837Y0121406D01*
X0075827Y0121537D01*
X0075821Y0121669D01*
X0075819Y0121800D01*
X0075819Y0074300D02*
X0075821Y0074431D01*
X0075827Y0074563D01*
X0075837Y0074694D01*
X0075851Y0074825D01*
X0075869Y0074955D01*
X0075891Y0075084D01*
X0075916Y0075213D01*
X0075946Y0075341D01*
X0075980Y0075468D01*
X0076017Y0075595D01*
X0076058Y0075719D01*
X0076103Y0075843D01*
X0076152Y0075965D01*
X0076204Y0076086D01*
X0076260Y0076204D01*
X0076320Y0076322D01*
X0076383Y0076437D01*
X0076450Y0076550D01*
X0076520Y0076662D01*
X0076593Y0076771D01*
X0076669Y0076877D01*
X0076749Y0076982D01*
X0076832Y0077084D01*
X0076918Y0077183D01*
X0077007Y0077280D01*
X0077099Y0077374D01*
X0077194Y0077465D01*
X0077291Y0077554D01*
X0077391Y0077639D01*
X0077494Y0077721D01*
X0077599Y0077800D01*
X0077706Y0077876D01*
X0077816Y0077948D01*
X0077928Y0078017D01*
X0078042Y0078083D01*
X0078157Y0078145D01*
X0078275Y0078204D01*
X0078394Y0078259D01*
X0078515Y0078311D01*
X0078638Y0078358D01*
X0078762Y0078402D01*
X0078887Y0078443D01*
X0079013Y0078479D01*
X0079141Y0078512D01*
X0079269Y0078540D01*
X0079398Y0078565D01*
X0079528Y0078586D01*
X0079658Y0078603D01*
X0079789Y0078616D01*
X0079920Y0078625D01*
X0080051Y0078630D01*
X0080183Y0078631D01*
X0080314Y0078628D01*
X0080446Y0078621D01*
X0080577Y0078610D01*
X0080707Y0078595D01*
X0080837Y0078576D01*
X0080967Y0078553D01*
X0081095Y0078527D01*
X0081223Y0078496D01*
X0081350Y0078461D01*
X0081476Y0078423D01*
X0081600Y0078381D01*
X0081724Y0078335D01*
X0081845Y0078285D01*
X0081965Y0078232D01*
X0082084Y0078175D01*
X0082201Y0078115D01*
X0082315Y0078051D01*
X0082428Y0077983D01*
X0082539Y0077912D01*
X0082648Y0077838D01*
X0082754Y0077761D01*
X0082858Y0077680D01*
X0082959Y0077597D01*
X0083058Y0077510D01*
X0083154Y0077420D01*
X0083247Y0077327D01*
X0083338Y0077232D01*
X0083425Y0077134D01*
X0083510Y0077033D01*
X0083591Y0076930D01*
X0083669Y0076824D01*
X0083744Y0076716D01*
X0083816Y0076606D01*
X0083884Y0076494D01*
X0083949Y0076380D01*
X0084010Y0076263D01*
X0084068Y0076145D01*
X0084122Y0076025D01*
X0084173Y0075904D01*
X0084220Y0075781D01*
X0084263Y0075657D01*
X0084302Y0075532D01*
X0084338Y0075405D01*
X0084369Y0075277D01*
X0084397Y0075149D01*
X0084421Y0075020D01*
X0084441Y0074890D01*
X0084457Y0074759D01*
X0084469Y0074628D01*
X0084477Y0074497D01*
X0084481Y0074366D01*
X0084481Y0074234D01*
X0084477Y0074103D01*
X0084469Y0073972D01*
X0084457Y0073841D01*
X0084441Y0073710D01*
X0084421Y0073580D01*
X0084397Y0073451D01*
X0084369Y0073323D01*
X0084338Y0073195D01*
X0084302Y0073068D01*
X0084263Y0072943D01*
X0084220Y0072819D01*
X0084173Y0072696D01*
X0084122Y0072575D01*
X0084068Y0072455D01*
X0084010Y0072337D01*
X0083949Y0072220D01*
X0083884Y0072106D01*
X0083816Y0071994D01*
X0083744Y0071884D01*
X0083669Y0071776D01*
X0083591Y0071670D01*
X0083510Y0071567D01*
X0083425Y0071466D01*
X0083338Y0071368D01*
X0083247Y0071273D01*
X0083154Y0071180D01*
X0083058Y0071090D01*
X0082959Y0071003D01*
X0082858Y0070920D01*
X0082754Y0070839D01*
X0082648Y0070762D01*
X0082539Y0070688D01*
X0082428Y0070617D01*
X0082316Y0070549D01*
X0082201Y0070485D01*
X0082084Y0070425D01*
X0081965Y0070368D01*
X0081845Y0070315D01*
X0081724Y0070265D01*
X0081600Y0070219D01*
X0081476Y0070177D01*
X0081350Y0070139D01*
X0081223Y0070104D01*
X0081095Y0070073D01*
X0080967Y0070047D01*
X0080837Y0070024D01*
X0080707Y0070005D01*
X0080577Y0069990D01*
X0080446Y0069979D01*
X0080314Y0069972D01*
X0080183Y0069969D01*
X0080051Y0069970D01*
X0079920Y0069975D01*
X0079789Y0069984D01*
X0079658Y0069997D01*
X0079528Y0070014D01*
X0079398Y0070035D01*
X0079269Y0070060D01*
X0079141Y0070088D01*
X0079013Y0070121D01*
X0078887Y0070157D01*
X0078762Y0070198D01*
X0078638Y0070242D01*
X0078515Y0070289D01*
X0078394Y0070341D01*
X0078275Y0070396D01*
X0078157Y0070455D01*
X0078042Y0070517D01*
X0077928Y0070583D01*
X0077816Y0070652D01*
X0077706Y0070724D01*
X0077599Y0070800D01*
X0077494Y0070879D01*
X0077391Y0070961D01*
X0077291Y0071046D01*
X0077194Y0071135D01*
X0077099Y0071226D01*
X0077007Y0071320D01*
X0076918Y0071417D01*
X0076832Y0071516D01*
X0076749Y0071618D01*
X0076669Y0071723D01*
X0076593Y0071829D01*
X0076520Y0071938D01*
X0076450Y0072050D01*
X0076383Y0072163D01*
X0076320Y0072278D01*
X0076260Y0072396D01*
X0076204Y0072514D01*
X0076152Y0072635D01*
X0076103Y0072757D01*
X0076058Y0072881D01*
X0076017Y0073005D01*
X0075980Y0073132D01*
X0075946Y0073259D01*
X0075916Y0073387D01*
X0075891Y0073516D01*
X0075869Y0073645D01*
X0075851Y0073775D01*
X0075837Y0073906D01*
X0075827Y0074037D01*
X0075821Y0074169D01*
X0075819Y0074300D01*
X0075819Y0026800D02*
X0075821Y0026931D01*
X0075827Y0027063D01*
X0075837Y0027194D01*
X0075851Y0027325D01*
X0075869Y0027455D01*
X0075891Y0027584D01*
X0075916Y0027713D01*
X0075946Y0027841D01*
X0075980Y0027968D01*
X0076017Y0028095D01*
X0076058Y0028219D01*
X0076103Y0028343D01*
X0076152Y0028465D01*
X0076204Y0028586D01*
X0076260Y0028704D01*
X0076320Y0028822D01*
X0076383Y0028937D01*
X0076450Y0029050D01*
X0076520Y0029162D01*
X0076593Y0029271D01*
X0076669Y0029377D01*
X0076749Y0029482D01*
X0076832Y0029584D01*
X0076918Y0029683D01*
X0077007Y0029780D01*
X0077099Y0029874D01*
X0077194Y0029965D01*
X0077291Y0030054D01*
X0077391Y0030139D01*
X0077494Y0030221D01*
X0077599Y0030300D01*
X0077706Y0030376D01*
X0077816Y0030448D01*
X0077928Y0030517D01*
X0078042Y0030583D01*
X0078157Y0030645D01*
X0078275Y0030704D01*
X0078394Y0030759D01*
X0078515Y0030811D01*
X0078638Y0030858D01*
X0078762Y0030902D01*
X0078887Y0030943D01*
X0079013Y0030979D01*
X0079141Y0031012D01*
X0079269Y0031040D01*
X0079398Y0031065D01*
X0079528Y0031086D01*
X0079658Y0031103D01*
X0079789Y0031116D01*
X0079920Y0031125D01*
X0080051Y0031130D01*
X0080183Y0031131D01*
X0080314Y0031128D01*
X0080446Y0031121D01*
X0080577Y0031110D01*
X0080707Y0031095D01*
X0080837Y0031076D01*
X0080967Y0031053D01*
X0081095Y0031027D01*
X0081223Y0030996D01*
X0081350Y0030961D01*
X0081476Y0030923D01*
X0081600Y0030881D01*
X0081724Y0030835D01*
X0081845Y0030785D01*
X0081965Y0030732D01*
X0082084Y0030675D01*
X0082201Y0030615D01*
X0082315Y0030551D01*
X0082428Y0030483D01*
X0082539Y0030412D01*
X0082648Y0030338D01*
X0082754Y0030261D01*
X0082858Y0030180D01*
X0082959Y0030097D01*
X0083058Y0030010D01*
X0083154Y0029920D01*
X0083247Y0029827D01*
X0083338Y0029732D01*
X0083425Y0029634D01*
X0083510Y0029533D01*
X0083591Y0029430D01*
X0083669Y0029324D01*
X0083744Y0029216D01*
X0083816Y0029106D01*
X0083884Y0028994D01*
X0083949Y0028880D01*
X0084010Y0028763D01*
X0084068Y0028645D01*
X0084122Y0028525D01*
X0084173Y0028404D01*
X0084220Y0028281D01*
X0084263Y0028157D01*
X0084302Y0028032D01*
X0084338Y0027905D01*
X0084369Y0027777D01*
X0084397Y0027649D01*
X0084421Y0027520D01*
X0084441Y0027390D01*
X0084457Y0027259D01*
X0084469Y0027128D01*
X0084477Y0026997D01*
X0084481Y0026866D01*
X0084481Y0026734D01*
X0084477Y0026603D01*
X0084469Y0026472D01*
X0084457Y0026341D01*
X0084441Y0026210D01*
X0084421Y0026080D01*
X0084397Y0025951D01*
X0084369Y0025823D01*
X0084338Y0025695D01*
X0084302Y0025568D01*
X0084263Y0025443D01*
X0084220Y0025319D01*
X0084173Y0025196D01*
X0084122Y0025075D01*
X0084068Y0024955D01*
X0084010Y0024837D01*
X0083949Y0024720D01*
X0083884Y0024606D01*
X0083816Y0024494D01*
X0083744Y0024384D01*
X0083669Y0024276D01*
X0083591Y0024170D01*
X0083510Y0024067D01*
X0083425Y0023966D01*
X0083338Y0023868D01*
X0083247Y0023773D01*
X0083154Y0023680D01*
X0083058Y0023590D01*
X0082959Y0023503D01*
X0082858Y0023420D01*
X0082754Y0023339D01*
X0082648Y0023262D01*
X0082539Y0023188D01*
X0082428Y0023117D01*
X0082316Y0023049D01*
X0082201Y0022985D01*
X0082084Y0022925D01*
X0081965Y0022868D01*
X0081845Y0022815D01*
X0081724Y0022765D01*
X0081600Y0022719D01*
X0081476Y0022677D01*
X0081350Y0022639D01*
X0081223Y0022604D01*
X0081095Y0022573D01*
X0080967Y0022547D01*
X0080837Y0022524D01*
X0080707Y0022505D01*
X0080577Y0022490D01*
X0080446Y0022479D01*
X0080314Y0022472D01*
X0080183Y0022469D01*
X0080051Y0022470D01*
X0079920Y0022475D01*
X0079789Y0022484D01*
X0079658Y0022497D01*
X0079528Y0022514D01*
X0079398Y0022535D01*
X0079269Y0022560D01*
X0079141Y0022588D01*
X0079013Y0022621D01*
X0078887Y0022657D01*
X0078762Y0022698D01*
X0078638Y0022742D01*
X0078515Y0022789D01*
X0078394Y0022841D01*
X0078275Y0022896D01*
X0078157Y0022955D01*
X0078042Y0023017D01*
X0077928Y0023083D01*
X0077816Y0023152D01*
X0077706Y0023224D01*
X0077599Y0023300D01*
X0077494Y0023379D01*
X0077391Y0023461D01*
X0077291Y0023546D01*
X0077194Y0023635D01*
X0077099Y0023726D01*
X0077007Y0023820D01*
X0076918Y0023917D01*
X0076832Y0024016D01*
X0076749Y0024118D01*
X0076669Y0024223D01*
X0076593Y0024329D01*
X0076520Y0024438D01*
X0076450Y0024550D01*
X0076383Y0024663D01*
X0076320Y0024778D01*
X0076260Y0024896D01*
X0076204Y0025014D01*
X0076152Y0025135D01*
X0076103Y0025257D01*
X0076058Y0025381D01*
X0076017Y0025505D01*
X0075980Y0025632D01*
X0075946Y0025759D01*
X0075916Y0025887D01*
X0075891Y0026016D01*
X0075869Y0026145D01*
X0075851Y0026275D01*
X0075837Y0026406D01*
X0075827Y0026537D01*
X0075821Y0026669D01*
X0075819Y0026800D01*
X0123319Y0026800D02*
X0123321Y0026931D01*
X0123327Y0027063D01*
X0123337Y0027194D01*
X0123351Y0027325D01*
X0123369Y0027455D01*
X0123391Y0027584D01*
X0123416Y0027713D01*
X0123446Y0027841D01*
X0123480Y0027968D01*
X0123517Y0028095D01*
X0123558Y0028219D01*
X0123603Y0028343D01*
X0123652Y0028465D01*
X0123704Y0028586D01*
X0123760Y0028704D01*
X0123820Y0028822D01*
X0123883Y0028937D01*
X0123950Y0029050D01*
X0124020Y0029162D01*
X0124093Y0029271D01*
X0124169Y0029377D01*
X0124249Y0029482D01*
X0124332Y0029584D01*
X0124418Y0029683D01*
X0124507Y0029780D01*
X0124599Y0029874D01*
X0124694Y0029965D01*
X0124791Y0030054D01*
X0124891Y0030139D01*
X0124994Y0030221D01*
X0125099Y0030300D01*
X0125206Y0030376D01*
X0125316Y0030448D01*
X0125428Y0030517D01*
X0125542Y0030583D01*
X0125657Y0030645D01*
X0125775Y0030704D01*
X0125894Y0030759D01*
X0126015Y0030811D01*
X0126138Y0030858D01*
X0126262Y0030902D01*
X0126387Y0030943D01*
X0126513Y0030979D01*
X0126641Y0031012D01*
X0126769Y0031040D01*
X0126898Y0031065D01*
X0127028Y0031086D01*
X0127158Y0031103D01*
X0127289Y0031116D01*
X0127420Y0031125D01*
X0127551Y0031130D01*
X0127683Y0031131D01*
X0127814Y0031128D01*
X0127946Y0031121D01*
X0128077Y0031110D01*
X0128207Y0031095D01*
X0128337Y0031076D01*
X0128467Y0031053D01*
X0128595Y0031027D01*
X0128723Y0030996D01*
X0128850Y0030961D01*
X0128976Y0030923D01*
X0129100Y0030881D01*
X0129224Y0030835D01*
X0129345Y0030785D01*
X0129465Y0030732D01*
X0129584Y0030675D01*
X0129701Y0030615D01*
X0129815Y0030551D01*
X0129928Y0030483D01*
X0130039Y0030412D01*
X0130148Y0030338D01*
X0130254Y0030261D01*
X0130358Y0030180D01*
X0130459Y0030097D01*
X0130558Y0030010D01*
X0130654Y0029920D01*
X0130747Y0029827D01*
X0130838Y0029732D01*
X0130925Y0029634D01*
X0131010Y0029533D01*
X0131091Y0029430D01*
X0131169Y0029324D01*
X0131244Y0029216D01*
X0131316Y0029106D01*
X0131384Y0028994D01*
X0131449Y0028880D01*
X0131510Y0028763D01*
X0131568Y0028645D01*
X0131622Y0028525D01*
X0131673Y0028404D01*
X0131720Y0028281D01*
X0131763Y0028157D01*
X0131802Y0028032D01*
X0131838Y0027905D01*
X0131869Y0027777D01*
X0131897Y0027649D01*
X0131921Y0027520D01*
X0131941Y0027390D01*
X0131957Y0027259D01*
X0131969Y0027128D01*
X0131977Y0026997D01*
X0131981Y0026866D01*
X0131981Y0026734D01*
X0131977Y0026603D01*
X0131969Y0026472D01*
X0131957Y0026341D01*
X0131941Y0026210D01*
X0131921Y0026080D01*
X0131897Y0025951D01*
X0131869Y0025823D01*
X0131838Y0025695D01*
X0131802Y0025568D01*
X0131763Y0025443D01*
X0131720Y0025319D01*
X0131673Y0025196D01*
X0131622Y0025075D01*
X0131568Y0024955D01*
X0131510Y0024837D01*
X0131449Y0024720D01*
X0131384Y0024606D01*
X0131316Y0024494D01*
X0131244Y0024384D01*
X0131169Y0024276D01*
X0131091Y0024170D01*
X0131010Y0024067D01*
X0130925Y0023966D01*
X0130838Y0023868D01*
X0130747Y0023773D01*
X0130654Y0023680D01*
X0130558Y0023590D01*
X0130459Y0023503D01*
X0130358Y0023420D01*
X0130254Y0023339D01*
X0130148Y0023262D01*
X0130039Y0023188D01*
X0129928Y0023117D01*
X0129816Y0023049D01*
X0129701Y0022985D01*
X0129584Y0022925D01*
X0129465Y0022868D01*
X0129345Y0022815D01*
X0129224Y0022765D01*
X0129100Y0022719D01*
X0128976Y0022677D01*
X0128850Y0022639D01*
X0128723Y0022604D01*
X0128595Y0022573D01*
X0128467Y0022547D01*
X0128337Y0022524D01*
X0128207Y0022505D01*
X0128077Y0022490D01*
X0127946Y0022479D01*
X0127814Y0022472D01*
X0127683Y0022469D01*
X0127551Y0022470D01*
X0127420Y0022475D01*
X0127289Y0022484D01*
X0127158Y0022497D01*
X0127028Y0022514D01*
X0126898Y0022535D01*
X0126769Y0022560D01*
X0126641Y0022588D01*
X0126513Y0022621D01*
X0126387Y0022657D01*
X0126262Y0022698D01*
X0126138Y0022742D01*
X0126015Y0022789D01*
X0125894Y0022841D01*
X0125775Y0022896D01*
X0125657Y0022955D01*
X0125542Y0023017D01*
X0125428Y0023083D01*
X0125316Y0023152D01*
X0125206Y0023224D01*
X0125099Y0023300D01*
X0124994Y0023379D01*
X0124891Y0023461D01*
X0124791Y0023546D01*
X0124694Y0023635D01*
X0124599Y0023726D01*
X0124507Y0023820D01*
X0124418Y0023917D01*
X0124332Y0024016D01*
X0124249Y0024118D01*
X0124169Y0024223D01*
X0124093Y0024329D01*
X0124020Y0024438D01*
X0123950Y0024550D01*
X0123883Y0024663D01*
X0123820Y0024778D01*
X0123760Y0024896D01*
X0123704Y0025014D01*
X0123652Y0025135D01*
X0123603Y0025257D01*
X0123558Y0025381D01*
X0123517Y0025505D01*
X0123480Y0025632D01*
X0123446Y0025759D01*
X0123416Y0025887D01*
X0123391Y0026016D01*
X0123369Y0026145D01*
X0123351Y0026275D01*
X0123337Y0026406D01*
X0123327Y0026537D01*
X0123321Y0026669D01*
X0123319Y0026800D01*
X0123319Y0074300D02*
X0123321Y0074431D01*
X0123327Y0074563D01*
X0123337Y0074694D01*
X0123351Y0074825D01*
X0123369Y0074955D01*
X0123391Y0075084D01*
X0123416Y0075213D01*
X0123446Y0075341D01*
X0123480Y0075468D01*
X0123517Y0075595D01*
X0123558Y0075719D01*
X0123603Y0075843D01*
X0123652Y0075965D01*
X0123704Y0076086D01*
X0123760Y0076204D01*
X0123820Y0076322D01*
X0123883Y0076437D01*
X0123950Y0076550D01*
X0124020Y0076662D01*
X0124093Y0076771D01*
X0124169Y0076877D01*
X0124249Y0076982D01*
X0124332Y0077084D01*
X0124418Y0077183D01*
X0124507Y0077280D01*
X0124599Y0077374D01*
X0124694Y0077465D01*
X0124791Y0077554D01*
X0124891Y0077639D01*
X0124994Y0077721D01*
X0125099Y0077800D01*
X0125206Y0077876D01*
X0125316Y0077948D01*
X0125428Y0078017D01*
X0125542Y0078083D01*
X0125657Y0078145D01*
X0125775Y0078204D01*
X0125894Y0078259D01*
X0126015Y0078311D01*
X0126138Y0078358D01*
X0126262Y0078402D01*
X0126387Y0078443D01*
X0126513Y0078479D01*
X0126641Y0078512D01*
X0126769Y0078540D01*
X0126898Y0078565D01*
X0127028Y0078586D01*
X0127158Y0078603D01*
X0127289Y0078616D01*
X0127420Y0078625D01*
X0127551Y0078630D01*
X0127683Y0078631D01*
X0127814Y0078628D01*
X0127946Y0078621D01*
X0128077Y0078610D01*
X0128207Y0078595D01*
X0128337Y0078576D01*
X0128467Y0078553D01*
X0128595Y0078527D01*
X0128723Y0078496D01*
X0128850Y0078461D01*
X0128976Y0078423D01*
X0129100Y0078381D01*
X0129224Y0078335D01*
X0129345Y0078285D01*
X0129465Y0078232D01*
X0129584Y0078175D01*
X0129701Y0078115D01*
X0129815Y0078051D01*
X0129928Y0077983D01*
X0130039Y0077912D01*
X0130148Y0077838D01*
X0130254Y0077761D01*
X0130358Y0077680D01*
X0130459Y0077597D01*
X0130558Y0077510D01*
X0130654Y0077420D01*
X0130747Y0077327D01*
X0130838Y0077232D01*
X0130925Y0077134D01*
X0131010Y0077033D01*
X0131091Y0076930D01*
X0131169Y0076824D01*
X0131244Y0076716D01*
X0131316Y0076606D01*
X0131384Y0076494D01*
X0131449Y0076380D01*
X0131510Y0076263D01*
X0131568Y0076145D01*
X0131622Y0076025D01*
X0131673Y0075904D01*
X0131720Y0075781D01*
X0131763Y0075657D01*
X0131802Y0075532D01*
X0131838Y0075405D01*
X0131869Y0075277D01*
X0131897Y0075149D01*
X0131921Y0075020D01*
X0131941Y0074890D01*
X0131957Y0074759D01*
X0131969Y0074628D01*
X0131977Y0074497D01*
X0131981Y0074366D01*
X0131981Y0074234D01*
X0131977Y0074103D01*
X0131969Y0073972D01*
X0131957Y0073841D01*
X0131941Y0073710D01*
X0131921Y0073580D01*
X0131897Y0073451D01*
X0131869Y0073323D01*
X0131838Y0073195D01*
X0131802Y0073068D01*
X0131763Y0072943D01*
X0131720Y0072819D01*
X0131673Y0072696D01*
X0131622Y0072575D01*
X0131568Y0072455D01*
X0131510Y0072337D01*
X0131449Y0072220D01*
X0131384Y0072106D01*
X0131316Y0071994D01*
X0131244Y0071884D01*
X0131169Y0071776D01*
X0131091Y0071670D01*
X0131010Y0071567D01*
X0130925Y0071466D01*
X0130838Y0071368D01*
X0130747Y0071273D01*
X0130654Y0071180D01*
X0130558Y0071090D01*
X0130459Y0071003D01*
X0130358Y0070920D01*
X0130254Y0070839D01*
X0130148Y0070762D01*
X0130039Y0070688D01*
X0129928Y0070617D01*
X0129816Y0070549D01*
X0129701Y0070485D01*
X0129584Y0070425D01*
X0129465Y0070368D01*
X0129345Y0070315D01*
X0129224Y0070265D01*
X0129100Y0070219D01*
X0128976Y0070177D01*
X0128850Y0070139D01*
X0128723Y0070104D01*
X0128595Y0070073D01*
X0128467Y0070047D01*
X0128337Y0070024D01*
X0128207Y0070005D01*
X0128077Y0069990D01*
X0127946Y0069979D01*
X0127814Y0069972D01*
X0127683Y0069969D01*
X0127551Y0069970D01*
X0127420Y0069975D01*
X0127289Y0069984D01*
X0127158Y0069997D01*
X0127028Y0070014D01*
X0126898Y0070035D01*
X0126769Y0070060D01*
X0126641Y0070088D01*
X0126513Y0070121D01*
X0126387Y0070157D01*
X0126262Y0070198D01*
X0126138Y0070242D01*
X0126015Y0070289D01*
X0125894Y0070341D01*
X0125775Y0070396D01*
X0125657Y0070455D01*
X0125542Y0070517D01*
X0125428Y0070583D01*
X0125316Y0070652D01*
X0125206Y0070724D01*
X0125099Y0070800D01*
X0124994Y0070879D01*
X0124891Y0070961D01*
X0124791Y0071046D01*
X0124694Y0071135D01*
X0124599Y0071226D01*
X0124507Y0071320D01*
X0124418Y0071417D01*
X0124332Y0071516D01*
X0124249Y0071618D01*
X0124169Y0071723D01*
X0124093Y0071829D01*
X0124020Y0071938D01*
X0123950Y0072050D01*
X0123883Y0072163D01*
X0123820Y0072278D01*
X0123760Y0072396D01*
X0123704Y0072514D01*
X0123652Y0072635D01*
X0123603Y0072757D01*
X0123558Y0072881D01*
X0123517Y0073005D01*
X0123480Y0073132D01*
X0123446Y0073259D01*
X0123416Y0073387D01*
X0123391Y0073516D01*
X0123369Y0073645D01*
X0123351Y0073775D01*
X0123337Y0073906D01*
X0123327Y0074037D01*
X0123321Y0074169D01*
X0123319Y0074300D01*
X0123319Y0121800D02*
X0123321Y0121931D01*
X0123327Y0122063D01*
X0123337Y0122194D01*
X0123351Y0122325D01*
X0123369Y0122455D01*
X0123391Y0122584D01*
X0123416Y0122713D01*
X0123446Y0122841D01*
X0123480Y0122968D01*
X0123517Y0123095D01*
X0123558Y0123219D01*
X0123603Y0123343D01*
X0123652Y0123465D01*
X0123704Y0123586D01*
X0123760Y0123704D01*
X0123820Y0123822D01*
X0123883Y0123937D01*
X0123950Y0124050D01*
X0124020Y0124162D01*
X0124093Y0124271D01*
X0124169Y0124377D01*
X0124249Y0124482D01*
X0124332Y0124584D01*
X0124418Y0124683D01*
X0124507Y0124780D01*
X0124599Y0124874D01*
X0124694Y0124965D01*
X0124791Y0125054D01*
X0124891Y0125139D01*
X0124994Y0125221D01*
X0125099Y0125300D01*
X0125206Y0125376D01*
X0125316Y0125448D01*
X0125428Y0125517D01*
X0125542Y0125583D01*
X0125657Y0125645D01*
X0125775Y0125704D01*
X0125894Y0125759D01*
X0126015Y0125811D01*
X0126138Y0125858D01*
X0126262Y0125902D01*
X0126387Y0125943D01*
X0126513Y0125979D01*
X0126641Y0126012D01*
X0126769Y0126040D01*
X0126898Y0126065D01*
X0127028Y0126086D01*
X0127158Y0126103D01*
X0127289Y0126116D01*
X0127420Y0126125D01*
X0127551Y0126130D01*
X0127683Y0126131D01*
X0127814Y0126128D01*
X0127946Y0126121D01*
X0128077Y0126110D01*
X0128207Y0126095D01*
X0128337Y0126076D01*
X0128467Y0126053D01*
X0128595Y0126027D01*
X0128723Y0125996D01*
X0128850Y0125961D01*
X0128976Y0125923D01*
X0129100Y0125881D01*
X0129224Y0125835D01*
X0129345Y0125785D01*
X0129465Y0125732D01*
X0129584Y0125675D01*
X0129701Y0125615D01*
X0129815Y0125551D01*
X0129928Y0125483D01*
X0130039Y0125412D01*
X0130148Y0125338D01*
X0130254Y0125261D01*
X0130358Y0125180D01*
X0130459Y0125097D01*
X0130558Y0125010D01*
X0130654Y0124920D01*
X0130747Y0124827D01*
X0130838Y0124732D01*
X0130925Y0124634D01*
X0131010Y0124533D01*
X0131091Y0124430D01*
X0131169Y0124324D01*
X0131244Y0124216D01*
X0131316Y0124106D01*
X0131384Y0123994D01*
X0131449Y0123880D01*
X0131510Y0123763D01*
X0131568Y0123645D01*
X0131622Y0123525D01*
X0131673Y0123404D01*
X0131720Y0123281D01*
X0131763Y0123157D01*
X0131802Y0123032D01*
X0131838Y0122905D01*
X0131869Y0122777D01*
X0131897Y0122649D01*
X0131921Y0122520D01*
X0131941Y0122390D01*
X0131957Y0122259D01*
X0131969Y0122128D01*
X0131977Y0121997D01*
X0131981Y0121866D01*
X0131981Y0121734D01*
X0131977Y0121603D01*
X0131969Y0121472D01*
X0131957Y0121341D01*
X0131941Y0121210D01*
X0131921Y0121080D01*
X0131897Y0120951D01*
X0131869Y0120823D01*
X0131838Y0120695D01*
X0131802Y0120568D01*
X0131763Y0120443D01*
X0131720Y0120319D01*
X0131673Y0120196D01*
X0131622Y0120075D01*
X0131568Y0119955D01*
X0131510Y0119837D01*
X0131449Y0119720D01*
X0131384Y0119606D01*
X0131316Y0119494D01*
X0131244Y0119384D01*
X0131169Y0119276D01*
X0131091Y0119170D01*
X0131010Y0119067D01*
X0130925Y0118966D01*
X0130838Y0118868D01*
X0130747Y0118773D01*
X0130654Y0118680D01*
X0130558Y0118590D01*
X0130459Y0118503D01*
X0130358Y0118420D01*
X0130254Y0118339D01*
X0130148Y0118262D01*
X0130039Y0118188D01*
X0129928Y0118117D01*
X0129816Y0118049D01*
X0129701Y0117985D01*
X0129584Y0117925D01*
X0129465Y0117868D01*
X0129345Y0117815D01*
X0129224Y0117765D01*
X0129100Y0117719D01*
X0128976Y0117677D01*
X0128850Y0117639D01*
X0128723Y0117604D01*
X0128595Y0117573D01*
X0128467Y0117547D01*
X0128337Y0117524D01*
X0128207Y0117505D01*
X0128077Y0117490D01*
X0127946Y0117479D01*
X0127814Y0117472D01*
X0127683Y0117469D01*
X0127551Y0117470D01*
X0127420Y0117475D01*
X0127289Y0117484D01*
X0127158Y0117497D01*
X0127028Y0117514D01*
X0126898Y0117535D01*
X0126769Y0117560D01*
X0126641Y0117588D01*
X0126513Y0117621D01*
X0126387Y0117657D01*
X0126262Y0117698D01*
X0126138Y0117742D01*
X0126015Y0117789D01*
X0125894Y0117841D01*
X0125775Y0117896D01*
X0125657Y0117955D01*
X0125542Y0118017D01*
X0125428Y0118083D01*
X0125316Y0118152D01*
X0125206Y0118224D01*
X0125099Y0118300D01*
X0124994Y0118379D01*
X0124891Y0118461D01*
X0124791Y0118546D01*
X0124694Y0118635D01*
X0124599Y0118726D01*
X0124507Y0118820D01*
X0124418Y0118917D01*
X0124332Y0119016D01*
X0124249Y0119118D01*
X0124169Y0119223D01*
X0124093Y0119329D01*
X0124020Y0119438D01*
X0123950Y0119550D01*
X0123883Y0119663D01*
X0123820Y0119778D01*
X0123760Y0119896D01*
X0123704Y0120014D01*
X0123652Y0120135D01*
X0123603Y0120257D01*
X0123558Y0120381D01*
X0123517Y0120505D01*
X0123480Y0120632D01*
X0123446Y0120759D01*
X0123416Y0120887D01*
X0123391Y0121016D01*
X0123369Y0121145D01*
X0123351Y0121275D01*
X0123337Y0121406D01*
X0123327Y0121537D01*
X0123321Y0121669D01*
X0123319Y0121800D01*
M02*
