G75*
%MOIN*%
%OFA0B0*%
%FSLAX25Y25*%
%IPPOS*%
%LPD*%
%AMOC8*
5,1,8,0,0,1.08239X$1,22.5*
%
%ADD10C,0.00000*%
D10*
X0001800Y0001800D02*
X0001800Y0421800D01*
X0274221Y0421800D01*
X0274221Y0001800D01*
X0001800Y0001800D01*
X0037469Y0026800D02*
X0037471Y0026931D01*
X0037477Y0027063D01*
X0037487Y0027194D01*
X0037501Y0027325D01*
X0037519Y0027455D01*
X0037541Y0027584D01*
X0037566Y0027713D01*
X0037596Y0027841D01*
X0037630Y0027968D01*
X0037667Y0028095D01*
X0037708Y0028219D01*
X0037753Y0028343D01*
X0037802Y0028465D01*
X0037854Y0028586D01*
X0037910Y0028704D01*
X0037970Y0028822D01*
X0038033Y0028937D01*
X0038100Y0029050D01*
X0038170Y0029162D01*
X0038243Y0029271D01*
X0038319Y0029377D01*
X0038399Y0029482D01*
X0038482Y0029584D01*
X0038568Y0029683D01*
X0038657Y0029780D01*
X0038749Y0029874D01*
X0038844Y0029965D01*
X0038941Y0030054D01*
X0039041Y0030139D01*
X0039144Y0030221D01*
X0039249Y0030300D01*
X0039356Y0030376D01*
X0039466Y0030448D01*
X0039578Y0030517D01*
X0039692Y0030583D01*
X0039807Y0030645D01*
X0039925Y0030704D01*
X0040044Y0030759D01*
X0040165Y0030811D01*
X0040288Y0030858D01*
X0040412Y0030902D01*
X0040537Y0030943D01*
X0040663Y0030979D01*
X0040791Y0031012D01*
X0040919Y0031040D01*
X0041048Y0031065D01*
X0041178Y0031086D01*
X0041308Y0031103D01*
X0041439Y0031116D01*
X0041570Y0031125D01*
X0041701Y0031130D01*
X0041833Y0031131D01*
X0041964Y0031128D01*
X0042096Y0031121D01*
X0042227Y0031110D01*
X0042357Y0031095D01*
X0042487Y0031076D01*
X0042617Y0031053D01*
X0042745Y0031027D01*
X0042873Y0030996D01*
X0043000Y0030961D01*
X0043126Y0030923D01*
X0043250Y0030881D01*
X0043374Y0030835D01*
X0043495Y0030785D01*
X0043615Y0030732D01*
X0043734Y0030675D01*
X0043851Y0030615D01*
X0043965Y0030551D01*
X0044078Y0030483D01*
X0044189Y0030412D01*
X0044298Y0030338D01*
X0044404Y0030261D01*
X0044508Y0030180D01*
X0044609Y0030097D01*
X0044708Y0030010D01*
X0044804Y0029920D01*
X0044897Y0029827D01*
X0044988Y0029732D01*
X0045075Y0029634D01*
X0045160Y0029533D01*
X0045241Y0029430D01*
X0045319Y0029324D01*
X0045394Y0029216D01*
X0045466Y0029106D01*
X0045534Y0028994D01*
X0045599Y0028880D01*
X0045660Y0028763D01*
X0045718Y0028645D01*
X0045772Y0028525D01*
X0045823Y0028404D01*
X0045870Y0028281D01*
X0045913Y0028157D01*
X0045952Y0028032D01*
X0045988Y0027905D01*
X0046019Y0027777D01*
X0046047Y0027649D01*
X0046071Y0027520D01*
X0046091Y0027390D01*
X0046107Y0027259D01*
X0046119Y0027128D01*
X0046127Y0026997D01*
X0046131Y0026866D01*
X0046131Y0026734D01*
X0046127Y0026603D01*
X0046119Y0026472D01*
X0046107Y0026341D01*
X0046091Y0026210D01*
X0046071Y0026080D01*
X0046047Y0025951D01*
X0046019Y0025823D01*
X0045988Y0025695D01*
X0045952Y0025568D01*
X0045913Y0025443D01*
X0045870Y0025319D01*
X0045823Y0025196D01*
X0045772Y0025075D01*
X0045718Y0024955D01*
X0045660Y0024837D01*
X0045599Y0024720D01*
X0045534Y0024606D01*
X0045466Y0024494D01*
X0045394Y0024384D01*
X0045319Y0024276D01*
X0045241Y0024170D01*
X0045160Y0024067D01*
X0045075Y0023966D01*
X0044988Y0023868D01*
X0044897Y0023773D01*
X0044804Y0023680D01*
X0044708Y0023590D01*
X0044609Y0023503D01*
X0044508Y0023420D01*
X0044404Y0023339D01*
X0044298Y0023262D01*
X0044189Y0023188D01*
X0044078Y0023117D01*
X0043966Y0023049D01*
X0043851Y0022985D01*
X0043734Y0022925D01*
X0043615Y0022868D01*
X0043495Y0022815D01*
X0043374Y0022765D01*
X0043250Y0022719D01*
X0043126Y0022677D01*
X0043000Y0022639D01*
X0042873Y0022604D01*
X0042745Y0022573D01*
X0042617Y0022547D01*
X0042487Y0022524D01*
X0042357Y0022505D01*
X0042227Y0022490D01*
X0042096Y0022479D01*
X0041964Y0022472D01*
X0041833Y0022469D01*
X0041701Y0022470D01*
X0041570Y0022475D01*
X0041439Y0022484D01*
X0041308Y0022497D01*
X0041178Y0022514D01*
X0041048Y0022535D01*
X0040919Y0022560D01*
X0040791Y0022588D01*
X0040663Y0022621D01*
X0040537Y0022657D01*
X0040412Y0022698D01*
X0040288Y0022742D01*
X0040165Y0022789D01*
X0040044Y0022841D01*
X0039925Y0022896D01*
X0039807Y0022955D01*
X0039692Y0023017D01*
X0039578Y0023083D01*
X0039466Y0023152D01*
X0039356Y0023224D01*
X0039249Y0023300D01*
X0039144Y0023379D01*
X0039041Y0023461D01*
X0038941Y0023546D01*
X0038844Y0023635D01*
X0038749Y0023726D01*
X0038657Y0023820D01*
X0038568Y0023917D01*
X0038482Y0024016D01*
X0038399Y0024118D01*
X0038319Y0024223D01*
X0038243Y0024329D01*
X0038170Y0024438D01*
X0038100Y0024550D01*
X0038033Y0024663D01*
X0037970Y0024778D01*
X0037910Y0024896D01*
X0037854Y0025014D01*
X0037802Y0025135D01*
X0037753Y0025257D01*
X0037708Y0025381D01*
X0037667Y0025505D01*
X0037630Y0025632D01*
X0037596Y0025759D01*
X0037566Y0025887D01*
X0037541Y0026016D01*
X0037519Y0026145D01*
X0037501Y0026275D01*
X0037487Y0026406D01*
X0037477Y0026537D01*
X0037471Y0026669D01*
X0037469Y0026800D01*
X0037469Y0084300D02*
X0037471Y0084431D01*
X0037477Y0084563D01*
X0037487Y0084694D01*
X0037501Y0084825D01*
X0037519Y0084955D01*
X0037541Y0085084D01*
X0037566Y0085213D01*
X0037596Y0085341D01*
X0037630Y0085468D01*
X0037667Y0085595D01*
X0037708Y0085719D01*
X0037753Y0085843D01*
X0037802Y0085965D01*
X0037854Y0086086D01*
X0037910Y0086204D01*
X0037970Y0086322D01*
X0038033Y0086437D01*
X0038100Y0086550D01*
X0038170Y0086662D01*
X0038243Y0086771D01*
X0038319Y0086877D01*
X0038399Y0086982D01*
X0038482Y0087084D01*
X0038568Y0087183D01*
X0038657Y0087280D01*
X0038749Y0087374D01*
X0038844Y0087465D01*
X0038941Y0087554D01*
X0039041Y0087639D01*
X0039144Y0087721D01*
X0039249Y0087800D01*
X0039356Y0087876D01*
X0039466Y0087948D01*
X0039578Y0088017D01*
X0039692Y0088083D01*
X0039807Y0088145D01*
X0039925Y0088204D01*
X0040044Y0088259D01*
X0040165Y0088311D01*
X0040288Y0088358D01*
X0040412Y0088402D01*
X0040537Y0088443D01*
X0040663Y0088479D01*
X0040791Y0088512D01*
X0040919Y0088540D01*
X0041048Y0088565D01*
X0041178Y0088586D01*
X0041308Y0088603D01*
X0041439Y0088616D01*
X0041570Y0088625D01*
X0041701Y0088630D01*
X0041833Y0088631D01*
X0041964Y0088628D01*
X0042096Y0088621D01*
X0042227Y0088610D01*
X0042357Y0088595D01*
X0042487Y0088576D01*
X0042617Y0088553D01*
X0042745Y0088527D01*
X0042873Y0088496D01*
X0043000Y0088461D01*
X0043126Y0088423D01*
X0043250Y0088381D01*
X0043374Y0088335D01*
X0043495Y0088285D01*
X0043615Y0088232D01*
X0043734Y0088175D01*
X0043851Y0088115D01*
X0043965Y0088051D01*
X0044078Y0087983D01*
X0044189Y0087912D01*
X0044298Y0087838D01*
X0044404Y0087761D01*
X0044508Y0087680D01*
X0044609Y0087597D01*
X0044708Y0087510D01*
X0044804Y0087420D01*
X0044897Y0087327D01*
X0044988Y0087232D01*
X0045075Y0087134D01*
X0045160Y0087033D01*
X0045241Y0086930D01*
X0045319Y0086824D01*
X0045394Y0086716D01*
X0045466Y0086606D01*
X0045534Y0086494D01*
X0045599Y0086380D01*
X0045660Y0086263D01*
X0045718Y0086145D01*
X0045772Y0086025D01*
X0045823Y0085904D01*
X0045870Y0085781D01*
X0045913Y0085657D01*
X0045952Y0085532D01*
X0045988Y0085405D01*
X0046019Y0085277D01*
X0046047Y0085149D01*
X0046071Y0085020D01*
X0046091Y0084890D01*
X0046107Y0084759D01*
X0046119Y0084628D01*
X0046127Y0084497D01*
X0046131Y0084366D01*
X0046131Y0084234D01*
X0046127Y0084103D01*
X0046119Y0083972D01*
X0046107Y0083841D01*
X0046091Y0083710D01*
X0046071Y0083580D01*
X0046047Y0083451D01*
X0046019Y0083323D01*
X0045988Y0083195D01*
X0045952Y0083068D01*
X0045913Y0082943D01*
X0045870Y0082819D01*
X0045823Y0082696D01*
X0045772Y0082575D01*
X0045718Y0082455D01*
X0045660Y0082337D01*
X0045599Y0082220D01*
X0045534Y0082106D01*
X0045466Y0081994D01*
X0045394Y0081884D01*
X0045319Y0081776D01*
X0045241Y0081670D01*
X0045160Y0081567D01*
X0045075Y0081466D01*
X0044988Y0081368D01*
X0044897Y0081273D01*
X0044804Y0081180D01*
X0044708Y0081090D01*
X0044609Y0081003D01*
X0044508Y0080920D01*
X0044404Y0080839D01*
X0044298Y0080762D01*
X0044189Y0080688D01*
X0044078Y0080617D01*
X0043966Y0080549D01*
X0043851Y0080485D01*
X0043734Y0080425D01*
X0043615Y0080368D01*
X0043495Y0080315D01*
X0043374Y0080265D01*
X0043250Y0080219D01*
X0043126Y0080177D01*
X0043000Y0080139D01*
X0042873Y0080104D01*
X0042745Y0080073D01*
X0042617Y0080047D01*
X0042487Y0080024D01*
X0042357Y0080005D01*
X0042227Y0079990D01*
X0042096Y0079979D01*
X0041964Y0079972D01*
X0041833Y0079969D01*
X0041701Y0079970D01*
X0041570Y0079975D01*
X0041439Y0079984D01*
X0041308Y0079997D01*
X0041178Y0080014D01*
X0041048Y0080035D01*
X0040919Y0080060D01*
X0040791Y0080088D01*
X0040663Y0080121D01*
X0040537Y0080157D01*
X0040412Y0080198D01*
X0040288Y0080242D01*
X0040165Y0080289D01*
X0040044Y0080341D01*
X0039925Y0080396D01*
X0039807Y0080455D01*
X0039692Y0080517D01*
X0039578Y0080583D01*
X0039466Y0080652D01*
X0039356Y0080724D01*
X0039249Y0080800D01*
X0039144Y0080879D01*
X0039041Y0080961D01*
X0038941Y0081046D01*
X0038844Y0081135D01*
X0038749Y0081226D01*
X0038657Y0081320D01*
X0038568Y0081417D01*
X0038482Y0081516D01*
X0038399Y0081618D01*
X0038319Y0081723D01*
X0038243Y0081829D01*
X0038170Y0081938D01*
X0038100Y0082050D01*
X0038033Y0082163D01*
X0037970Y0082278D01*
X0037910Y0082396D01*
X0037854Y0082514D01*
X0037802Y0082635D01*
X0037753Y0082757D01*
X0037708Y0082881D01*
X0037667Y0083005D01*
X0037630Y0083132D01*
X0037596Y0083259D01*
X0037566Y0083387D01*
X0037541Y0083516D01*
X0037519Y0083645D01*
X0037501Y0083775D01*
X0037487Y0083906D01*
X0037477Y0084037D01*
X0037471Y0084169D01*
X0037469Y0084300D01*
X0037469Y0156800D02*
X0037471Y0156931D01*
X0037477Y0157063D01*
X0037487Y0157194D01*
X0037501Y0157325D01*
X0037519Y0157455D01*
X0037541Y0157584D01*
X0037566Y0157713D01*
X0037596Y0157841D01*
X0037630Y0157968D01*
X0037667Y0158095D01*
X0037708Y0158219D01*
X0037753Y0158343D01*
X0037802Y0158465D01*
X0037854Y0158586D01*
X0037910Y0158704D01*
X0037970Y0158822D01*
X0038033Y0158937D01*
X0038100Y0159050D01*
X0038170Y0159162D01*
X0038243Y0159271D01*
X0038319Y0159377D01*
X0038399Y0159482D01*
X0038482Y0159584D01*
X0038568Y0159683D01*
X0038657Y0159780D01*
X0038749Y0159874D01*
X0038844Y0159965D01*
X0038941Y0160054D01*
X0039041Y0160139D01*
X0039144Y0160221D01*
X0039249Y0160300D01*
X0039356Y0160376D01*
X0039466Y0160448D01*
X0039578Y0160517D01*
X0039692Y0160583D01*
X0039807Y0160645D01*
X0039925Y0160704D01*
X0040044Y0160759D01*
X0040165Y0160811D01*
X0040288Y0160858D01*
X0040412Y0160902D01*
X0040537Y0160943D01*
X0040663Y0160979D01*
X0040791Y0161012D01*
X0040919Y0161040D01*
X0041048Y0161065D01*
X0041178Y0161086D01*
X0041308Y0161103D01*
X0041439Y0161116D01*
X0041570Y0161125D01*
X0041701Y0161130D01*
X0041833Y0161131D01*
X0041964Y0161128D01*
X0042096Y0161121D01*
X0042227Y0161110D01*
X0042357Y0161095D01*
X0042487Y0161076D01*
X0042617Y0161053D01*
X0042745Y0161027D01*
X0042873Y0160996D01*
X0043000Y0160961D01*
X0043126Y0160923D01*
X0043250Y0160881D01*
X0043374Y0160835D01*
X0043495Y0160785D01*
X0043615Y0160732D01*
X0043734Y0160675D01*
X0043851Y0160615D01*
X0043965Y0160551D01*
X0044078Y0160483D01*
X0044189Y0160412D01*
X0044298Y0160338D01*
X0044404Y0160261D01*
X0044508Y0160180D01*
X0044609Y0160097D01*
X0044708Y0160010D01*
X0044804Y0159920D01*
X0044897Y0159827D01*
X0044988Y0159732D01*
X0045075Y0159634D01*
X0045160Y0159533D01*
X0045241Y0159430D01*
X0045319Y0159324D01*
X0045394Y0159216D01*
X0045466Y0159106D01*
X0045534Y0158994D01*
X0045599Y0158880D01*
X0045660Y0158763D01*
X0045718Y0158645D01*
X0045772Y0158525D01*
X0045823Y0158404D01*
X0045870Y0158281D01*
X0045913Y0158157D01*
X0045952Y0158032D01*
X0045988Y0157905D01*
X0046019Y0157777D01*
X0046047Y0157649D01*
X0046071Y0157520D01*
X0046091Y0157390D01*
X0046107Y0157259D01*
X0046119Y0157128D01*
X0046127Y0156997D01*
X0046131Y0156866D01*
X0046131Y0156734D01*
X0046127Y0156603D01*
X0046119Y0156472D01*
X0046107Y0156341D01*
X0046091Y0156210D01*
X0046071Y0156080D01*
X0046047Y0155951D01*
X0046019Y0155823D01*
X0045988Y0155695D01*
X0045952Y0155568D01*
X0045913Y0155443D01*
X0045870Y0155319D01*
X0045823Y0155196D01*
X0045772Y0155075D01*
X0045718Y0154955D01*
X0045660Y0154837D01*
X0045599Y0154720D01*
X0045534Y0154606D01*
X0045466Y0154494D01*
X0045394Y0154384D01*
X0045319Y0154276D01*
X0045241Y0154170D01*
X0045160Y0154067D01*
X0045075Y0153966D01*
X0044988Y0153868D01*
X0044897Y0153773D01*
X0044804Y0153680D01*
X0044708Y0153590D01*
X0044609Y0153503D01*
X0044508Y0153420D01*
X0044404Y0153339D01*
X0044298Y0153262D01*
X0044189Y0153188D01*
X0044078Y0153117D01*
X0043966Y0153049D01*
X0043851Y0152985D01*
X0043734Y0152925D01*
X0043615Y0152868D01*
X0043495Y0152815D01*
X0043374Y0152765D01*
X0043250Y0152719D01*
X0043126Y0152677D01*
X0043000Y0152639D01*
X0042873Y0152604D01*
X0042745Y0152573D01*
X0042617Y0152547D01*
X0042487Y0152524D01*
X0042357Y0152505D01*
X0042227Y0152490D01*
X0042096Y0152479D01*
X0041964Y0152472D01*
X0041833Y0152469D01*
X0041701Y0152470D01*
X0041570Y0152475D01*
X0041439Y0152484D01*
X0041308Y0152497D01*
X0041178Y0152514D01*
X0041048Y0152535D01*
X0040919Y0152560D01*
X0040791Y0152588D01*
X0040663Y0152621D01*
X0040537Y0152657D01*
X0040412Y0152698D01*
X0040288Y0152742D01*
X0040165Y0152789D01*
X0040044Y0152841D01*
X0039925Y0152896D01*
X0039807Y0152955D01*
X0039692Y0153017D01*
X0039578Y0153083D01*
X0039466Y0153152D01*
X0039356Y0153224D01*
X0039249Y0153300D01*
X0039144Y0153379D01*
X0039041Y0153461D01*
X0038941Y0153546D01*
X0038844Y0153635D01*
X0038749Y0153726D01*
X0038657Y0153820D01*
X0038568Y0153917D01*
X0038482Y0154016D01*
X0038399Y0154118D01*
X0038319Y0154223D01*
X0038243Y0154329D01*
X0038170Y0154438D01*
X0038100Y0154550D01*
X0038033Y0154663D01*
X0037970Y0154778D01*
X0037910Y0154896D01*
X0037854Y0155014D01*
X0037802Y0155135D01*
X0037753Y0155257D01*
X0037708Y0155381D01*
X0037667Y0155505D01*
X0037630Y0155632D01*
X0037596Y0155759D01*
X0037566Y0155887D01*
X0037541Y0156016D01*
X0037519Y0156145D01*
X0037501Y0156275D01*
X0037487Y0156406D01*
X0037477Y0156537D01*
X0037471Y0156669D01*
X0037469Y0156800D01*
X0084969Y0084300D02*
X0084971Y0084431D01*
X0084977Y0084563D01*
X0084987Y0084694D01*
X0085001Y0084825D01*
X0085019Y0084955D01*
X0085041Y0085084D01*
X0085066Y0085213D01*
X0085096Y0085341D01*
X0085130Y0085468D01*
X0085167Y0085595D01*
X0085208Y0085719D01*
X0085253Y0085843D01*
X0085302Y0085965D01*
X0085354Y0086086D01*
X0085410Y0086204D01*
X0085470Y0086322D01*
X0085533Y0086437D01*
X0085600Y0086550D01*
X0085670Y0086662D01*
X0085743Y0086771D01*
X0085819Y0086877D01*
X0085899Y0086982D01*
X0085982Y0087084D01*
X0086068Y0087183D01*
X0086157Y0087280D01*
X0086249Y0087374D01*
X0086344Y0087465D01*
X0086441Y0087554D01*
X0086541Y0087639D01*
X0086644Y0087721D01*
X0086749Y0087800D01*
X0086856Y0087876D01*
X0086966Y0087948D01*
X0087078Y0088017D01*
X0087192Y0088083D01*
X0087307Y0088145D01*
X0087425Y0088204D01*
X0087544Y0088259D01*
X0087665Y0088311D01*
X0087788Y0088358D01*
X0087912Y0088402D01*
X0088037Y0088443D01*
X0088163Y0088479D01*
X0088291Y0088512D01*
X0088419Y0088540D01*
X0088548Y0088565D01*
X0088678Y0088586D01*
X0088808Y0088603D01*
X0088939Y0088616D01*
X0089070Y0088625D01*
X0089201Y0088630D01*
X0089333Y0088631D01*
X0089464Y0088628D01*
X0089596Y0088621D01*
X0089727Y0088610D01*
X0089857Y0088595D01*
X0089987Y0088576D01*
X0090117Y0088553D01*
X0090245Y0088527D01*
X0090373Y0088496D01*
X0090500Y0088461D01*
X0090626Y0088423D01*
X0090750Y0088381D01*
X0090874Y0088335D01*
X0090995Y0088285D01*
X0091115Y0088232D01*
X0091234Y0088175D01*
X0091351Y0088115D01*
X0091465Y0088051D01*
X0091578Y0087983D01*
X0091689Y0087912D01*
X0091798Y0087838D01*
X0091904Y0087761D01*
X0092008Y0087680D01*
X0092109Y0087597D01*
X0092208Y0087510D01*
X0092304Y0087420D01*
X0092397Y0087327D01*
X0092488Y0087232D01*
X0092575Y0087134D01*
X0092660Y0087033D01*
X0092741Y0086930D01*
X0092819Y0086824D01*
X0092894Y0086716D01*
X0092966Y0086606D01*
X0093034Y0086494D01*
X0093099Y0086380D01*
X0093160Y0086263D01*
X0093218Y0086145D01*
X0093272Y0086025D01*
X0093323Y0085904D01*
X0093370Y0085781D01*
X0093413Y0085657D01*
X0093452Y0085532D01*
X0093488Y0085405D01*
X0093519Y0085277D01*
X0093547Y0085149D01*
X0093571Y0085020D01*
X0093591Y0084890D01*
X0093607Y0084759D01*
X0093619Y0084628D01*
X0093627Y0084497D01*
X0093631Y0084366D01*
X0093631Y0084234D01*
X0093627Y0084103D01*
X0093619Y0083972D01*
X0093607Y0083841D01*
X0093591Y0083710D01*
X0093571Y0083580D01*
X0093547Y0083451D01*
X0093519Y0083323D01*
X0093488Y0083195D01*
X0093452Y0083068D01*
X0093413Y0082943D01*
X0093370Y0082819D01*
X0093323Y0082696D01*
X0093272Y0082575D01*
X0093218Y0082455D01*
X0093160Y0082337D01*
X0093099Y0082220D01*
X0093034Y0082106D01*
X0092966Y0081994D01*
X0092894Y0081884D01*
X0092819Y0081776D01*
X0092741Y0081670D01*
X0092660Y0081567D01*
X0092575Y0081466D01*
X0092488Y0081368D01*
X0092397Y0081273D01*
X0092304Y0081180D01*
X0092208Y0081090D01*
X0092109Y0081003D01*
X0092008Y0080920D01*
X0091904Y0080839D01*
X0091798Y0080762D01*
X0091689Y0080688D01*
X0091578Y0080617D01*
X0091466Y0080549D01*
X0091351Y0080485D01*
X0091234Y0080425D01*
X0091115Y0080368D01*
X0090995Y0080315D01*
X0090874Y0080265D01*
X0090750Y0080219D01*
X0090626Y0080177D01*
X0090500Y0080139D01*
X0090373Y0080104D01*
X0090245Y0080073D01*
X0090117Y0080047D01*
X0089987Y0080024D01*
X0089857Y0080005D01*
X0089727Y0079990D01*
X0089596Y0079979D01*
X0089464Y0079972D01*
X0089333Y0079969D01*
X0089201Y0079970D01*
X0089070Y0079975D01*
X0088939Y0079984D01*
X0088808Y0079997D01*
X0088678Y0080014D01*
X0088548Y0080035D01*
X0088419Y0080060D01*
X0088291Y0080088D01*
X0088163Y0080121D01*
X0088037Y0080157D01*
X0087912Y0080198D01*
X0087788Y0080242D01*
X0087665Y0080289D01*
X0087544Y0080341D01*
X0087425Y0080396D01*
X0087307Y0080455D01*
X0087192Y0080517D01*
X0087078Y0080583D01*
X0086966Y0080652D01*
X0086856Y0080724D01*
X0086749Y0080800D01*
X0086644Y0080879D01*
X0086541Y0080961D01*
X0086441Y0081046D01*
X0086344Y0081135D01*
X0086249Y0081226D01*
X0086157Y0081320D01*
X0086068Y0081417D01*
X0085982Y0081516D01*
X0085899Y0081618D01*
X0085819Y0081723D01*
X0085743Y0081829D01*
X0085670Y0081938D01*
X0085600Y0082050D01*
X0085533Y0082163D01*
X0085470Y0082278D01*
X0085410Y0082396D01*
X0085354Y0082514D01*
X0085302Y0082635D01*
X0085253Y0082757D01*
X0085208Y0082881D01*
X0085167Y0083005D01*
X0085130Y0083132D01*
X0085096Y0083259D01*
X0085066Y0083387D01*
X0085041Y0083516D01*
X0085019Y0083645D01*
X0085001Y0083775D01*
X0084987Y0083906D01*
X0084977Y0084037D01*
X0084971Y0084169D01*
X0084969Y0084300D01*
X0084969Y0026800D02*
X0084971Y0026931D01*
X0084977Y0027063D01*
X0084987Y0027194D01*
X0085001Y0027325D01*
X0085019Y0027455D01*
X0085041Y0027584D01*
X0085066Y0027713D01*
X0085096Y0027841D01*
X0085130Y0027968D01*
X0085167Y0028095D01*
X0085208Y0028219D01*
X0085253Y0028343D01*
X0085302Y0028465D01*
X0085354Y0028586D01*
X0085410Y0028704D01*
X0085470Y0028822D01*
X0085533Y0028937D01*
X0085600Y0029050D01*
X0085670Y0029162D01*
X0085743Y0029271D01*
X0085819Y0029377D01*
X0085899Y0029482D01*
X0085982Y0029584D01*
X0086068Y0029683D01*
X0086157Y0029780D01*
X0086249Y0029874D01*
X0086344Y0029965D01*
X0086441Y0030054D01*
X0086541Y0030139D01*
X0086644Y0030221D01*
X0086749Y0030300D01*
X0086856Y0030376D01*
X0086966Y0030448D01*
X0087078Y0030517D01*
X0087192Y0030583D01*
X0087307Y0030645D01*
X0087425Y0030704D01*
X0087544Y0030759D01*
X0087665Y0030811D01*
X0087788Y0030858D01*
X0087912Y0030902D01*
X0088037Y0030943D01*
X0088163Y0030979D01*
X0088291Y0031012D01*
X0088419Y0031040D01*
X0088548Y0031065D01*
X0088678Y0031086D01*
X0088808Y0031103D01*
X0088939Y0031116D01*
X0089070Y0031125D01*
X0089201Y0031130D01*
X0089333Y0031131D01*
X0089464Y0031128D01*
X0089596Y0031121D01*
X0089727Y0031110D01*
X0089857Y0031095D01*
X0089987Y0031076D01*
X0090117Y0031053D01*
X0090245Y0031027D01*
X0090373Y0030996D01*
X0090500Y0030961D01*
X0090626Y0030923D01*
X0090750Y0030881D01*
X0090874Y0030835D01*
X0090995Y0030785D01*
X0091115Y0030732D01*
X0091234Y0030675D01*
X0091351Y0030615D01*
X0091465Y0030551D01*
X0091578Y0030483D01*
X0091689Y0030412D01*
X0091798Y0030338D01*
X0091904Y0030261D01*
X0092008Y0030180D01*
X0092109Y0030097D01*
X0092208Y0030010D01*
X0092304Y0029920D01*
X0092397Y0029827D01*
X0092488Y0029732D01*
X0092575Y0029634D01*
X0092660Y0029533D01*
X0092741Y0029430D01*
X0092819Y0029324D01*
X0092894Y0029216D01*
X0092966Y0029106D01*
X0093034Y0028994D01*
X0093099Y0028880D01*
X0093160Y0028763D01*
X0093218Y0028645D01*
X0093272Y0028525D01*
X0093323Y0028404D01*
X0093370Y0028281D01*
X0093413Y0028157D01*
X0093452Y0028032D01*
X0093488Y0027905D01*
X0093519Y0027777D01*
X0093547Y0027649D01*
X0093571Y0027520D01*
X0093591Y0027390D01*
X0093607Y0027259D01*
X0093619Y0027128D01*
X0093627Y0026997D01*
X0093631Y0026866D01*
X0093631Y0026734D01*
X0093627Y0026603D01*
X0093619Y0026472D01*
X0093607Y0026341D01*
X0093591Y0026210D01*
X0093571Y0026080D01*
X0093547Y0025951D01*
X0093519Y0025823D01*
X0093488Y0025695D01*
X0093452Y0025568D01*
X0093413Y0025443D01*
X0093370Y0025319D01*
X0093323Y0025196D01*
X0093272Y0025075D01*
X0093218Y0024955D01*
X0093160Y0024837D01*
X0093099Y0024720D01*
X0093034Y0024606D01*
X0092966Y0024494D01*
X0092894Y0024384D01*
X0092819Y0024276D01*
X0092741Y0024170D01*
X0092660Y0024067D01*
X0092575Y0023966D01*
X0092488Y0023868D01*
X0092397Y0023773D01*
X0092304Y0023680D01*
X0092208Y0023590D01*
X0092109Y0023503D01*
X0092008Y0023420D01*
X0091904Y0023339D01*
X0091798Y0023262D01*
X0091689Y0023188D01*
X0091578Y0023117D01*
X0091466Y0023049D01*
X0091351Y0022985D01*
X0091234Y0022925D01*
X0091115Y0022868D01*
X0090995Y0022815D01*
X0090874Y0022765D01*
X0090750Y0022719D01*
X0090626Y0022677D01*
X0090500Y0022639D01*
X0090373Y0022604D01*
X0090245Y0022573D01*
X0090117Y0022547D01*
X0089987Y0022524D01*
X0089857Y0022505D01*
X0089727Y0022490D01*
X0089596Y0022479D01*
X0089464Y0022472D01*
X0089333Y0022469D01*
X0089201Y0022470D01*
X0089070Y0022475D01*
X0088939Y0022484D01*
X0088808Y0022497D01*
X0088678Y0022514D01*
X0088548Y0022535D01*
X0088419Y0022560D01*
X0088291Y0022588D01*
X0088163Y0022621D01*
X0088037Y0022657D01*
X0087912Y0022698D01*
X0087788Y0022742D01*
X0087665Y0022789D01*
X0087544Y0022841D01*
X0087425Y0022896D01*
X0087307Y0022955D01*
X0087192Y0023017D01*
X0087078Y0023083D01*
X0086966Y0023152D01*
X0086856Y0023224D01*
X0086749Y0023300D01*
X0086644Y0023379D01*
X0086541Y0023461D01*
X0086441Y0023546D01*
X0086344Y0023635D01*
X0086249Y0023726D01*
X0086157Y0023820D01*
X0086068Y0023917D01*
X0085982Y0024016D01*
X0085899Y0024118D01*
X0085819Y0024223D01*
X0085743Y0024329D01*
X0085670Y0024438D01*
X0085600Y0024550D01*
X0085533Y0024663D01*
X0085470Y0024778D01*
X0085410Y0024896D01*
X0085354Y0025014D01*
X0085302Y0025135D01*
X0085253Y0025257D01*
X0085208Y0025381D01*
X0085167Y0025505D01*
X0085130Y0025632D01*
X0085096Y0025759D01*
X0085066Y0025887D01*
X0085041Y0026016D01*
X0085019Y0026145D01*
X0085001Y0026275D01*
X0084987Y0026406D01*
X0084977Y0026537D01*
X0084971Y0026669D01*
X0084969Y0026800D01*
X0132469Y0026800D02*
X0132471Y0026931D01*
X0132477Y0027063D01*
X0132487Y0027194D01*
X0132501Y0027325D01*
X0132519Y0027455D01*
X0132541Y0027584D01*
X0132566Y0027713D01*
X0132596Y0027841D01*
X0132630Y0027968D01*
X0132667Y0028095D01*
X0132708Y0028219D01*
X0132753Y0028343D01*
X0132802Y0028465D01*
X0132854Y0028586D01*
X0132910Y0028704D01*
X0132970Y0028822D01*
X0133033Y0028937D01*
X0133100Y0029050D01*
X0133170Y0029162D01*
X0133243Y0029271D01*
X0133319Y0029377D01*
X0133399Y0029482D01*
X0133482Y0029584D01*
X0133568Y0029683D01*
X0133657Y0029780D01*
X0133749Y0029874D01*
X0133844Y0029965D01*
X0133941Y0030054D01*
X0134041Y0030139D01*
X0134144Y0030221D01*
X0134249Y0030300D01*
X0134356Y0030376D01*
X0134466Y0030448D01*
X0134578Y0030517D01*
X0134692Y0030583D01*
X0134807Y0030645D01*
X0134925Y0030704D01*
X0135044Y0030759D01*
X0135165Y0030811D01*
X0135288Y0030858D01*
X0135412Y0030902D01*
X0135537Y0030943D01*
X0135663Y0030979D01*
X0135791Y0031012D01*
X0135919Y0031040D01*
X0136048Y0031065D01*
X0136178Y0031086D01*
X0136308Y0031103D01*
X0136439Y0031116D01*
X0136570Y0031125D01*
X0136701Y0031130D01*
X0136833Y0031131D01*
X0136964Y0031128D01*
X0137096Y0031121D01*
X0137227Y0031110D01*
X0137357Y0031095D01*
X0137487Y0031076D01*
X0137617Y0031053D01*
X0137745Y0031027D01*
X0137873Y0030996D01*
X0138000Y0030961D01*
X0138126Y0030923D01*
X0138250Y0030881D01*
X0138374Y0030835D01*
X0138495Y0030785D01*
X0138615Y0030732D01*
X0138734Y0030675D01*
X0138851Y0030615D01*
X0138965Y0030551D01*
X0139078Y0030483D01*
X0139189Y0030412D01*
X0139298Y0030338D01*
X0139404Y0030261D01*
X0139508Y0030180D01*
X0139609Y0030097D01*
X0139708Y0030010D01*
X0139804Y0029920D01*
X0139897Y0029827D01*
X0139988Y0029732D01*
X0140075Y0029634D01*
X0140160Y0029533D01*
X0140241Y0029430D01*
X0140319Y0029324D01*
X0140394Y0029216D01*
X0140466Y0029106D01*
X0140534Y0028994D01*
X0140599Y0028880D01*
X0140660Y0028763D01*
X0140718Y0028645D01*
X0140772Y0028525D01*
X0140823Y0028404D01*
X0140870Y0028281D01*
X0140913Y0028157D01*
X0140952Y0028032D01*
X0140988Y0027905D01*
X0141019Y0027777D01*
X0141047Y0027649D01*
X0141071Y0027520D01*
X0141091Y0027390D01*
X0141107Y0027259D01*
X0141119Y0027128D01*
X0141127Y0026997D01*
X0141131Y0026866D01*
X0141131Y0026734D01*
X0141127Y0026603D01*
X0141119Y0026472D01*
X0141107Y0026341D01*
X0141091Y0026210D01*
X0141071Y0026080D01*
X0141047Y0025951D01*
X0141019Y0025823D01*
X0140988Y0025695D01*
X0140952Y0025568D01*
X0140913Y0025443D01*
X0140870Y0025319D01*
X0140823Y0025196D01*
X0140772Y0025075D01*
X0140718Y0024955D01*
X0140660Y0024837D01*
X0140599Y0024720D01*
X0140534Y0024606D01*
X0140466Y0024494D01*
X0140394Y0024384D01*
X0140319Y0024276D01*
X0140241Y0024170D01*
X0140160Y0024067D01*
X0140075Y0023966D01*
X0139988Y0023868D01*
X0139897Y0023773D01*
X0139804Y0023680D01*
X0139708Y0023590D01*
X0139609Y0023503D01*
X0139508Y0023420D01*
X0139404Y0023339D01*
X0139298Y0023262D01*
X0139189Y0023188D01*
X0139078Y0023117D01*
X0138966Y0023049D01*
X0138851Y0022985D01*
X0138734Y0022925D01*
X0138615Y0022868D01*
X0138495Y0022815D01*
X0138374Y0022765D01*
X0138250Y0022719D01*
X0138126Y0022677D01*
X0138000Y0022639D01*
X0137873Y0022604D01*
X0137745Y0022573D01*
X0137617Y0022547D01*
X0137487Y0022524D01*
X0137357Y0022505D01*
X0137227Y0022490D01*
X0137096Y0022479D01*
X0136964Y0022472D01*
X0136833Y0022469D01*
X0136701Y0022470D01*
X0136570Y0022475D01*
X0136439Y0022484D01*
X0136308Y0022497D01*
X0136178Y0022514D01*
X0136048Y0022535D01*
X0135919Y0022560D01*
X0135791Y0022588D01*
X0135663Y0022621D01*
X0135537Y0022657D01*
X0135412Y0022698D01*
X0135288Y0022742D01*
X0135165Y0022789D01*
X0135044Y0022841D01*
X0134925Y0022896D01*
X0134807Y0022955D01*
X0134692Y0023017D01*
X0134578Y0023083D01*
X0134466Y0023152D01*
X0134356Y0023224D01*
X0134249Y0023300D01*
X0134144Y0023379D01*
X0134041Y0023461D01*
X0133941Y0023546D01*
X0133844Y0023635D01*
X0133749Y0023726D01*
X0133657Y0023820D01*
X0133568Y0023917D01*
X0133482Y0024016D01*
X0133399Y0024118D01*
X0133319Y0024223D01*
X0133243Y0024329D01*
X0133170Y0024438D01*
X0133100Y0024550D01*
X0133033Y0024663D01*
X0132970Y0024778D01*
X0132910Y0024896D01*
X0132854Y0025014D01*
X0132802Y0025135D01*
X0132753Y0025257D01*
X0132708Y0025381D01*
X0132667Y0025505D01*
X0132630Y0025632D01*
X0132596Y0025759D01*
X0132566Y0025887D01*
X0132541Y0026016D01*
X0132519Y0026145D01*
X0132501Y0026275D01*
X0132487Y0026406D01*
X0132477Y0026537D01*
X0132471Y0026669D01*
X0132469Y0026800D01*
X0132469Y0084300D02*
X0132471Y0084431D01*
X0132477Y0084563D01*
X0132487Y0084694D01*
X0132501Y0084825D01*
X0132519Y0084955D01*
X0132541Y0085084D01*
X0132566Y0085213D01*
X0132596Y0085341D01*
X0132630Y0085468D01*
X0132667Y0085595D01*
X0132708Y0085719D01*
X0132753Y0085843D01*
X0132802Y0085965D01*
X0132854Y0086086D01*
X0132910Y0086204D01*
X0132970Y0086322D01*
X0133033Y0086437D01*
X0133100Y0086550D01*
X0133170Y0086662D01*
X0133243Y0086771D01*
X0133319Y0086877D01*
X0133399Y0086982D01*
X0133482Y0087084D01*
X0133568Y0087183D01*
X0133657Y0087280D01*
X0133749Y0087374D01*
X0133844Y0087465D01*
X0133941Y0087554D01*
X0134041Y0087639D01*
X0134144Y0087721D01*
X0134249Y0087800D01*
X0134356Y0087876D01*
X0134466Y0087948D01*
X0134578Y0088017D01*
X0134692Y0088083D01*
X0134807Y0088145D01*
X0134925Y0088204D01*
X0135044Y0088259D01*
X0135165Y0088311D01*
X0135288Y0088358D01*
X0135412Y0088402D01*
X0135537Y0088443D01*
X0135663Y0088479D01*
X0135791Y0088512D01*
X0135919Y0088540D01*
X0136048Y0088565D01*
X0136178Y0088586D01*
X0136308Y0088603D01*
X0136439Y0088616D01*
X0136570Y0088625D01*
X0136701Y0088630D01*
X0136833Y0088631D01*
X0136964Y0088628D01*
X0137096Y0088621D01*
X0137227Y0088610D01*
X0137357Y0088595D01*
X0137487Y0088576D01*
X0137617Y0088553D01*
X0137745Y0088527D01*
X0137873Y0088496D01*
X0138000Y0088461D01*
X0138126Y0088423D01*
X0138250Y0088381D01*
X0138374Y0088335D01*
X0138495Y0088285D01*
X0138615Y0088232D01*
X0138734Y0088175D01*
X0138851Y0088115D01*
X0138965Y0088051D01*
X0139078Y0087983D01*
X0139189Y0087912D01*
X0139298Y0087838D01*
X0139404Y0087761D01*
X0139508Y0087680D01*
X0139609Y0087597D01*
X0139708Y0087510D01*
X0139804Y0087420D01*
X0139897Y0087327D01*
X0139988Y0087232D01*
X0140075Y0087134D01*
X0140160Y0087033D01*
X0140241Y0086930D01*
X0140319Y0086824D01*
X0140394Y0086716D01*
X0140466Y0086606D01*
X0140534Y0086494D01*
X0140599Y0086380D01*
X0140660Y0086263D01*
X0140718Y0086145D01*
X0140772Y0086025D01*
X0140823Y0085904D01*
X0140870Y0085781D01*
X0140913Y0085657D01*
X0140952Y0085532D01*
X0140988Y0085405D01*
X0141019Y0085277D01*
X0141047Y0085149D01*
X0141071Y0085020D01*
X0141091Y0084890D01*
X0141107Y0084759D01*
X0141119Y0084628D01*
X0141127Y0084497D01*
X0141131Y0084366D01*
X0141131Y0084234D01*
X0141127Y0084103D01*
X0141119Y0083972D01*
X0141107Y0083841D01*
X0141091Y0083710D01*
X0141071Y0083580D01*
X0141047Y0083451D01*
X0141019Y0083323D01*
X0140988Y0083195D01*
X0140952Y0083068D01*
X0140913Y0082943D01*
X0140870Y0082819D01*
X0140823Y0082696D01*
X0140772Y0082575D01*
X0140718Y0082455D01*
X0140660Y0082337D01*
X0140599Y0082220D01*
X0140534Y0082106D01*
X0140466Y0081994D01*
X0140394Y0081884D01*
X0140319Y0081776D01*
X0140241Y0081670D01*
X0140160Y0081567D01*
X0140075Y0081466D01*
X0139988Y0081368D01*
X0139897Y0081273D01*
X0139804Y0081180D01*
X0139708Y0081090D01*
X0139609Y0081003D01*
X0139508Y0080920D01*
X0139404Y0080839D01*
X0139298Y0080762D01*
X0139189Y0080688D01*
X0139078Y0080617D01*
X0138966Y0080549D01*
X0138851Y0080485D01*
X0138734Y0080425D01*
X0138615Y0080368D01*
X0138495Y0080315D01*
X0138374Y0080265D01*
X0138250Y0080219D01*
X0138126Y0080177D01*
X0138000Y0080139D01*
X0137873Y0080104D01*
X0137745Y0080073D01*
X0137617Y0080047D01*
X0137487Y0080024D01*
X0137357Y0080005D01*
X0137227Y0079990D01*
X0137096Y0079979D01*
X0136964Y0079972D01*
X0136833Y0079969D01*
X0136701Y0079970D01*
X0136570Y0079975D01*
X0136439Y0079984D01*
X0136308Y0079997D01*
X0136178Y0080014D01*
X0136048Y0080035D01*
X0135919Y0080060D01*
X0135791Y0080088D01*
X0135663Y0080121D01*
X0135537Y0080157D01*
X0135412Y0080198D01*
X0135288Y0080242D01*
X0135165Y0080289D01*
X0135044Y0080341D01*
X0134925Y0080396D01*
X0134807Y0080455D01*
X0134692Y0080517D01*
X0134578Y0080583D01*
X0134466Y0080652D01*
X0134356Y0080724D01*
X0134249Y0080800D01*
X0134144Y0080879D01*
X0134041Y0080961D01*
X0133941Y0081046D01*
X0133844Y0081135D01*
X0133749Y0081226D01*
X0133657Y0081320D01*
X0133568Y0081417D01*
X0133482Y0081516D01*
X0133399Y0081618D01*
X0133319Y0081723D01*
X0133243Y0081829D01*
X0133170Y0081938D01*
X0133100Y0082050D01*
X0133033Y0082163D01*
X0132970Y0082278D01*
X0132910Y0082396D01*
X0132854Y0082514D01*
X0132802Y0082635D01*
X0132753Y0082757D01*
X0132708Y0082881D01*
X0132667Y0083005D01*
X0132630Y0083132D01*
X0132596Y0083259D01*
X0132566Y0083387D01*
X0132541Y0083516D01*
X0132519Y0083645D01*
X0132501Y0083775D01*
X0132487Y0083906D01*
X0132477Y0084037D01*
X0132471Y0084169D01*
X0132469Y0084300D01*
X0132469Y0156800D02*
X0132471Y0156931D01*
X0132477Y0157063D01*
X0132487Y0157194D01*
X0132501Y0157325D01*
X0132519Y0157455D01*
X0132541Y0157584D01*
X0132566Y0157713D01*
X0132596Y0157841D01*
X0132630Y0157968D01*
X0132667Y0158095D01*
X0132708Y0158219D01*
X0132753Y0158343D01*
X0132802Y0158465D01*
X0132854Y0158586D01*
X0132910Y0158704D01*
X0132970Y0158822D01*
X0133033Y0158937D01*
X0133100Y0159050D01*
X0133170Y0159162D01*
X0133243Y0159271D01*
X0133319Y0159377D01*
X0133399Y0159482D01*
X0133482Y0159584D01*
X0133568Y0159683D01*
X0133657Y0159780D01*
X0133749Y0159874D01*
X0133844Y0159965D01*
X0133941Y0160054D01*
X0134041Y0160139D01*
X0134144Y0160221D01*
X0134249Y0160300D01*
X0134356Y0160376D01*
X0134466Y0160448D01*
X0134578Y0160517D01*
X0134692Y0160583D01*
X0134807Y0160645D01*
X0134925Y0160704D01*
X0135044Y0160759D01*
X0135165Y0160811D01*
X0135288Y0160858D01*
X0135412Y0160902D01*
X0135537Y0160943D01*
X0135663Y0160979D01*
X0135791Y0161012D01*
X0135919Y0161040D01*
X0136048Y0161065D01*
X0136178Y0161086D01*
X0136308Y0161103D01*
X0136439Y0161116D01*
X0136570Y0161125D01*
X0136701Y0161130D01*
X0136833Y0161131D01*
X0136964Y0161128D01*
X0137096Y0161121D01*
X0137227Y0161110D01*
X0137357Y0161095D01*
X0137487Y0161076D01*
X0137617Y0161053D01*
X0137745Y0161027D01*
X0137873Y0160996D01*
X0138000Y0160961D01*
X0138126Y0160923D01*
X0138250Y0160881D01*
X0138374Y0160835D01*
X0138495Y0160785D01*
X0138615Y0160732D01*
X0138734Y0160675D01*
X0138851Y0160615D01*
X0138965Y0160551D01*
X0139078Y0160483D01*
X0139189Y0160412D01*
X0139298Y0160338D01*
X0139404Y0160261D01*
X0139508Y0160180D01*
X0139609Y0160097D01*
X0139708Y0160010D01*
X0139804Y0159920D01*
X0139897Y0159827D01*
X0139988Y0159732D01*
X0140075Y0159634D01*
X0140160Y0159533D01*
X0140241Y0159430D01*
X0140319Y0159324D01*
X0140394Y0159216D01*
X0140466Y0159106D01*
X0140534Y0158994D01*
X0140599Y0158880D01*
X0140660Y0158763D01*
X0140718Y0158645D01*
X0140772Y0158525D01*
X0140823Y0158404D01*
X0140870Y0158281D01*
X0140913Y0158157D01*
X0140952Y0158032D01*
X0140988Y0157905D01*
X0141019Y0157777D01*
X0141047Y0157649D01*
X0141071Y0157520D01*
X0141091Y0157390D01*
X0141107Y0157259D01*
X0141119Y0157128D01*
X0141127Y0156997D01*
X0141131Y0156866D01*
X0141131Y0156734D01*
X0141127Y0156603D01*
X0141119Y0156472D01*
X0141107Y0156341D01*
X0141091Y0156210D01*
X0141071Y0156080D01*
X0141047Y0155951D01*
X0141019Y0155823D01*
X0140988Y0155695D01*
X0140952Y0155568D01*
X0140913Y0155443D01*
X0140870Y0155319D01*
X0140823Y0155196D01*
X0140772Y0155075D01*
X0140718Y0154955D01*
X0140660Y0154837D01*
X0140599Y0154720D01*
X0140534Y0154606D01*
X0140466Y0154494D01*
X0140394Y0154384D01*
X0140319Y0154276D01*
X0140241Y0154170D01*
X0140160Y0154067D01*
X0140075Y0153966D01*
X0139988Y0153868D01*
X0139897Y0153773D01*
X0139804Y0153680D01*
X0139708Y0153590D01*
X0139609Y0153503D01*
X0139508Y0153420D01*
X0139404Y0153339D01*
X0139298Y0153262D01*
X0139189Y0153188D01*
X0139078Y0153117D01*
X0138966Y0153049D01*
X0138851Y0152985D01*
X0138734Y0152925D01*
X0138615Y0152868D01*
X0138495Y0152815D01*
X0138374Y0152765D01*
X0138250Y0152719D01*
X0138126Y0152677D01*
X0138000Y0152639D01*
X0137873Y0152604D01*
X0137745Y0152573D01*
X0137617Y0152547D01*
X0137487Y0152524D01*
X0137357Y0152505D01*
X0137227Y0152490D01*
X0137096Y0152479D01*
X0136964Y0152472D01*
X0136833Y0152469D01*
X0136701Y0152470D01*
X0136570Y0152475D01*
X0136439Y0152484D01*
X0136308Y0152497D01*
X0136178Y0152514D01*
X0136048Y0152535D01*
X0135919Y0152560D01*
X0135791Y0152588D01*
X0135663Y0152621D01*
X0135537Y0152657D01*
X0135412Y0152698D01*
X0135288Y0152742D01*
X0135165Y0152789D01*
X0135044Y0152841D01*
X0134925Y0152896D01*
X0134807Y0152955D01*
X0134692Y0153017D01*
X0134578Y0153083D01*
X0134466Y0153152D01*
X0134356Y0153224D01*
X0134249Y0153300D01*
X0134144Y0153379D01*
X0134041Y0153461D01*
X0133941Y0153546D01*
X0133844Y0153635D01*
X0133749Y0153726D01*
X0133657Y0153820D01*
X0133568Y0153917D01*
X0133482Y0154016D01*
X0133399Y0154118D01*
X0133319Y0154223D01*
X0133243Y0154329D01*
X0133170Y0154438D01*
X0133100Y0154550D01*
X0133033Y0154663D01*
X0132970Y0154778D01*
X0132910Y0154896D01*
X0132854Y0155014D01*
X0132802Y0155135D01*
X0132753Y0155257D01*
X0132708Y0155381D01*
X0132667Y0155505D01*
X0132630Y0155632D01*
X0132596Y0155759D01*
X0132566Y0155887D01*
X0132541Y0156016D01*
X0132519Y0156145D01*
X0132501Y0156275D01*
X0132487Y0156406D01*
X0132477Y0156537D01*
X0132471Y0156669D01*
X0132469Y0156800D01*
X0179969Y0084300D02*
X0179971Y0084431D01*
X0179977Y0084563D01*
X0179987Y0084694D01*
X0180001Y0084825D01*
X0180019Y0084955D01*
X0180041Y0085084D01*
X0180066Y0085213D01*
X0180096Y0085341D01*
X0180130Y0085468D01*
X0180167Y0085595D01*
X0180208Y0085719D01*
X0180253Y0085843D01*
X0180302Y0085965D01*
X0180354Y0086086D01*
X0180410Y0086204D01*
X0180470Y0086322D01*
X0180533Y0086437D01*
X0180600Y0086550D01*
X0180670Y0086662D01*
X0180743Y0086771D01*
X0180819Y0086877D01*
X0180899Y0086982D01*
X0180982Y0087084D01*
X0181068Y0087183D01*
X0181157Y0087280D01*
X0181249Y0087374D01*
X0181344Y0087465D01*
X0181441Y0087554D01*
X0181541Y0087639D01*
X0181644Y0087721D01*
X0181749Y0087800D01*
X0181856Y0087876D01*
X0181966Y0087948D01*
X0182078Y0088017D01*
X0182192Y0088083D01*
X0182307Y0088145D01*
X0182425Y0088204D01*
X0182544Y0088259D01*
X0182665Y0088311D01*
X0182788Y0088358D01*
X0182912Y0088402D01*
X0183037Y0088443D01*
X0183163Y0088479D01*
X0183291Y0088512D01*
X0183419Y0088540D01*
X0183548Y0088565D01*
X0183678Y0088586D01*
X0183808Y0088603D01*
X0183939Y0088616D01*
X0184070Y0088625D01*
X0184201Y0088630D01*
X0184333Y0088631D01*
X0184464Y0088628D01*
X0184596Y0088621D01*
X0184727Y0088610D01*
X0184857Y0088595D01*
X0184987Y0088576D01*
X0185117Y0088553D01*
X0185245Y0088527D01*
X0185373Y0088496D01*
X0185500Y0088461D01*
X0185626Y0088423D01*
X0185750Y0088381D01*
X0185874Y0088335D01*
X0185995Y0088285D01*
X0186115Y0088232D01*
X0186234Y0088175D01*
X0186351Y0088115D01*
X0186465Y0088051D01*
X0186578Y0087983D01*
X0186689Y0087912D01*
X0186798Y0087838D01*
X0186904Y0087761D01*
X0187008Y0087680D01*
X0187109Y0087597D01*
X0187208Y0087510D01*
X0187304Y0087420D01*
X0187397Y0087327D01*
X0187488Y0087232D01*
X0187575Y0087134D01*
X0187660Y0087033D01*
X0187741Y0086930D01*
X0187819Y0086824D01*
X0187894Y0086716D01*
X0187966Y0086606D01*
X0188034Y0086494D01*
X0188099Y0086380D01*
X0188160Y0086263D01*
X0188218Y0086145D01*
X0188272Y0086025D01*
X0188323Y0085904D01*
X0188370Y0085781D01*
X0188413Y0085657D01*
X0188452Y0085532D01*
X0188488Y0085405D01*
X0188519Y0085277D01*
X0188547Y0085149D01*
X0188571Y0085020D01*
X0188591Y0084890D01*
X0188607Y0084759D01*
X0188619Y0084628D01*
X0188627Y0084497D01*
X0188631Y0084366D01*
X0188631Y0084234D01*
X0188627Y0084103D01*
X0188619Y0083972D01*
X0188607Y0083841D01*
X0188591Y0083710D01*
X0188571Y0083580D01*
X0188547Y0083451D01*
X0188519Y0083323D01*
X0188488Y0083195D01*
X0188452Y0083068D01*
X0188413Y0082943D01*
X0188370Y0082819D01*
X0188323Y0082696D01*
X0188272Y0082575D01*
X0188218Y0082455D01*
X0188160Y0082337D01*
X0188099Y0082220D01*
X0188034Y0082106D01*
X0187966Y0081994D01*
X0187894Y0081884D01*
X0187819Y0081776D01*
X0187741Y0081670D01*
X0187660Y0081567D01*
X0187575Y0081466D01*
X0187488Y0081368D01*
X0187397Y0081273D01*
X0187304Y0081180D01*
X0187208Y0081090D01*
X0187109Y0081003D01*
X0187008Y0080920D01*
X0186904Y0080839D01*
X0186798Y0080762D01*
X0186689Y0080688D01*
X0186578Y0080617D01*
X0186466Y0080549D01*
X0186351Y0080485D01*
X0186234Y0080425D01*
X0186115Y0080368D01*
X0185995Y0080315D01*
X0185874Y0080265D01*
X0185750Y0080219D01*
X0185626Y0080177D01*
X0185500Y0080139D01*
X0185373Y0080104D01*
X0185245Y0080073D01*
X0185117Y0080047D01*
X0184987Y0080024D01*
X0184857Y0080005D01*
X0184727Y0079990D01*
X0184596Y0079979D01*
X0184464Y0079972D01*
X0184333Y0079969D01*
X0184201Y0079970D01*
X0184070Y0079975D01*
X0183939Y0079984D01*
X0183808Y0079997D01*
X0183678Y0080014D01*
X0183548Y0080035D01*
X0183419Y0080060D01*
X0183291Y0080088D01*
X0183163Y0080121D01*
X0183037Y0080157D01*
X0182912Y0080198D01*
X0182788Y0080242D01*
X0182665Y0080289D01*
X0182544Y0080341D01*
X0182425Y0080396D01*
X0182307Y0080455D01*
X0182192Y0080517D01*
X0182078Y0080583D01*
X0181966Y0080652D01*
X0181856Y0080724D01*
X0181749Y0080800D01*
X0181644Y0080879D01*
X0181541Y0080961D01*
X0181441Y0081046D01*
X0181344Y0081135D01*
X0181249Y0081226D01*
X0181157Y0081320D01*
X0181068Y0081417D01*
X0180982Y0081516D01*
X0180899Y0081618D01*
X0180819Y0081723D01*
X0180743Y0081829D01*
X0180670Y0081938D01*
X0180600Y0082050D01*
X0180533Y0082163D01*
X0180470Y0082278D01*
X0180410Y0082396D01*
X0180354Y0082514D01*
X0180302Y0082635D01*
X0180253Y0082757D01*
X0180208Y0082881D01*
X0180167Y0083005D01*
X0180130Y0083132D01*
X0180096Y0083259D01*
X0180066Y0083387D01*
X0180041Y0083516D01*
X0180019Y0083645D01*
X0180001Y0083775D01*
X0179987Y0083906D01*
X0179977Y0084037D01*
X0179971Y0084169D01*
X0179969Y0084300D01*
X0179969Y0026800D02*
X0179971Y0026931D01*
X0179977Y0027063D01*
X0179987Y0027194D01*
X0180001Y0027325D01*
X0180019Y0027455D01*
X0180041Y0027584D01*
X0180066Y0027713D01*
X0180096Y0027841D01*
X0180130Y0027968D01*
X0180167Y0028095D01*
X0180208Y0028219D01*
X0180253Y0028343D01*
X0180302Y0028465D01*
X0180354Y0028586D01*
X0180410Y0028704D01*
X0180470Y0028822D01*
X0180533Y0028937D01*
X0180600Y0029050D01*
X0180670Y0029162D01*
X0180743Y0029271D01*
X0180819Y0029377D01*
X0180899Y0029482D01*
X0180982Y0029584D01*
X0181068Y0029683D01*
X0181157Y0029780D01*
X0181249Y0029874D01*
X0181344Y0029965D01*
X0181441Y0030054D01*
X0181541Y0030139D01*
X0181644Y0030221D01*
X0181749Y0030300D01*
X0181856Y0030376D01*
X0181966Y0030448D01*
X0182078Y0030517D01*
X0182192Y0030583D01*
X0182307Y0030645D01*
X0182425Y0030704D01*
X0182544Y0030759D01*
X0182665Y0030811D01*
X0182788Y0030858D01*
X0182912Y0030902D01*
X0183037Y0030943D01*
X0183163Y0030979D01*
X0183291Y0031012D01*
X0183419Y0031040D01*
X0183548Y0031065D01*
X0183678Y0031086D01*
X0183808Y0031103D01*
X0183939Y0031116D01*
X0184070Y0031125D01*
X0184201Y0031130D01*
X0184333Y0031131D01*
X0184464Y0031128D01*
X0184596Y0031121D01*
X0184727Y0031110D01*
X0184857Y0031095D01*
X0184987Y0031076D01*
X0185117Y0031053D01*
X0185245Y0031027D01*
X0185373Y0030996D01*
X0185500Y0030961D01*
X0185626Y0030923D01*
X0185750Y0030881D01*
X0185874Y0030835D01*
X0185995Y0030785D01*
X0186115Y0030732D01*
X0186234Y0030675D01*
X0186351Y0030615D01*
X0186465Y0030551D01*
X0186578Y0030483D01*
X0186689Y0030412D01*
X0186798Y0030338D01*
X0186904Y0030261D01*
X0187008Y0030180D01*
X0187109Y0030097D01*
X0187208Y0030010D01*
X0187304Y0029920D01*
X0187397Y0029827D01*
X0187488Y0029732D01*
X0187575Y0029634D01*
X0187660Y0029533D01*
X0187741Y0029430D01*
X0187819Y0029324D01*
X0187894Y0029216D01*
X0187966Y0029106D01*
X0188034Y0028994D01*
X0188099Y0028880D01*
X0188160Y0028763D01*
X0188218Y0028645D01*
X0188272Y0028525D01*
X0188323Y0028404D01*
X0188370Y0028281D01*
X0188413Y0028157D01*
X0188452Y0028032D01*
X0188488Y0027905D01*
X0188519Y0027777D01*
X0188547Y0027649D01*
X0188571Y0027520D01*
X0188591Y0027390D01*
X0188607Y0027259D01*
X0188619Y0027128D01*
X0188627Y0026997D01*
X0188631Y0026866D01*
X0188631Y0026734D01*
X0188627Y0026603D01*
X0188619Y0026472D01*
X0188607Y0026341D01*
X0188591Y0026210D01*
X0188571Y0026080D01*
X0188547Y0025951D01*
X0188519Y0025823D01*
X0188488Y0025695D01*
X0188452Y0025568D01*
X0188413Y0025443D01*
X0188370Y0025319D01*
X0188323Y0025196D01*
X0188272Y0025075D01*
X0188218Y0024955D01*
X0188160Y0024837D01*
X0188099Y0024720D01*
X0188034Y0024606D01*
X0187966Y0024494D01*
X0187894Y0024384D01*
X0187819Y0024276D01*
X0187741Y0024170D01*
X0187660Y0024067D01*
X0187575Y0023966D01*
X0187488Y0023868D01*
X0187397Y0023773D01*
X0187304Y0023680D01*
X0187208Y0023590D01*
X0187109Y0023503D01*
X0187008Y0023420D01*
X0186904Y0023339D01*
X0186798Y0023262D01*
X0186689Y0023188D01*
X0186578Y0023117D01*
X0186466Y0023049D01*
X0186351Y0022985D01*
X0186234Y0022925D01*
X0186115Y0022868D01*
X0185995Y0022815D01*
X0185874Y0022765D01*
X0185750Y0022719D01*
X0185626Y0022677D01*
X0185500Y0022639D01*
X0185373Y0022604D01*
X0185245Y0022573D01*
X0185117Y0022547D01*
X0184987Y0022524D01*
X0184857Y0022505D01*
X0184727Y0022490D01*
X0184596Y0022479D01*
X0184464Y0022472D01*
X0184333Y0022469D01*
X0184201Y0022470D01*
X0184070Y0022475D01*
X0183939Y0022484D01*
X0183808Y0022497D01*
X0183678Y0022514D01*
X0183548Y0022535D01*
X0183419Y0022560D01*
X0183291Y0022588D01*
X0183163Y0022621D01*
X0183037Y0022657D01*
X0182912Y0022698D01*
X0182788Y0022742D01*
X0182665Y0022789D01*
X0182544Y0022841D01*
X0182425Y0022896D01*
X0182307Y0022955D01*
X0182192Y0023017D01*
X0182078Y0023083D01*
X0181966Y0023152D01*
X0181856Y0023224D01*
X0181749Y0023300D01*
X0181644Y0023379D01*
X0181541Y0023461D01*
X0181441Y0023546D01*
X0181344Y0023635D01*
X0181249Y0023726D01*
X0181157Y0023820D01*
X0181068Y0023917D01*
X0180982Y0024016D01*
X0180899Y0024118D01*
X0180819Y0024223D01*
X0180743Y0024329D01*
X0180670Y0024438D01*
X0180600Y0024550D01*
X0180533Y0024663D01*
X0180470Y0024778D01*
X0180410Y0024896D01*
X0180354Y0025014D01*
X0180302Y0025135D01*
X0180253Y0025257D01*
X0180208Y0025381D01*
X0180167Y0025505D01*
X0180130Y0025632D01*
X0180096Y0025759D01*
X0180066Y0025887D01*
X0180041Y0026016D01*
X0180019Y0026145D01*
X0180001Y0026275D01*
X0179987Y0026406D01*
X0179977Y0026537D01*
X0179971Y0026669D01*
X0179969Y0026800D01*
X0227469Y0026800D02*
X0227471Y0026931D01*
X0227477Y0027063D01*
X0227487Y0027194D01*
X0227501Y0027325D01*
X0227519Y0027455D01*
X0227541Y0027584D01*
X0227566Y0027713D01*
X0227596Y0027841D01*
X0227630Y0027968D01*
X0227667Y0028095D01*
X0227708Y0028219D01*
X0227753Y0028343D01*
X0227802Y0028465D01*
X0227854Y0028586D01*
X0227910Y0028704D01*
X0227970Y0028822D01*
X0228033Y0028937D01*
X0228100Y0029050D01*
X0228170Y0029162D01*
X0228243Y0029271D01*
X0228319Y0029377D01*
X0228399Y0029482D01*
X0228482Y0029584D01*
X0228568Y0029683D01*
X0228657Y0029780D01*
X0228749Y0029874D01*
X0228844Y0029965D01*
X0228941Y0030054D01*
X0229041Y0030139D01*
X0229144Y0030221D01*
X0229249Y0030300D01*
X0229356Y0030376D01*
X0229466Y0030448D01*
X0229578Y0030517D01*
X0229692Y0030583D01*
X0229807Y0030645D01*
X0229925Y0030704D01*
X0230044Y0030759D01*
X0230165Y0030811D01*
X0230288Y0030858D01*
X0230412Y0030902D01*
X0230537Y0030943D01*
X0230663Y0030979D01*
X0230791Y0031012D01*
X0230919Y0031040D01*
X0231048Y0031065D01*
X0231178Y0031086D01*
X0231308Y0031103D01*
X0231439Y0031116D01*
X0231570Y0031125D01*
X0231701Y0031130D01*
X0231833Y0031131D01*
X0231964Y0031128D01*
X0232096Y0031121D01*
X0232227Y0031110D01*
X0232357Y0031095D01*
X0232487Y0031076D01*
X0232617Y0031053D01*
X0232745Y0031027D01*
X0232873Y0030996D01*
X0233000Y0030961D01*
X0233126Y0030923D01*
X0233250Y0030881D01*
X0233374Y0030835D01*
X0233495Y0030785D01*
X0233615Y0030732D01*
X0233734Y0030675D01*
X0233851Y0030615D01*
X0233965Y0030551D01*
X0234078Y0030483D01*
X0234189Y0030412D01*
X0234298Y0030338D01*
X0234404Y0030261D01*
X0234508Y0030180D01*
X0234609Y0030097D01*
X0234708Y0030010D01*
X0234804Y0029920D01*
X0234897Y0029827D01*
X0234988Y0029732D01*
X0235075Y0029634D01*
X0235160Y0029533D01*
X0235241Y0029430D01*
X0235319Y0029324D01*
X0235394Y0029216D01*
X0235466Y0029106D01*
X0235534Y0028994D01*
X0235599Y0028880D01*
X0235660Y0028763D01*
X0235718Y0028645D01*
X0235772Y0028525D01*
X0235823Y0028404D01*
X0235870Y0028281D01*
X0235913Y0028157D01*
X0235952Y0028032D01*
X0235988Y0027905D01*
X0236019Y0027777D01*
X0236047Y0027649D01*
X0236071Y0027520D01*
X0236091Y0027390D01*
X0236107Y0027259D01*
X0236119Y0027128D01*
X0236127Y0026997D01*
X0236131Y0026866D01*
X0236131Y0026734D01*
X0236127Y0026603D01*
X0236119Y0026472D01*
X0236107Y0026341D01*
X0236091Y0026210D01*
X0236071Y0026080D01*
X0236047Y0025951D01*
X0236019Y0025823D01*
X0235988Y0025695D01*
X0235952Y0025568D01*
X0235913Y0025443D01*
X0235870Y0025319D01*
X0235823Y0025196D01*
X0235772Y0025075D01*
X0235718Y0024955D01*
X0235660Y0024837D01*
X0235599Y0024720D01*
X0235534Y0024606D01*
X0235466Y0024494D01*
X0235394Y0024384D01*
X0235319Y0024276D01*
X0235241Y0024170D01*
X0235160Y0024067D01*
X0235075Y0023966D01*
X0234988Y0023868D01*
X0234897Y0023773D01*
X0234804Y0023680D01*
X0234708Y0023590D01*
X0234609Y0023503D01*
X0234508Y0023420D01*
X0234404Y0023339D01*
X0234298Y0023262D01*
X0234189Y0023188D01*
X0234078Y0023117D01*
X0233966Y0023049D01*
X0233851Y0022985D01*
X0233734Y0022925D01*
X0233615Y0022868D01*
X0233495Y0022815D01*
X0233374Y0022765D01*
X0233250Y0022719D01*
X0233126Y0022677D01*
X0233000Y0022639D01*
X0232873Y0022604D01*
X0232745Y0022573D01*
X0232617Y0022547D01*
X0232487Y0022524D01*
X0232357Y0022505D01*
X0232227Y0022490D01*
X0232096Y0022479D01*
X0231964Y0022472D01*
X0231833Y0022469D01*
X0231701Y0022470D01*
X0231570Y0022475D01*
X0231439Y0022484D01*
X0231308Y0022497D01*
X0231178Y0022514D01*
X0231048Y0022535D01*
X0230919Y0022560D01*
X0230791Y0022588D01*
X0230663Y0022621D01*
X0230537Y0022657D01*
X0230412Y0022698D01*
X0230288Y0022742D01*
X0230165Y0022789D01*
X0230044Y0022841D01*
X0229925Y0022896D01*
X0229807Y0022955D01*
X0229692Y0023017D01*
X0229578Y0023083D01*
X0229466Y0023152D01*
X0229356Y0023224D01*
X0229249Y0023300D01*
X0229144Y0023379D01*
X0229041Y0023461D01*
X0228941Y0023546D01*
X0228844Y0023635D01*
X0228749Y0023726D01*
X0228657Y0023820D01*
X0228568Y0023917D01*
X0228482Y0024016D01*
X0228399Y0024118D01*
X0228319Y0024223D01*
X0228243Y0024329D01*
X0228170Y0024438D01*
X0228100Y0024550D01*
X0228033Y0024663D01*
X0227970Y0024778D01*
X0227910Y0024896D01*
X0227854Y0025014D01*
X0227802Y0025135D01*
X0227753Y0025257D01*
X0227708Y0025381D01*
X0227667Y0025505D01*
X0227630Y0025632D01*
X0227596Y0025759D01*
X0227566Y0025887D01*
X0227541Y0026016D01*
X0227519Y0026145D01*
X0227501Y0026275D01*
X0227487Y0026406D01*
X0227477Y0026537D01*
X0227471Y0026669D01*
X0227469Y0026800D01*
X0227469Y0084300D02*
X0227471Y0084431D01*
X0227477Y0084563D01*
X0227487Y0084694D01*
X0227501Y0084825D01*
X0227519Y0084955D01*
X0227541Y0085084D01*
X0227566Y0085213D01*
X0227596Y0085341D01*
X0227630Y0085468D01*
X0227667Y0085595D01*
X0227708Y0085719D01*
X0227753Y0085843D01*
X0227802Y0085965D01*
X0227854Y0086086D01*
X0227910Y0086204D01*
X0227970Y0086322D01*
X0228033Y0086437D01*
X0228100Y0086550D01*
X0228170Y0086662D01*
X0228243Y0086771D01*
X0228319Y0086877D01*
X0228399Y0086982D01*
X0228482Y0087084D01*
X0228568Y0087183D01*
X0228657Y0087280D01*
X0228749Y0087374D01*
X0228844Y0087465D01*
X0228941Y0087554D01*
X0229041Y0087639D01*
X0229144Y0087721D01*
X0229249Y0087800D01*
X0229356Y0087876D01*
X0229466Y0087948D01*
X0229578Y0088017D01*
X0229692Y0088083D01*
X0229807Y0088145D01*
X0229925Y0088204D01*
X0230044Y0088259D01*
X0230165Y0088311D01*
X0230288Y0088358D01*
X0230412Y0088402D01*
X0230537Y0088443D01*
X0230663Y0088479D01*
X0230791Y0088512D01*
X0230919Y0088540D01*
X0231048Y0088565D01*
X0231178Y0088586D01*
X0231308Y0088603D01*
X0231439Y0088616D01*
X0231570Y0088625D01*
X0231701Y0088630D01*
X0231833Y0088631D01*
X0231964Y0088628D01*
X0232096Y0088621D01*
X0232227Y0088610D01*
X0232357Y0088595D01*
X0232487Y0088576D01*
X0232617Y0088553D01*
X0232745Y0088527D01*
X0232873Y0088496D01*
X0233000Y0088461D01*
X0233126Y0088423D01*
X0233250Y0088381D01*
X0233374Y0088335D01*
X0233495Y0088285D01*
X0233615Y0088232D01*
X0233734Y0088175D01*
X0233851Y0088115D01*
X0233965Y0088051D01*
X0234078Y0087983D01*
X0234189Y0087912D01*
X0234298Y0087838D01*
X0234404Y0087761D01*
X0234508Y0087680D01*
X0234609Y0087597D01*
X0234708Y0087510D01*
X0234804Y0087420D01*
X0234897Y0087327D01*
X0234988Y0087232D01*
X0235075Y0087134D01*
X0235160Y0087033D01*
X0235241Y0086930D01*
X0235319Y0086824D01*
X0235394Y0086716D01*
X0235466Y0086606D01*
X0235534Y0086494D01*
X0235599Y0086380D01*
X0235660Y0086263D01*
X0235718Y0086145D01*
X0235772Y0086025D01*
X0235823Y0085904D01*
X0235870Y0085781D01*
X0235913Y0085657D01*
X0235952Y0085532D01*
X0235988Y0085405D01*
X0236019Y0085277D01*
X0236047Y0085149D01*
X0236071Y0085020D01*
X0236091Y0084890D01*
X0236107Y0084759D01*
X0236119Y0084628D01*
X0236127Y0084497D01*
X0236131Y0084366D01*
X0236131Y0084234D01*
X0236127Y0084103D01*
X0236119Y0083972D01*
X0236107Y0083841D01*
X0236091Y0083710D01*
X0236071Y0083580D01*
X0236047Y0083451D01*
X0236019Y0083323D01*
X0235988Y0083195D01*
X0235952Y0083068D01*
X0235913Y0082943D01*
X0235870Y0082819D01*
X0235823Y0082696D01*
X0235772Y0082575D01*
X0235718Y0082455D01*
X0235660Y0082337D01*
X0235599Y0082220D01*
X0235534Y0082106D01*
X0235466Y0081994D01*
X0235394Y0081884D01*
X0235319Y0081776D01*
X0235241Y0081670D01*
X0235160Y0081567D01*
X0235075Y0081466D01*
X0234988Y0081368D01*
X0234897Y0081273D01*
X0234804Y0081180D01*
X0234708Y0081090D01*
X0234609Y0081003D01*
X0234508Y0080920D01*
X0234404Y0080839D01*
X0234298Y0080762D01*
X0234189Y0080688D01*
X0234078Y0080617D01*
X0233966Y0080549D01*
X0233851Y0080485D01*
X0233734Y0080425D01*
X0233615Y0080368D01*
X0233495Y0080315D01*
X0233374Y0080265D01*
X0233250Y0080219D01*
X0233126Y0080177D01*
X0233000Y0080139D01*
X0232873Y0080104D01*
X0232745Y0080073D01*
X0232617Y0080047D01*
X0232487Y0080024D01*
X0232357Y0080005D01*
X0232227Y0079990D01*
X0232096Y0079979D01*
X0231964Y0079972D01*
X0231833Y0079969D01*
X0231701Y0079970D01*
X0231570Y0079975D01*
X0231439Y0079984D01*
X0231308Y0079997D01*
X0231178Y0080014D01*
X0231048Y0080035D01*
X0230919Y0080060D01*
X0230791Y0080088D01*
X0230663Y0080121D01*
X0230537Y0080157D01*
X0230412Y0080198D01*
X0230288Y0080242D01*
X0230165Y0080289D01*
X0230044Y0080341D01*
X0229925Y0080396D01*
X0229807Y0080455D01*
X0229692Y0080517D01*
X0229578Y0080583D01*
X0229466Y0080652D01*
X0229356Y0080724D01*
X0229249Y0080800D01*
X0229144Y0080879D01*
X0229041Y0080961D01*
X0228941Y0081046D01*
X0228844Y0081135D01*
X0228749Y0081226D01*
X0228657Y0081320D01*
X0228568Y0081417D01*
X0228482Y0081516D01*
X0228399Y0081618D01*
X0228319Y0081723D01*
X0228243Y0081829D01*
X0228170Y0081938D01*
X0228100Y0082050D01*
X0228033Y0082163D01*
X0227970Y0082278D01*
X0227910Y0082396D01*
X0227854Y0082514D01*
X0227802Y0082635D01*
X0227753Y0082757D01*
X0227708Y0082881D01*
X0227667Y0083005D01*
X0227630Y0083132D01*
X0227596Y0083259D01*
X0227566Y0083387D01*
X0227541Y0083516D01*
X0227519Y0083645D01*
X0227501Y0083775D01*
X0227487Y0083906D01*
X0227477Y0084037D01*
X0227471Y0084169D01*
X0227469Y0084300D01*
X0227469Y0156800D02*
X0227471Y0156931D01*
X0227477Y0157063D01*
X0227487Y0157194D01*
X0227501Y0157325D01*
X0227519Y0157455D01*
X0227541Y0157584D01*
X0227566Y0157713D01*
X0227596Y0157841D01*
X0227630Y0157968D01*
X0227667Y0158095D01*
X0227708Y0158219D01*
X0227753Y0158343D01*
X0227802Y0158465D01*
X0227854Y0158586D01*
X0227910Y0158704D01*
X0227970Y0158822D01*
X0228033Y0158937D01*
X0228100Y0159050D01*
X0228170Y0159162D01*
X0228243Y0159271D01*
X0228319Y0159377D01*
X0228399Y0159482D01*
X0228482Y0159584D01*
X0228568Y0159683D01*
X0228657Y0159780D01*
X0228749Y0159874D01*
X0228844Y0159965D01*
X0228941Y0160054D01*
X0229041Y0160139D01*
X0229144Y0160221D01*
X0229249Y0160300D01*
X0229356Y0160376D01*
X0229466Y0160448D01*
X0229578Y0160517D01*
X0229692Y0160583D01*
X0229807Y0160645D01*
X0229925Y0160704D01*
X0230044Y0160759D01*
X0230165Y0160811D01*
X0230288Y0160858D01*
X0230412Y0160902D01*
X0230537Y0160943D01*
X0230663Y0160979D01*
X0230791Y0161012D01*
X0230919Y0161040D01*
X0231048Y0161065D01*
X0231178Y0161086D01*
X0231308Y0161103D01*
X0231439Y0161116D01*
X0231570Y0161125D01*
X0231701Y0161130D01*
X0231833Y0161131D01*
X0231964Y0161128D01*
X0232096Y0161121D01*
X0232227Y0161110D01*
X0232357Y0161095D01*
X0232487Y0161076D01*
X0232617Y0161053D01*
X0232745Y0161027D01*
X0232873Y0160996D01*
X0233000Y0160961D01*
X0233126Y0160923D01*
X0233250Y0160881D01*
X0233374Y0160835D01*
X0233495Y0160785D01*
X0233615Y0160732D01*
X0233734Y0160675D01*
X0233851Y0160615D01*
X0233965Y0160551D01*
X0234078Y0160483D01*
X0234189Y0160412D01*
X0234298Y0160338D01*
X0234404Y0160261D01*
X0234508Y0160180D01*
X0234609Y0160097D01*
X0234708Y0160010D01*
X0234804Y0159920D01*
X0234897Y0159827D01*
X0234988Y0159732D01*
X0235075Y0159634D01*
X0235160Y0159533D01*
X0235241Y0159430D01*
X0235319Y0159324D01*
X0235394Y0159216D01*
X0235466Y0159106D01*
X0235534Y0158994D01*
X0235599Y0158880D01*
X0235660Y0158763D01*
X0235718Y0158645D01*
X0235772Y0158525D01*
X0235823Y0158404D01*
X0235870Y0158281D01*
X0235913Y0158157D01*
X0235952Y0158032D01*
X0235988Y0157905D01*
X0236019Y0157777D01*
X0236047Y0157649D01*
X0236071Y0157520D01*
X0236091Y0157390D01*
X0236107Y0157259D01*
X0236119Y0157128D01*
X0236127Y0156997D01*
X0236131Y0156866D01*
X0236131Y0156734D01*
X0236127Y0156603D01*
X0236119Y0156472D01*
X0236107Y0156341D01*
X0236091Y0156210D01*
X0236071Y0156080D01*
X0236047Y0155951D01*
X0236019Y0155823D01*
X0235988Y0155695D01*
X0235952Y0155568D01*
X0235913Y0155443D01*
X0235870Y0155319D01*
X0235823Y0155196D01*
X0235772Y0155075D01*
X0235718Y0154955D01*
X0235660Y0154837D01*
X0235599Y0154720D01*
X0235534Y0154606D01*
X0235466Y0154494D01*
X0235394Y0154384D01*
X0235319Y0154276D01*
X0235241Y0154170D01*
X0235160Y0154067D01*
X0235075Y0153966D01*
X0234988Y0153868D01*
X0234897Y0153773D01*
X0234804Y0153680D01*
X0234708Y0153590D01*
X0234609Y0153503D01*
X0234508Y0153420D01*
X0234404Y0153339D01*
X0234298Y0153262D01*
X0234189Y0153188D01*
X0234078Y0153117D01*
X0233966Y0153049D01*
X0233851Y0152985D01*
X0233734Y0152925D01*
X0233615Y0152868D01*
X0233495Y0152815D01*
X0233374Y0152765D01*
X0233250Y0152719D01*
X0233126Y0152677D01*
X0233000Y0152639D01*
X0232873Y0152604D01*
X0232745Y0152573D01*
X0232617Y0152547D01*
X0232487Y0152524D01*
X0232357Y0152505D01*
X0232227Y0152490D01*
X0232096Y0152479D01*
X0231964Y0152472D01*
X0231833Y0152469D01*
X0231701Y0152470D01*
X0231570Y0152475D01*
X0231439Y0152484D01*
X0231308Y0152497D01*
X0231178Y0152514D01*
X0231048Y0152535D01*
X0230919Y0152560D01*
X0230791Y0152588D01*
X0230663Y0152621D01*
X0230537Y0152657D01*
X0230412Y0152698D01*
X0230288Y0152742D01*
X0230165Y0152789D01*
X0230044Y0152841D01*
X0229925Y0152896D01*
X0229807Y0152955D01*
X0229692Y0153017D01*
X0229578Y0153083D01*
X0229466Y0153152D01*
X0229356Y0153224D01*
X0229249Y0153300D01*
X0229144Y0153379D01*
X0229041Y0153461D01*
X0228941Y0153546D01*
X0228844Y0153635D01*
X0228749Y0153726D01*
X0228657Y0153820D01*
X0228568Y0153917D01*
X0228482Y0154016D01*
X0228399Y0154118D01*
X0228319Y0154223D01*
X0228243Y0154329D01*
X0228170Y0154438D01*
X0228100Y0154550D01*
X0228033Y0154663D01*
X0227970Y0154778D01*
X0227910Y0154896D01*
X0227854Y0155014D01*
X0227802Y0155135D01*
X0227753Y0155257D01*
X0227708Y0155381D01*
X0227667Y0155505D01*
X0227630Y0155632D01*
X0227596Y0155759D01*
X0227566Y0155887D01*
X0227541Y0156016D01*
X0227519Y0156145D01*
X0227501Y0156275D01*
X0227487Y0156406D01*
X0227477Y0156537D01*
X0227471Y0156669D01*
X0227469Y0156800D01*
M02*
