G75*
%MOIN*%
%OFA0B0*%
%FSLAX25Y25*%
%IPPOS*%
%LPD*%
%AMOC8*
5,1,8,0,0,1.08239X$1,22.5*
%
%ADD10C,0.00000*%
D10*
X0001800Y0001800D02*
X0001800Y0421800D01*
X0311721Y0421800D01*
X0311721Y0001800D01*
X0001800Y0001800D01*
X0022469Y0026800D02*
X0022471Y0026931D01*
X0022477Y0027063D01*
X0022487Y0027194D01*
X0022501Y0027325D01*
X0022519Y0027455D01*
X0022541Y0027584D01*
X0022566Y0027713D01*
X0022596Y0027841D01*
X0022630Y0027968D01*
X0022667Y0028095D01*
X0022708Y0028219D01*
X0022753Y0028343D01*
X0022802Y0028465D01*
X0022854Y0028586D01*
X0022910Y0028704D01*
X0022970Y0028822D01*
X0023033Y0028937D01*
X0023100Y0029050D01*
X0023170Y0029162D01*
X0023243Y0029271D01*
X0023319Y0029377D01*
X0023399Y0029482D01*
X0023482Y0029584D01*
X0023568Y0029683D01*
X0023657Y0029780D01*
X0023749Y0029874D01*
X0023844Y0029965D01*
X0023941Y0030054D01*
X0024041Y0030139D01*
X0024144Y0030221D01*
X0024249Y0030300D01*
X0024356Y0030376D01*
X0024466Y0030448D01*
X0024578Y0030517D01*
X0024692Y0030583D01*
X0024807Y0030645D01*
X0024925Y0030704D01*
X0025044Y0030759D01*
X0025165Y0030811D01*
X0025288Y0030858D01*
X0025412Y0030902D01*
X0025537Y0030943D01*
X0025663Y0030979D01*
X0025791Y0031012D01*
X0025919Y0031040D01*
X0026048Y0031065D01*
X0026178Y0031086D01*
X0026308Y0031103D01*
X0026439Y0031116D01*
X0026570Y0031125D01*
X0026701Y0031130D01*
X0026833Y0031131D01*
X0026964Y0031128D01*
X0027096Y0031121D01*
X0027227Y0031110D01*
X0027357Y0031095D01*
X0027487Y0031076D01*
X0027617Y0031053D01*
X0027745Y0031027D01*
X0027873Y0030996D01*
X0028000Y0030961D01*
X0028126Y0030923D01*
X0028250Y0030881D01*
X0028374Y0030835D01*
X0028495Y0030785D01*
X0028615Y0030732D01*
X0028734Y0030675D01*
X0028851Y0030615D01*
X0028965Y0030551D01*
X0029078Y0030483D01*
X0029189Y0030412D01*
X0029298Y0030338D01*
X0029404Y0030261D01*
X0029508Y0030180D01*
X0029609Y0030097D01*
X0029708Y0030010D01*
X0029804Y0029920D01*
X0029897Y0029827D01*
X0029988Y0029732D01*
X0030075Y0029634D01*
X0030160Y0029533D01*
X0030241Y0029430D01*
X0030319Y0029324D01*
X0030394Y0029216D01*
X0030466Y0029106D01*
X0030534Y0028994D01*
X0030599Y0028880D01*
X0030660Y0028763D01*
X0030718Y0028645D01*
X0030772Y0028525D01*
X0030823Y0028404D01*
X0030870Y0028281D01*
X0030913Y0028157D01*
X0030952Y0028032D01*
X0030988Y0027905D01*
X0031019Y0027777D01*
X0031047Y0027649D01*
X0031071Y0027520D01*
X0031091Y0027390D01*
X0031107Y0027259D01*
X0031119Y0027128D01*
X0031127Y0026997D01*
X0031131Y0026866D01*
X0031131Y0026734D01*
X0031127Y0026603D01*
X0031119Y0026472D01*
X0031107Y0026341D01*
X0031091Y0026210D01*
X0031071Y0026080D01*
X0031047Y0025951D01*
X0031019Y0025823D01*
X0030988Y0025695D01*
X0030952Y0025568D01*
X0030913Y0025443D01*
X0030870Y0025319D01*
X0030823Y0025196D01*
X0030772Y0025075D01*
X0030718Y0024955D01*
X0030660Y0024837D01*
X0030599Y0024720D01*
X0030534Y0024606D01*
X0030466Y0024494D01*
X0030394Y0024384D01*
X0030319Y0024276D01*
X0030241Y0024170D01*
X0030160Y0024067D01*
X0030075Y0023966D01*
X0029988Y0023868D01*
X0029897Y0023773D01*
X0029804Y0023680D01*
X0029708Y0023590D01*
X0029609Y0023503D01*
X0029508Y0023420D01*
X0029404Y0023339D01*
X0029298Y0023262D01*
X0029189Y0023188D01*
X0029078Y0023117D01*
X0028966Y0023049D01*
X0028851Y0022985D01*
X0028734Y0022925D01*
X0028615Y0022868D01*
X0028495Y0022815D01*
X0028374Y0022765D01*
X0028250Y0022719D01*
X0028126Y0022677D01*
X0028000Y0022639D01*
X0027873Y0022604D01*
X0027745Y0022573D01*
X0027617Y0022547D01*
X0027487Y0022524D01*
X0027357Y0022505D01*
X0027227Y0022490D01*
X0027096Y0022479D01*
X0026964Y0022472D01*
X0026833Y0022469D01*
X0026701Y0022470D01*
X0026570Y0022475D01*
X0026439Y0022484D01*
X0026308Y0022497D01*
X0026178Y0022514D01*
X0026048Y0022535D01*
X0025919Y0022560D01*
X0025791Y0022588D01*
X0025663Y0022621D01*
X0025537Y0022657D01*
X0025412Y0022698D01*
X0025288Y0022742D01*
X0025165Y0022789D01*
X0025044Y0022841D01*
X0024925Y0022896D01*
X0024807Y0022955D01*
X0024692Y0023017D01*
X0024578Y0023083D01*
X0024466Y0023152D01*
X0024356Y0023224D01*
X0024249Y0023300D01*
X0024144Y0023379D01*
X0024041Y0023461D01*
X0023941Y0023546D01*
X0023844Y0023635D01*
X0023749Y0023726D01*
X0023657Y0023820D01*
X0023568Y0023917D01*
X0023482Y0024016D01*
X0023399Y0024118D01*
X0023319Y0024223D01*
X0023243Y0024329D01*
X0023170Y0024438D01*
X0023100Y0024550D01*
X0023033Y0024663D01*
X0022970Y0024778D01*
X0022910Y0024896D01*
X0022854Y0025014D01*
X0022802Y0025135D01*
X0022753Y0025257D01*
X0022708Y0025381D01*
X0022667Y0025505D01*
X0022630Y0025632D01*
X0022596Y0025759D01*
X0022566Y0025887D01*
X0022541Y0026016D01*
X0022519Y0026145D01*
X0022501Y0026275D01*
X0022487Y0026406D01*
X0022477Y0026537D01*
X0022471Y0026669D01*
X0022469Y0026800D01*
X0072469Y0026800D02*
X0072471Y0026931D01*
X0072477Y0027063D01*
X0072487Y0027194D01*
X0072501Y0027325D01*
X0072519Y0027455D01*
X0072541Y0027584D01*
X0072566Y0027713D01*
X0072596Y0027841D01*
X0072630Y0027968D01*
X0072667Y0028095D01*
X0072708Y0028219D01*
X0072753Y0028343D01*
X0072802Y0028465D01*
X0072854Y0028586D01*
X0072910Y0028704D01*
X0072970Y0028822D01*
X0073033Y0028937D01*
X0073100Y0029050D01*
X0073170Y0029162D01*
X0073243Y0029271D01*
X0073319Y0029377D01*
X0073399Y0029482D01*
X0073482Y0029584D01*
X0073568Y0029683D01*
X0073657Y0029780D01*
X0073749Y0029874D01*
X0073844Y0029965D01*
X0073941Y0030054D01*
X0074041Y0030139D01*
X0074144Y0030221D01*
X0074249Y0030300D01*
X0074356Y0030376D01*
X0074466Y0030448D01*
X0074578Y0030517D01*
X0074692Y0030583D01*
X0074807Y0030645D01*
X0074925Y0030704D01*
X0075044Y0030759D01*
X0075165Y0030811D01*
X0075288Y0030858D01*
X0075412Y0030902D01*
X0075537Y0030943D01*
X0075663Y0030979D01*
X0075791Y0031012D01*
X0075919Y0031040D01*
X0076048Y0031065D01*
X0076178Y0031086D01*
X0076308Y0031103D01*
X0076439Y0031116D01*
X0076570Y0031125D01*
X0076701Y0031130D01*
X0076833Y0031131D01*
X0076964Y0031128D01*
X0077096Y0031121D01*
X0077227Y0031110D01*
X0077357Y0031095D01*
X0077487Y0031076D01*
X0077617Y0031053D01*
X0077745Y0031027D01*
X0077873Y0030996D01*
X0078000Y0030961D01*
X0078126Y0030923D01*
X0078250Y0030881D01*
X0078374Y0030835D01*
X0078495Y0030785D01*
X0078615Y0030732D01*
X0078734Y0030675D01*
X0078851Y0030615D01*
X0078965Y0030551D01*
X0079078Y0030483D01*
X0079189Y0030412D01*
X0079298Y0030338D01*
X0079404Y0030261D01*
X0079508Y0030180D01*
X0079609Y0030097D01*
X0079708Y0030010D01*
X0079804Y0029920D01*
X0079897Y0029827D01*
X0079988Y0029732D01*
X0080075Y0029634D01*
X0080160Y0029533D01*
X0080241Y0029430D01*
X0080319Y0029324D01*
X0080394Y0029216D01*
X0080466Y0029106D01*
X0080534Y0028994D01*
X0080599Y0028880D01*
X0080660Y0028763D01*
X0080718Y0028645D01*
X0080772Y0028525D01*
X0080823Y0028404D01*
X0080870Y0028281D01*
X0080913Y0028157D01*
X0080952Y0028032D01*
X0080988Y0027905D01*
X0081019Y0027777D01*
X0081047Y0027649D01*
X0081071Y0027520D01*
X0081091Y0027390D01*
X0081107Y0027259D01*
X0081119Y0027128D01*
X0081127Y0026997D01*
X0081131Y0026866D01*
X0081131Y0026734D01*
X0081127Y0026603D01*
X0081119Y0026472D01*
X0081107Y0026341D01*
X0081091Y0026210D01*
X0081071Y0026080D01*
X0081047Y0025951D01*
X0081019Y0025823D01*
X0080988Y0025695D01*
X0080952Y0025568D01*
X0080913Y0025443D01*
X0080870Y0025319D01*
X0080823Y0025196D01*
X0080772Y0025075D01*
X0080718Y0024955D01*
X0080660Y0024837D01*
X0080599Y0024720D01*
X0080534Y0024606D01*
X0080466Y0024494D01*
X0080394Y0024384D01*
X0080319Y0024276D01*
X0080241Y0024170D01*
X0080160Y0024067D01*
X0080075Y0023966D01*
X0079988Y0023868D01*
X0079897Y0023773D01*
X0079804Y0023680D01*
X0079708Y0023590D01*
X0079609Y0023503D01*
X0079508Y0023420D01*
X0079404Y0023339D01*
X0079298Y0023262D01*
X0079189Y0023188D01*
X0079078Y0023117D01*
X0078966Y0023049D01*
X0078851Y0022985D01*
X0078734Y0022925D01*
X0078615Y0022868D01*
X0078495Y0022815D01*
X0078374Y0022765D01*
X0078250Y0022719D01*
X0078126Y0022677D01*
X0078000Y0022639D01*
X0077873Y0022604D01*
X0077745Y0022573D01*
X0077617Y0022547D01*
X0077487Y0022524D01*
X0077357Y0022505D01*
X0077227Y0022490D01*
X0077096Y0022479D01*
X0076964Y0022472D01*
X0076833Y0022469D01*
X0076701Y0022470D01*
X0076570Y0022475D01*
X0076439Y0022484D01*
X0076308Y0022497D01*
X0076178Y0022514D01*
X0076048Y0022535D01*
X0075919Y0022560D01*
X0075791Y0022588D01*
X0075663Y0022621D01*
X0075537Y0022657D01*
X0075412Y0022698D01*
X0075288Y0022742D01*
X0075165Y0022789D01*
X0075044Y0022841D01*
X0074925Y0022896D01*
X0074807Y0022955D01*
X0074692Y0023017D01*
X0074578Y0023083D01*
X0074466Y0023152D01*
X0074356Y0023224D01*
X0074249Y0023300D01*
X0074144Y0023379D01*
X0074041Y0023461D01*
X0073941Y0023546D01*
X0073844Y0023635D01*
X0073749Y0023726D01*
X0073657Y0023820D01*
X0073568Y0023917D01*
X0073482Y0024016D01*
X0073399Y0024118D01*
X0073319Y0024223D01*
X0073243Y0024329D01*
X0073170Y0024438D01*
X0073100Y0024550D01*
X0073033Y0024663D01*
X0072970Y0024778D01*
X0072910Y0024896D01*
X0072854Y0025014D01*
X0072802Y0025135D01*
X0072753Y0025257D01*
X0072708Y0025381D01*
X0072667Y0025505D01*
X0072630Y0025632D01*
X0072596Y0025759D01*
X0072566Y0025887D01*
X0072541Y0026016D01*
X0072519Y0026145D01*
X0072501Y0026275D01*
X0072487Y0026406D01*
X0072477Y0026537D01*
X0072471Y0026669D01*
X0072469Y0026800D01*
X0122469Y0026800D02*
X0122471Y0026931D01*
X0122477Y0027063D01*
X0122487Y0027194D01*
X0122501Y0027325D01*
X0122519Y0027455D01*
X0122541Y0027584D01*
X0122566Y0027713D01*
X0122596Y0027841D01*
X0122630Y0027968D01*
X0122667Y0028095D01*
X0122708Y0028219D01*
X0122753Y0028343D01*
X0122802Y0028465D01*
X0122854Y0028586D01*
X0122910Y0028704D01*
X0122970Y0028822D01*
X0123033Y0028937D01*
X0123100Y0029050D01*
X0123170Y0029162D01*
X0123243Y0029271D01*
X0123319Y0029377D01*
X0123399Y0029482D01*
X0123482Y0029584D01*
X0123568Y0029683D01*
X0123657Y0029780D01*
X0123749Y0029874D01*
X0123844Y0029965D01*
X0123941Y0030054D01*
X0124041Y0030139D01*
X0124144Y0030221D01*
X0124249Y0030300D01*
X0124356Y0030376D01*
X0124466Y0030448D01*
X0124578Y0030517D01*
X0124692Y0030583D01*
X0124807Y0030645D01*
X0124925Y0030704D01*
X0125044Y0030759D01*
X0125165Y0030811D01*
X0125288Y0030858D01*
X0125412Y0030902D01*
X0125537Y0030943D01*
X0125663Y0030979D01*
X0125791Y0031012D01*
X0125919Y0031040D01*
X0126048Y0031065D01*
X0126178Y0031086D01*
X0126308Y0031103D01*
X0126439Y0031116D01*
X0126570Y0031125D01*
X0126701Y0031130D01*
X0126833Y0031131D01*
X0126964Y0031128D01*
X0127096Y0031121D01*
X0127227Y0031110D01*
X0127357Y0031095D01*
X0127487Y0031076D01*
X0127617Y0031053D01*
X0127745Y0031027D01*
X0127873Y0030996D01*
X0128000Y0030961D01*
X0128126Y0030923D01*
X0128250Y0030881D01*
X0128374Y0030835D01*
X0128495Y0030785D01*
X0128615Y0030732D01*
X0128734Y0030675D01*
X0128851Y0030615D01*
X0128965Y0030551D01*
X0129078Y0030483D01*
X0129189Y0030412D01*
X0129298Y0030338D01*
X0129404Y0030261D01*
X0129508Y0030180D01*
X0129609Y0030097D01*
X0129708Y0030010D01*
X0129804Y0029920D01*
X0129897Y0029827D01*
X0129988Y0029732D01*
X0130075Y0029634D01*
X0130160Y0029533D01*
X0130241Y0029430D01*
X0130319Y0029324D01*
X0130394Y0029216D01*
X0130466Y0029106D01*
X0130534Y0028994D01*
X0130599Y0028880D01*
X0130660Y0028763D01*
X0130718Y0028645D01*
X0130772Y0028525D01*
X0130823Y0028404D01*
X0130870Y0028281D01*
X0130913Y0028157D01*
X0130952Y0028032D01*
X0130988Y0027905D01*
X0131019Y0027777D01*
X0131047Y0027649D01*
X0131071Y0027520D01*
X0131091Y0027390D01*
X0131107Y0027259D01*
X0131119Y0027128D01*
X0131127Y0026997D01*
X0131131Y0026866D01*
X0131131Y0026734D01*
X0131127Y0026603D01*
X0131119Y0026472D01*
X0131107Y0026341D01*
X0131091Y0026210D01*
X0131071Y0026080D01*
X0131047Y0025951D01*
X0131019Y0025823D01*
X0130988Y0025695D01*
X0130952Y0025568D01*
X0130913Y0025443D01*
X0130870Y0025319D01*
X0130823Y0025196D01*
X0130772Y0025075D01*
X0130718Y0024955D01*
X0130660Y0024837D01*
X0130599Y0024720D01*
X0130534Y0024606D01*
X0130466Y0024494D01*
X0130394Y0024384D01*
X0130319Y0024276D01*
X0130241Y0024170D01*
X0130160Y0024067D01*
X0130075Y0023966D01*
X0129988Y0023868D01*
X0129897Y0023773D01*
X0129804Y0023680D01*
X0129708Y0023590D01*
X0129609Y0023503D01*
X0129508Y0023420D01*
X0129404Y0023339D01*
X0129298Y0023262D01*
X0129189Y0023188D01*
X0129078Y0023117D01*
X0128966Y0023049D01*
X0128851Y0022985D01*
X0128734Y0022925D01*
X0128615Y0022868D01*
X0128495Y0022815D01*
X0128374Y0022765D01*
X0128250Y0022719D01*
X0128126Y0022677D01*
X0128000Y0022639D01*
X0127873Y0022604D01*
X0127745Y0022573D01*
X0127617Y0022547D01*
X0127487Y0022524D01*
X0127357Y0022505D01*
X0127227Y0022490D01*
X0127096Y0022479D01*
X0126964Y0022472D01*
X0126833Y0022469D01*
X0126701Y0022470D01*
X0126570Y0022475D01*
X0126439Y0022484D01*
X0126308Y0022497D01*
X0126178Y0022514D01*
X0126048Y0022535D01*
X0125919Y0022560D01*
X0125791Y0022588D01*
X0125663Y0022621D01*
X0125537Y0022657D01*
X0125412Y0022698D01*
X0125288Y0022742D01*
X0125165Y0022789D01*
X0125044Y0022841D01*
X0124925Y0022896D01*
X0124807Y0022955D01*
X0124692Y0023017D01*
X0124578Y0023083D01*
X0124466Y0023152D01*
X0124356Y0023224D01*
X0124249Y0023300D01*
X0124144Y0023379D01*
X0124041Y0023461D01*
X0123941Y0023546D01*
X0123844Y0023635D01*
X0123749Y0023726D01*
X0123657Y0023820D01*
X0123568Y0023917D01*
X0123482Y0024016D01*
X0123399Y0024118D01*
X0123319Y0024223D01*
X0123243Y0024329D01*
X0123170Y0024438D01*
X0123100Y0024550D01*
X0123033Y0024663D01*
X0122970Y0024778D01*
X0122910Y0024896D01*
X0122854Y0025014D01*
X0122802Y0025135D01*
X0122753Y0025257D01*
X0122708Y0025381D01*
X0122667Y0025505D01*
X0122630Y0025632D01*
X0122596Y0025759D01*
X0122566Y0025887D01*
X0122541Y0026016D01*
X0122519Y0026145D01*
X0122501Y0026275D01*
X0122487Y0026406D01*
X0122477Y0026537D01*
X0122471Y0026669D01*
X0122469Y0026800D01*
X0172469Y0026800D02*
X0172471Y0026931D01*
X0172477Y0027063D01*
X0172487Y0027194D01*
X0172501Y0027325D01*
X0172519Y0027455D01*
X0172541Y0027584D01*
X0172566Y0027713D01*
X0172596Y0027841D01*
X0172630Y0027968D01*
X0172667Y0028095D01*
X0172708Y0028219D01*
X0172753Y0028343D01*
X0172802Y0028465D01*
X0172854Y0028586D01*
X0172910Y0028704D01*
X0172970Y0028822D01*
X0173033Y0028937D01*
X0173100Y0029050D01*
X0173170Y0029162D01*
X0173243Y0029271D01*
X0173319Y0029377D01*
X0173399Y0029482D01*
X0173482Y0029584D01*
X0173568Y0029683D01*
X0173657Y0029780D01*
X0173749Y0029874D01*
X0173844Y0029965D01*
X0173941Y0030054D01*
X0174041Y0030139D01*
X0174144Y0030221D01*
X0174249Y0030300D01*
X0174356Y0030376D01*
X0174466Y0030448D01*
X0174578Y0030517D01*
X0174692Y0030583D01*
X0174807Y0030645D01*
X0174925Y0030704D01*
X0175044Y0030759D01*
X0175165Y0030811D01*
X0175288Y0030858D01*
X0175412Y0030902D01*
X0175537Y0030943D01*
X0175663Y0030979D01*
X0175791Y0031012D01*
X0175919Y0031040D01*
X0176048Y0031065D01*
X0176178Y0031086D01*
X0176308Y0031103D01*
X0176439Y0031116D01*
X0176570Y0031125D01*
X0176701Y0031130D01*
X0176833Y0031131D01*
X0176964Y0031128D01*
X0177096Y0031121D01*
X0177227Y0031110D01*
X0177357Y0031095D01*
X0177487Y0031076D01*
X0177617Y0031053D01*
X0177745Y0031027D01*
X0177873Y0030996D01*
X0178000Y0030961D01*
X0178126Y0030923D01*
X0178250Y0030881D01*
X0178374Y0030835D01*
X0178495Y0030785D01*
X0178615Y0030732D01*
X0178734Y0030675D01*
X0178851Y0030615D01*
X0178965Y0030551D01*
X0179078Y0030483D01*
X0179189Y0030412D01*
X0179298Y0030338D01*
X0179404Y0030261D01*
X0179508Y0030180D01*
X0179609Y0030097D01*
X0179708Y0030010D01*
X0179804Y0029920D01*
X0179897Y0029827D01*
X0179988Y0029732D01*
X0180075Y0029634D01*
X0180160Y0029533D01*
X0180241Y0029430D01*
X0180319Y0029324D01*
X0180394Y0029216D01*
X0180466Y0029106D01*
X0180534Y0028994D01*
X0180599Y0028880D01*
X0180660Y0028763D01*
X0180718Y0028645D01*
X0180772Y0028525D01*
X0180823Y0028404D01*
X0180870Y0028281D01*
X0180913Y0028157D01*
X0180952Y0028032D01*
X0180988Y0027905D01*
X0181019Y0027777D01*
X0181047Y0027649D01*
X0181071Y0027520D01*
X0181091Y0027390D01*
X0181107Y0027259D01*
X0181119Y0027128D01*
X0181127Y0026997D01*
X0181131Y0026866D01*
X0181131Y0026734D01*
X0181127Y0026603D01*
X0181119Y0026472D01*
X0181107Y0026341D01*
X0181091Y0026210D01*
X0181071Y0026080D01*
X0181047Y0025951D01*
X0181019Y0025823D01*
X0180988Y0025695D01*
X0180952Y0025568D01*
X0180913Y0025443D01*
X0180870Y0025319D01*
X0180823Y0025196D01*
X0180772Y0025075D01*
X0180718Y0024955D01*
X0180660Y0024837D01*
X0180599Y0024720D01*
X0180534Y0024606D01*
X0180466Y0024494D01*
X0180394Y0024384D01*
X0180319Y0024276D01*
X0180241Y0024170D01*
X0180160Y0024067D01*
X0180075Y0023966D01*
X0179988Y0023868D01*
X0179897Y0023773D01*
X0179804Y0023680D01*
X0179708Y0023590D01*
X0179609Y0023503D01*
X0179508Y0023420D01*
X0179404Y0023339D01*
X0179298Y0023262D01*
X0179189Y0023188D01*
X0179078Y0023117D01*
X0178966Y0023049D01*
X0178851Y0022985D01*
X0178734Y0022925D01*
X0178615Y0022868D01*
X0178495Y0022815D01*
X0178374Y0022765D01*
X0178250Y0022719D01*
X0178126Y0022677D01*
X0178000Y0022639D01*
X0177873Y0022604D01*
X0177745Y0022573D01*
X0177617Y0022547D01*
X0177487Y0022524D01*
X0177357Y0022505D01*
X0177227Y0022490D01*
X0177096Y0022479D01*
X0176964Y0022472D01*
X0176833Y0022469D01*
X0176701Y0022470D01*
X0176570Y0022475D01*
X0176439Y0022484D01*
X0176308Y0022497D01*
X0176178Y0022514D01*
X0176048Y0022535D01*
X0175919Y0022560D01*
X0175791Y0022588D01*
X0175663Y0022621D01*
X0175537Y0022657D01*
X0175412Y0022698D01*
X0175288Y0022742D01*
X0175165Y0022789D01*
X0175044Y0022841D01*
X0174925Y0022896D01*
X0174807Y0022955D01*
X0174692Y0023017D01*
X0174578Y0023083D01*
X0174466Y0023152D01*
X0174356Y0023224D01*
X0174249Y0023300D01*
X0174144Y0023379D01*
X0174041Y0023461D01*
X0173941Y0023546D01*
X0173844Y0023635D01*
X0173749Y0023726D01*
X0173657Y0023820D01*
X0173568Y0023917D01*
X0173482Y0024016D01*
X0173399Y0024118D01*
X0173319Y0024223D01*
X0173243Y0024329D01*
X0173170Y0024438D01*
X0173100Y0024550D01*
X0173033Y0024663D01*
X0172970Y0024778D01*
X0172910Y0024896D01*
X0172854Y0025014D01*
X0172802Y0025135D01*
X0172753Y0025257D01*
X0172708Y0025381D01*
X0172667Y0025505D01*
X0172630Y0025632D01*
X0172596Y0025759D01*
X0172566Y0025887D01*
X0172541Y0026016D01*
X0172519Y0026145D01*
X0172501Y0026275D01*
X0172487Y0026406D01*
X0172477Y0026537D01*
X0172471Y0026669D01*
X0172469Y0026800D01*
X0222469Y0026800D02*
X0222471Y0026931D01*
X0222477Y0027063D01*
X0222487Y0027194D01*
X0222501Y0027325D01*
X0222519Y0027455D01*
X0222541Y0027584D01*
X0222566Y0027713D01*
X0222596Y0027841D01*
X0222630Y0027968D01*
X0222667Y0028095D01*
X0222708Y0028219D01*
X0222753Y0028343D01*
X0222802Y0028465D01*
X0222854Y0028586D01*
X0222910Y0028704D01*
X0222970Y0028822D01*
X0223033Y0028937D01*
X0223100Y0029050D01*
X0223170Y0029162D01*
X0223243Y0029271D01*
X0223319Y0029377D01*
X0223399Y0029482D01*
X0223482Y0029584D01*
X0223568Y0029683D01*
X0223657Y0029780D01*
X0223749Y0029874D01*
X0223844Y0029965D01*
X0223941Y0030054D01*
X0224041Y0030139D01*
X0224144Y0030221D01*
X0224249Y0030300D01*
X0224356Y0030376D01*
X0224466Y0030448D01*
X0224578Y0030517D01*
X0224692Y0030583D01*
X0224807Y0030645D01*
X0224925Y0030704D01*
X0225044Y0030759D01*
X0225165Y0030811D01*
X0225288Y0030858D01*
X0225412Y0030902D01*
X0225537Y0030943D01*
X0225663Y0030979D01*
X0225791Y0031012D01*
X0225919Y0031040D01*
X0226048Y0031065D01*
X0226178Y0031086D01*
X0226308Y0031103D01*
X0226439Y0031116D01*
X0226570Y0031125D01*
X0226701Y0031130D01*
X0226833Y0031131D01*
X0226964Y0031128D01*
X0227096Y0031121D01*
X0227227Y0031110D01*
X0227357Y0031095D01*
X0227487Y0031076D01*
X0227617Y0031053D01*
X0227745Y0031027D01*
X0227873Y0030996D01*
X0228000Y0030961D01*
X0228126Y0030923D01*
X0228250Y0030881D01*
X0228374Y0030835D01*
X0228495Y0030785D01*
X0228615Y0030732D01*
X0228734Y0030675D01*
X0228851Y0030615D01*
X0228965Y0030551D01*
X0229078Y0030483D01*
X0229189Y0030412D01*
X0229298Y0030338D01*
X0229404Y0030261D01*
X0229508Y0030180D01*
X0229609Y0030097D01*
X0229708Y0030010D01*
X0229804Y0029920D01*
X0229897Y0029827D01*
X0229988Y0029732D01*
X0230075Y0029634D01*
X0230160Y0029533D01*
X0230241Y0029430D01*
X0230319Y0029324D01*
X0230394Y0029216D01*
X0230466Y0029106D01*
X0230534Y0028994D01*
X0230599Y0028880D01*
X0230660Y0028763D01*
X0230718Y0028645D01*
X0230772Y0028525D01*
X0230823Y0028404D01*
X0230870Y0028281D01*
X0230913Y0028157D01*
X0230952Y0028032D01*
X0230988Y0027905D01*
X0231019Y0027777D01*
X0231047Y0027649D01*
X0231071Y0027520D01*
X0231091Y0027390D01*
X0231107Y0027259D01*
X0231119Y0027128D01*
X0231127Y0026997D01*
X0231131Y0026866D01*
X0231131Y0026734D01*
X0231127Y0026603D01*
X0231119Y0026472D01*
X0231107Y0026341D01*
X0231091Y0026210D01*
X0231071Y0026080D01*
X0231047Y0025951D01*
X0231019Y0025823D01*
X0230988Y0025695D01*
X0230952Y0025568D01*
X0230913Y0025443D01*
X0230870Y0025319D01*
X0230823Y0025196D01*
X0230772Y0025075D01*
X0230718Y0024955D01*
X0230660Y0024837D01*
X0230599Y0024720D01*
X0230534Y0024606D01*
X0230466Y0024494D01*
X0230394Y0024384D01*
X0230319Y0024276D01*
X0230241Y0024170D01*
X0230160Y0024067D01*
X0230075Y0023966D01*
X0229988Y0023868D01*
X0229897Y0023773D01*
X0229804Y0023680D01*
X0229708Y0023590D01*
X0229609Y0023503D01*
X0229508Y0023420D01*
X0229404Y0023339D01*
X0229298Y0023262D01*
X0229189Y0023188D01*
X0229078Y0023117D01*
X0228966Y0023049D01*
X0228851Y0022985D01*
X0228734Y0022925D01*
X0228615Y0022868D01*
X0228495Y0022815D01*
X0228374Y0022765D01*
X0228250Y0022719D01*
X0228126Y0022677D01*
X0228000Y0022639D01*
X0227873Y0022604D01*
X0227745Y0022573D01*
X0227617Y0022547D01*
X0227487Y0022524D01*
X0227357Y0022505D01*
X0227227Y0022490D01*
X0227096Y0022479D01*
X0226964Y0022472D01*
X0226833Y0022469D01*
X0226701Y0022470D01*
X0226570Y0022475D01*
X0226439Y0022484D01*
X0226308Y0022497D01*
X0226178Y0022514D01*
X0226048Y0022535D01*
X0225919Y0022560D01*
X0225791Y0022588D01*
X0225663Y0022621D01*
X0225537Y0022657D01*
X0225412Y0022698D01*
X0225288Y0022742D01*
X0225165Y0022789D01*
X0225044Y0022841D01*
X0224925Y0022896D01*
X0224807Y0022955D01*
X0224692Y0023017D01*
X0224578Y0023083D01*
X0224466Y0023152D01*
X0224356Y0023224D01*
X0224249Y0023300D01*
X0224144Y0023379D01*
X0224041Y0023461D01*
X0223941Y0023546D01*
X0223844Y0023635D01*
X0223749Y0023726D01*
X0223657Y0023820D01*
X0223568Y0023917D01*
X0223482Y0024016D01*
X0223399Y0024118D01*
X0223319Y0024223D01*
X0223243Y0024329D01*
X0223170Y0024438D01*
X0223100Y0024550D01*
X0223033Y0024663D01*
X0222970Y0024778D01*
X0222910Y0024896D01*
X0222854Y0025014D01*
X0222802Y0025135D01*
X0222753Y0025257D01*
X0222708Y0025381D01*
X0222667Y0025505D01*
X0222630Y0025632D01*
X0222596Y0025759D01*
X0222566Y0025887D01*
X0222541Y0026016D01*
X0222519Y0026145D01*
X0222501Y0026275D01*
X0222487Y0026406D01*
X0222477Y0026537D01*
X0222471Y0026669D01*
X0222469Y0026800D01*
X0282469Y0026800D02*
X0282471Y0026931D01*
X0282477Y0027063D01*
X0282487Y0027194D01*
X0282501Y0027325D01*
X0282519Y0027455D01*
X0282541Y0027584D01*
X0282566Y0027713D01*
X0282596Y0027841D01*
X0282630Y0027968D01*
X0282667Y0028095D01*
X0282708Y0028219D01*
X0282753Y0028343D01*
X0282802Y0028465D01*
X0282854Y0028586D01*
X0282910Y0028704D01*
X0282970Y0028822D01*
X0283033Y0028937D01*
X0283100Y0029050D01*
X0283170Y0029162D01*
X0283243Y0029271D01*
X0283319Y0029377D01*
X0283399Y0029482D01*
X0283482Y0029584D01*
X0283568Y0029683D01*
X0283657Y0029780D01*
X0283749Y0029874D01*
X0283844Y0029965D01*
X0283941Y0030054D01*
X0284041Y0030139D01*
X0284144Y0030221D01*
X0284249Y0030300D01*
X0284356Y0030376D01*
X0284466Y0030448D01*
X0284578Y0030517D01*
X0284692Y0030583D01*
X0284807Y0030645D01*
X0284925Y0030704D01*
X0285044Y0030759D01*
X0285165Y0030811D01*
X0285288Y0030858D01*
X0285412Y0030902D01*
X0285537Y0030943D01*
X0285663Y0030979D01*
X0285791Y0031012D01*
X0285919Y0031040D01*
X0286048Y0031065D01*
X0286178Y0031086D01*
X0286308Y0031103D01*
X0286439Y0031116D01*
X0286570Y0031125D01*
X0286701Y0031130D01*
X0286833Y0031131D01*
X0286964Y0031128D01*
X0287096Y0031121D01*
X0287227Y0031110D01*
X0287357Y0031095D01*
X0287487Y0031076D01*
X0287617Y0031053D01*
X0287745Y0031027D01*
X0287873Y0030996D01*
X0288000Y0030961D01*
X0288126Y0030923D01*
X0288250Y0030881D01*
X0288374Y0030835D01*
X0288495Y0030785D01*
X0288615Y0030732D01*
X0288734Y0030675D01*
X0288851Y0030615D01*
X0288965Y0030551D01*
X0289078Y0030483D01*
X0289189Y0030412D01*
X0289298Y0030338D01*
X0289404Y0030261D01*
X0289508Y0030180D01*
X0289609Y0030097D01*
X0289708Y0030010D01*
X0289804Y0029920D01*
X0289897Y0029827D01*
X0289988Y0029732D01*
X0290075Y0029634D01*
X0290160Y0029533D01*
X0290241Y0029430D01*
X0290319Y0029324D01*
X0290394Y0029216D01*
X0290466Y0029106D01*
X0290534Y0028994D01*
X0290599Y0028880D01*
X0290660Y0028763D01*
X0290718Y0028645D01*
X0290772Y0028525D01*
X0290823Y0028404D01*
X0290870Y0028281D01*
X0290913Y0028157D01*
X0290952Y0028032D01*
X0290988Y0027905D01*
X0291019Y0027777D01*
X0291047Y0027649D01*
X0291071Y0027520D01*
X0291091Y0027390D01*
X0291107Y0027259D01*
X0291119Y0027128D01*
X0291127Y0026997D01*
X0291131Y0026866D01*
X0291131Y0026734D01*
X0291127Y0026603D01*
X0291119Y0026472D01*
X0291107Y0026341D01*
X0291091Y0026210D01*
X0291071Y0026080D01*
X0291047Y0025951D01*
X0291019Y0025823D01*
X0290988Y0025695D01*
X0290952Y0025568D01*
X0290913Y0025443D01*
X0290870Y0025319D01*
X0290823Y0025196D01*
X0290772Y0025075D01*
X0290718Y0024955D01*
X0290660Y0024837D01*
X0290599Y0024720D01*
X0290534Y0024606D01*
X0290466Y0024494D01*
X0290394Y0024384D01*
X0290319Y0024276D01*
X0290241Y0024170D01*
X0290160Y0024067D01*
X0290075Y0023966D01*
X0289988Y0023868D01*
X0289897Y0023773D01*
X0289804Y0023680D01*
X0289708Y0023590D01*
X0289609Y0023503D01*
X0289508Y0023420D01*
X0289404Y0023339D01*
X0289298Y0023262D01*
X0289189Y0023188D01*
X0289078Y0023117D01*
X0288966Y0023049D01*
X0288851Y0022985D01*
X0288734Y0022925D01*
X0288615Y0022868D01*
X0288495Y0022815D01*
X0288374Y0022765D01*
X0288250Y0022719D01*
X0288126Y0022677D01*
X0288000Y0022639D01*
X0287873Y0022604D01*
X0287745Y0022573D01*
X0287617Y0022547D01*
X0287487Y0022524D01*
X0287357Y0022505D01*
X0287227Y0022490D01*
X0287096Y0022479D01*
X0286964Y0022472D01*
X0286833Y0022469D01*
X0286701Y0022470D01*
X0286570Y0022475D01*
X0286439Y0022484D01*
X0286308Y0022497D01*
X0286178Y0022514D01*
X0286048Y0022535D01*
X0285919Y0022560D01*
X0285791Y0022588D01*
X0285663Y0022621D01*
X0285537Y0022657D01*
X0285412Y0022698D01*
X0285288Y0022742D01*
X0285165Y0022789D01*
X0285044Y0022841D01*
X0284925Y0022896D01*
X0284807Y0022955D01*
X0284692Y0023017D01*
X0284578Y0023083D01*
X0284466Y0023152D01*
X0284356Y0023224D01*
X0284249Y0023300D01*
X0284144Y0023379D01*
X0284041Y0023461D01*
X0283941Y0023546D01*
X0283844Y0023635D01*
X0283749Y0023726D01*
X0283657Y0023820D01*
X0283568Y0023917D01*
X0283482Y0024016D01*
X0283399Y0024118D01*
X0283319Y0024223D01*
X0283243Y0024329D01*
X0283170Y0024438D01*
X0283100Y0024550D01*
X0283033Y0024663D01*
X0282970Y0024778D01*
X0282910Y0024896D01*
X0282854Y0025014D01*
X0282802Y0025135D01*
X0282753Y0025257D01*
X0282708Y0025381D01*
X0282667Y0025505D01*
X0282630Y0025632D01*
X0282596Y0025759D01*
X0282566Y0025887D01*
X0282541Y0026016D01*
X0282519Y0026145D01*
X0282501Y0026275D01*
X0282487Y0026406D01*
X0282477Y0026537D01*
X0282471Y0026669D01*
X0282469Y0026800D01*
M02*
