G75*
%MOIN*%
%OFA0B0*%
%FSLAX25Y25*%
%IPPOS*%
%LPD*%
%AMOC8*
5,1,8,0,0,1.08239X$1,22.5*
%
%ADD10C,0.00800*%
%ADD11C,0.00000*%
D10*
X0001400Y0001400D02*
X0001400Y0421400D01*
X0273900Y0421400D01*
X0273900Y0001400D01*
X0001400Y0001400D01*
D11*
X0030819Y0026400D02*
X0030821Y0026531D01*
X0030827Y0026663D01*
X0030837Y0026794D01*
X0030851Y0026925D01*
X0030869Y0027055D01*
X0030891Y0027184D01*
X0030916Y0027313D01*
X0030946Y0027441D01*
X0030980Y0027568D01*
X0031017Y0027695D01*
X0031058Y0027819D01*
X0031103Y0027943D01*
X0031152Y0028065D01*
X0031204Y0028186D01*
X0031260Y0028304D01*
X0031320Y0028422D01*
X0031383Y0028537D01*
X0031450Y0028650D01*
X0031520Y0028762D01*
X0031593Y0028871D01*
X0031669Y0028977D01*
X0031749Y0029082D01*
X0031832Y0029184D01*
X0031918Y0029283D01*
X0032007Y0029380D01*
X0032099Y0029474D01*
X0032194Y0029565D01*
X0032291Y0029654D01*
X0032391Y0029739D01*
X0032494Y0029821D01*
X0032599Y0029900D01*
X0032706Y0029976D01*
X0032816Y0030048D01*
X0032928Y0030117D01*
X0033042Y0030183D01*
X0033157Y0030245D01*
X0033275Y0030304D01*
X0033394Y0030359D01*
X0033515Y0030411D01*
X0033638Y0030458D01*
X0033762Y0030502D01*
X0033887Y0030543D01*
X0034013Y0030579D01*
X0034141Y0030612D01*
X0034269Y0030640D01*
X0034398Y0030665D01*
X0034528Y0030686D01*
X0034658Y0030703D01*
X0034789Y0030716D01*
X0034920Y0030725D01*
X0035051Y0030730D01*
X0035183Y0030731D01*
X0035314Y0030728D01*
X0035446Y0030721D01*
X0035577Y0030710D01*
X0035707Y0030695D01*
X0035837Y0030676D01*
X0035967Y0030653D01*
X0036095Y0030627D01*
X0036223Y0030596D01*
X0036350Y0030561D01*
X0036476Y0030523D01*
X0036600Y0030481D01*
X0036724Y0030435D01*
X0036845Y0030385D01*
X0036965Y0030332D01*
X0037084Y0030275D01*
X0037201Y0030215D01*
X0037315Y0030151D01*
X0037428Y0030083D01*
X0037539Y0030012D01*
X0037648Y0029938D01*
X0037754Y0029861D01*
X0037858Y0029780D01*
X0037959Y0029697D01*
X0038058Y0029610D01*
X0038154Y0029520D01*
X0038247Y0029427D01*
X0038338Y0029332D01*
X0038425Y0029234D01*
X0038510Y0029133D01*
X0038591Y0029030D01*
X0038669Y0028924D01*
X0038744Y0028816D01*
X0038816Y0028706D01*
X0038884Y0028594D01*
X0038949Y0028480D01*
X0039010Y0028363D01*
X0039068Y0028245D01*
X0039122Y0028125D01*
X0039173Y0028004D01*
X0039220Y0027881D01*
X0039263Y0027757D01*
X0039302Y0027632D01*
X0039338Y0027505D01*
X0039369Y0027377D01*
X0039397Y0027249D01*
X0039421Y0027120D01*
X0039441Y0026990D01*
X0039457Y0026859D01*
X0039469Y0026728D01*
X0039477Y0026597D01*
X0039481Y0026466D01*
X0039481Y0026334D01*
X0039477Y0026203D01*
X0039469Y0026072D01*
X0039457Y0025941D01*
X0039441Y0025810D01*
X0039421Y0025680D01*
X0039397Y0025551D01*
X0039369Y0025423D01*
X0039338Y0025295D01*
X0039302Y0025168D01*
X0039263Y0025043D01*
X0039220Y0024919D01*
X0039173Y0024796D01*
X0039122Y0024675D01*
X0039068Y0024555D01*
X0039010Y0024437D01*
X0038949Y0024320D01*
X0038884Y0024206D01*
X0038816Y0024094D01*
X0038744Y0023984D01*
X0038669Y0023876D01*
X0038591Y0023770D01*
X0038510Y0023667D01*
X0038425Y0023566D01*
X0038338Y0023468D01*
X0038247Y0023373D01*
X0038154Y0023280D01*
X0038058Y0023190D01*
X0037959Y0023103D01*
X0037858Y0023020D01*
X0037754Y0022939D01*
X0037648Y0022862D01*
X0037539Y0022788D01*
X0037428Y0022717D01*
X0037316Y0022649D01*
X0037201Y0022585D01*
X0037084Y0022525D01*
X0036965Y0022468D01*
X0036845Y0022415D01*
X0036724Y0022365D01*
X0036600Y0022319D01*
X0036476Y0022277D01*
X0036350Y0022239D01*
X0036223Y0022204D01*
X0036095Y0022173D01*
X0035967Y0022147D01*
X0035837Y0022124D01*
X0035707Y0022105D01*
X0035577Y0022090D01*
X0035446Y0022079D01*
X0035314Y0022072D01*
X0035183Y0022069D01*
X0035051Y0022070D01*
X0034920Y0022075D01*
X0034789Y0022084D01*
X0034658Y0022097D01*
X0034528Y0022114D01*
X0034398Y0022135D01*
X0034269Y0022160D01*
X0034141Y0022188D01*
X0034013Y0022221D01*
X0033887Y0022257D01*
X0033762Y0022298D01*
X0033638Y0022342D01*
X0033515Y0022389D01*
X0033394Y0022441D01*
X0033275Y0022496D01*
X0033157Y0022555D01*
X0033042Y0022617D01*
X0032928Y0022683D01*
X0032816Y0022752D01*
X0032706Y0022824D01*
X0032599Y0022900D01*
X0032494Y0022979D01*
X0032391Y0023061D01*
X0032291Y0023146D01*
X0032194Y0023235D01*
X0032099Y0023326D01*
X0032007Y0023420D01*
X0031918Y0023517D01*
X0031832Y0023616D01*
X0031749Y0023718D01*
X0031669Y0023823D01*
X0031593Y0023929D01*
X0031520Y0024038D01*
X0031450Y0024150D01*
X0031383Y0024263D01*
X0031320Y0024378D01*
X0031260Y0024496D01*
X0031204Y0024614D01*
X0031152Y0024735D01*
X0031103Y0024857D01*
X0031058Y0024981D01*
X0031017Y0025105D01*
X0030980Y0025232D01*
X0030946Y0025359D01*
X0030916Y0025487D01*
X0030891Y0025616D01*
X0030869Y0025745D01*
X0030851Y0025875D01*
X0030837Y0026006D01*
X0030827Y0026137D01*
X0030821Y0026269D01*
X0030819Y0026400D01*
X0030819Y0083900D02*
X0030821Y0084031D01*
X0030827Y0084163D01*
X0030837Y0084294D01*
X0030851Y0084425D01*
X0030869Y0084555D01*
X0030891Y0084684D01*
X0030916Y0084813D01*
X0030946Y0084941D01*
X0030980Y0085068D01*
X0031017Y0085195D01*
X0031058Y0085319D01*
X0031103Y0085443D01*
X0031152Y0085565D01*
X0031204Y0085686D01*
X0031260Y0085804D01*
X0031320Y0085922D01*
X0031383Y0086037D01*
X0031450Y0086150D01*
X0031520Y0086262D01*
X0031593Y0086371D01*
X0031669Y0086477D01*
X0031749Y0086582D01*
X0031832Y0086684D01*
X0031918Y0086783D01*
X0032007Y0086880D01*
X0032099Y0086974D01*
X0032194Y0087065D01*
X0032291Y0087154D01*
X0032391Y0087239D01*
X0032494Y0087321D01*
X0032599Y0087400D01*
X0032706Y0087476D01*
X0032816Y0087548D01*
X0032928Y0087617D01*
X0033042Y0087683D01*
X0033157Y0087745D01*
X0033275Y0087804D01*
X0033394Y0087859D01*
X0033515Y0087911D01*
X0033638Y0087958D01*
X0033762Y0088002D01*
X0033887Y0088043D01*
X0034013Y0088079D01*
X0034141Y0088112D01*
X0034269Y0088140D01*
X0034398Y0088165D01*
X0034528Y0088186D01*
X0034658Y0088203D01*
X0034789Y0088216D01*
X0034920Y0088225D01*
X0035051Y0088230D01*
X0035183Y0088231D01*
X0035314Y0088228D01*
X0035446Y0088221D01*
X0035577Y0088210D01*
X0035707Y0088195D01*
X0035837Y0088176D01*
X0035967Y0088153D01*
X0036095Y0088127D01*
X0036223Y0088096D01*
X0036350Y0088061D01*
X0036476Y0088023D01*
X0036600Y0087981D01*
X0036724Y0087935D01*
X0036845Y0087885D01*
X0036965Y0087832D01*
X0037084Y0087775D01*
X0037201Y0087715D01*
X0037315Y0087651D01*
X0037428Y0087583D01*
X0037539Y0087512D01*
X0037648Y0087438D01*
X0037754Y0087361D01*
X0037858Y0087280D01*
X0037959Y0087197D01*
X0038058Y0087110D01*
X0038154Y0087020D01*
X0038247Y0086927D01*
X0038338Y0086832D01*
X0038425Y0086734D01*
X0038510Y0086633D01*
X0038591Y0086530D01*
X0038669Y0086424D01*
X0038744Y0086316D01*
X0038816Y0086206D01*
X0038884Y0086094D01*
X0038949Y0085980D01*
X0039010Y0085863D01*
X0039068Y0085745D01*
X0039122Y0085625D01*
X0039173Y0085504D01*
X0039220Y0085381D01*
X0039263Y0085257D01*
X0039302Y0085132D01*
X0039338Y0085005D01*
X0039369Y0084877D01*
X0039397Y0084749D01*
X0039421Y0084620D01*
X0039441Y0084490D01*
X0039457Y0084359D01*
X0039469Y0084228D01*
X0039477Y0084097D01*
X0039481Y0083966D01*
X0039481Y0083834D01*
X0039477Y0083703D01*
X0039469Y0083572D01*
X0039457Y0083441D01*
X0039441Y0083310D01*
X0039421Y0083180D01*
X0039397Y0083051D01*
X0039369Y0082923D01*
X0039338Y0082795D01*
X0039302Y0082668D01*
X0039263Y0082543D01*
X0039220Y0082419D01*
X0039173Y0082296D01*
X0039122Y0082175D01*
X0039068Y0082055D01*
X0039010Y0081937D01*
X0038949Y0081820D01*
X0038884Y0081706D01*
X0038816Y0081594D01*
X0038744Y0081484D01*
X0038669Y0081376D01*
X0038591Y0081270D01*
X0038510Y0081167D01*
X0038425Y0081066D01*
X0038338Y0080968D01*
X0038247Y0080873D01*
X0038154Y0080780D01*
X0038058Y0080690D01*
X0037959Y0080603D01*
X0037858Y0080520D01*
X0037754Y0080439D01*
X0037648Y0080362D01*
X0037539Y0080288D01*
X0037428Y0080217D01*
X0037316Y0080149D01*
X0037201Y0080085D01*
X0037084Y0080025D01*
X0036965Y0079968D01*
X0036845Y0079915D01*
X0036724Y0079865D01*
X0036600Y0079819D01*
X0036476Y0079777D01*
X0036350Y0079739D01*
X0036223Y0079704D01*
X0036095Y0079673D01*
X0035967Y0079647D01*
X0035837Y0079624D01*
X0035707Y0079605D01*
X0035577Y0079590D01*
X0035446Y0079579D01*
X0035314Y0079572D01*
X0035183Y0079569D01*
X0035051Y0079570D01*
X0034920Y0079575D01*
X0034789Y0079584D01*
X0034658Y0079597D01*
X0034528Y0079614D01*
X0034398Y0079635D01*
X0034269Y0079660D01*
X0034141Y0079688D01*
X0034013Y0079721D01*
X0033887Y0079757D01*
X0033762Y0079798D01*
X0033638Y0079842D01*
X0033515Y0079889D01*
X0033394Y0079941D01*
X0033275Y0079996D01*
X0033157Y0080055D01*
X0033042Y0080117D01*
X0032928Y0080183D01*
X0032816Y0080252D01*
X0032706Y0080324D01*
X0032599Y0080400D01*
X0032494Y0080479D01*
X0032391Y0080561D01*
X0032291Y0080646D01*
X0032194Y0080735D01*
X0032099Y0080826D01*
X0032007Y0080920D01*
X0031918Y0081017D01*
X0031832Y0081116D01*
X0031749Y0081218D01*
X0031669Y0081323D01*
X0031593Y0081429D01*
X0031520Y0081538D01*
X0031450Y0081650D01*
X0031383Y0081763D01*
X0031320Y0081878D01*
X0031260Y0081996D01*
X0031204Y0082114D01*
X0031152Y0082235D01*
X0031103Y0082357D01*
X0031058Y0082481D01*
X0031017Y0082605D01*
X0030980Y0082732D01*
X0030946Y0082859D01*
X0030916Y0082987D01*
X0030891Y0083116D01*
X0030869Y0083245D01*
X0030851Y0083375D01*
X0030837Y0083506D01*
X0030827Y0083637D01*
X0030821Y0083769D01*
X0030819Y0083900D01*
X0082069Y0083900D02*
X0082071Y0084031D01*
X0082077Y0084163D01*
X0082087Y0084294D01*
X0082101Y0084425D01*
X0082119Y0084555D01*
X0082141Y0084684D01*
X0082166Y0084813D01*
X0082196Y0084941D01*
X0082230Y0085068D01*
X0082267Y0085195D01*
X0082308Y0085319D01*
X0082353Y0085443D01*
X0082402Y0085565D01*
X0082454Y0085686D01*
X0082510Y0085804D01*
X0082570Y0085922D01*
X0082633Y0086037D01*
X0082700Y0086150D01*
X0082770Y0086262D01*
X0082843Y0086371D01*
X0082919Y0086477D01*
X0082999Y0086582D01*
X0083082Y0086684D01*
X0083168Y0086783D01*
X0083257Y0086880D01*
X0083349Y0086974D01*
X0083444Y0087065D01*
X0083541Y0087154D01*
X0083641Y0087239D01*
X0083744Y0087321D01*
X0083849Y0087400D01*
X0083956Y0087476D01*
X0084066Y0087548D01*
X0084178Y0087617D01*
X0084292Y0087683D01*
X0084407Y0087745D01*
X0084525Y0087804D01*
X0084644Y0087859D01*
X0084765Y0087911D01*
X0084888Y0087958D01*
X0085012Y0088002D01*
X0085137Y0088043D01*
X0085263Y0088079D01*
X0085391Y0088112D01*
X0085519Y0088140D01*
X0085648Y0088165D01*
X0085778Y0088186D01*
X0085908Y0088203D01*
X0086039Y0088216D01*
X0086170Y0088225D01*
X0086301Y0088230D01*
X0086433Y0088231D01*
X0086564Y0088228D01*
X0086696Y0088221D01*
X0086827Y0088210D01*
X0086957Y0088195D01*
X0087087Y0088176D01*
X0087217Y0088153D01*
X0087345Y0088127D01*
X0087473Y0088096D01*
X0087600Y0088061D01*
X0087726Y0088023D01*
X0087850Y0087981D01*
X0087974Y0087935D01*
X0088095Y0087885D01*
X0088215Y0087832D01*
X0088334Y0087775D01*
X0088451Y0087715D01*
X0088565Y0087651D01*
X0088678Y0087583D01*
X0088789Y0087512D01*
X0088898Y0087438D01*
X0089004Y0087361D01*
X0089108Y0087280D01*
X0089209Y0087197D01*
X0089308Y0087110D01*
X0089404Y0087020D01*
X0089497Y0086927D01*
X0089588Y0086832D01*
X0089675Y0086734D01*
X0089760Y0086633D01*
X0089841Y0086530D01*
X0089919Y0086424D01*
X0089994Y0086316D01*
X0090066Y0086206D01*
X0090134Y0086094D01*
X0090199Y0085980D01*
X0090260Y0085863D01*
X0090318Y0085745D01*
X0090372Y0085625D01*
X0090423Y0085504D01*
X0090470Y0085381D01*
X0090513Y0085257D01*
X0090552Y0085132D01*
X0090588Y0085005D01*
X0090619Y0084877D01*
X0090647Y0084749D01*
X0090671Y0084620D01*
X0090691Y0084490D01*
X0090707Y0084359D01*
X0090719Y0084228D01*
X0090727Y0084097D01*
X0090731Y0083966D01*
X0090731Y0083834D01*
X0090727Y0083703D01*
X0090719Y0083572D01*
X0090707Y0083441D01*
X0090691Y0083310D01*
X0090671Y0083180D01*
X0090647Y0083051D01*
X0090619Y0082923D01*
X0090588Y0082795D01*
X0090552Y0082668D01*
X0090513Y0082543D01*
X0090470Y0082419D01*
X0090423Y0082296D01*
X0090372Y0082175D01*
X0090318Y0082055D01*
X0090260Y0081937D01*
X0090199Y0081820D01*
X0090134Y0081706D01*
X0090066Y0081594D01*
X0089994Y0081484D01*
X0089919Y0081376D01*
X0089841Y0081270D01*
X0089760Y0081167D01*
X0089675Y0081066D01*
X0089588Y0080968D01*
X0089497Y0080873D01*
X0089404Y0080780D01*
X0089308Y0080690D01*
X0089209Y0080603D01*
X0089108Y0080520D01*
X0089004Y0080439D01*
X0088898Y0080362D01*
X0088789Y0080288D01*
X0088678Y0080217D01*
X0088566Y0080149D01*
X0088451Y0080085D01*
X0088334Y0080025D01*
X0088215Y0079968D01*
X0088095Y0079915D01*
X0087974Y0079865D01*
X0087850Y0079819D01*
X0087726Y0079777D01*
X0087600Y0079739D01*
X0087473Y0079704D01*
X0087345Y0079673D01*
X0087217Y0079647D01*
X0087087Y0079624D01*
X0086957Y0079605D01*
X0086827Y0079590D01*
X0086696Y0079579D01*
X0086564Y0079572D01*
X0086433Y0079569D01*
X0086301Y0079570D01*
X0086170Y0079575D01*
X0086039Y0079584D01*
X0085908Y0079597D01*
X0085778Y0079614D01*
X0085648Y0079635D01*
X0085519Y0079660D01*
X0085391Y0079688D01*
X0085263Y0079721D01*
X0085137Y0079757D01*
X0085012Y0079798D01*
X0084888Y0079842D01*
X0084765Y0079889D01*
X0084644Y0079941D01*
X0084525Y0079996D01*
X0084407Y0080055D01*
X0084292Y0080117D01*
X0084178Y0080183D01*
X0084066Y0080252D01*
X0083956Y0080324D01*
X0083849Y0080400D01*
X0083744Y0080479D01*
X0083641Y0080561D01*
X0083541Y0080646D01*
X0083444Y0080735D01*
X0083349Y0080826D01*
X0083257Y0080920D01*
X0083168Y0081017D01*
X0083082Y0081116D01*
X0082999Y0081218D01*
X0082919Y0081323D01*
X0082843Y0081429D01*
X0082770Y0081538D01*
X0082700Y0081650D01*
X0082633Y0081763D01*
X0082570Y0081878D01*
X0082510Y0081996D01*
X0082454Y0082114D01*
X0082402Y0082235D01*
X0082353Y0082357D01*
X0082308Y0082481D01*
X0082267Y0082605D01*
X0082230Y0082732D01*
X0082196Y0082859D01*
X0082166Y0082987D01*
X0082141Y0083116D01*
X0082119Y0083245D01*
X0082101Y0083375D01*
X0082087Y0083506D01*
X0082077Y0083637D01*
X0082071Y0083769D01*
X0082069Y0083900D01*
X0082069Y0026400D02*
X0082071Y0026531D01*
X0082077Y0026663D01*
X0082087Y0026794D01*
X0082101Y0026925D01*
X0082119Y0027055D01*
X0082141Y0027184D01*
X0082166Y0027313D01*
X0082196Y0027441D01*
X0082230Y0027568D01*
X0082267Y0027695D01*
X0082308Y0027819D01*
X0082353Y0027943D01*
X0082402Y0028065D01*
X0082454Y0028186D01*
X0082510Y0028304D01*
X0082570Y0028422D01*
X0082633Y0028537D01*
X0082700Y0028650D01*
X0082770Y0028762D01*
X0082843Y0028871D01*
X0082919Y0028977D01*
X0082999Y0029082D01*
X0083082Y0029184D01*
X0083168Y0029283D01*
X0083257Y0029380D01*
X0083349Y0029474D01*
X0083444Y0029565D01*
X0083541Y0029654D01*
X0083641Y0029739D01*
X0083744Y0029821D01*
X0083849Y0029900D01*
X0083956Y0029976D01*
X0084066Y0030048D01*
X0084178Y0030117D01*
X0084292Y0030183D01*
X0084407Y0030245D01*
X0084525Y0030304D01*
X0084644Y0030359D01*
X0084765Y0030411D01*
X0084888Y0030458D01*
X0085012Y0030502D01*
X0085137Y0030543D01*
X0085263Y0030579D01*
X0085391Y0030612D01*
X0085519Y0030640D01*
X0085648Y0030665D01*
X0085778Y0030686D01*
X0085908Y0030703D01*
X0086039Y0030716D01*
X0086170Y0030725D01*
X0086301Y0030730D01*
X0086433Y0030731D01*
X0086564Y0030728D01*
X0086696Y0030721D01*
X0086827Y0030710D01*
X0086957Y0030695D01*
X0087087Y0030676D01*
X0087217Y0030653D01*
X0087345Y0030627D01*
X0087473Y0030596D01*
X0087600Y0030561D01*
X0087726Y0030523D01*
X0087850Y0030481D01*
X0087974Y0030435D01*
X0088095Y0030385D01*
X0088215Y0030332D01*
X0088334Y0030275D01*
X0088451Y0030215D01*
X0088565Y0030151D01*
X0088678Y0030083D01*
X0088789Y0030012D01*
X0088898Y0029938D01*
X0089004Y0029861D01*
X0089108Y0029780D01*
X0089209Y0029697D01*
X0089308Y0029610D01*
X0089404Y0029520D01*
X0089497Y0029427D01*
X0089588Y0029332D01*
X0089675Y0029234D01*
X0089760Y0029133D01*
X0089841Y0029030D01*
X0089919Y0028924D01*
X0089994Y0028816D01*
X0090066Y0028706D01*
X0090134Y0028594D01*
X0090199Y0028480D01*
X0090260Y0028363D01*
X0090318Y0028245D01*
X0090372Y0028125D01*
X0090423Y0028004D01*
X0090470Y0027881D01*
X0090513Y0027757D01*
X0090552Y0027632D01*
X0090588Y0027505D01*
X0090619Y0027377D01*
X0090647Y0027249D01*
X0090671Y0027120D01*
X0090691Y0026990D01*
X0090707Y0026859D01*
X0090719Y0026728D01*
X0090727Y0026597D01*
X0090731Y0026466D01*
X0090731Y0026334D01*
X0090727Y0026203D01*
X0090719Y0026072D01*
X0090707Y0025941D01*
X0090691Y0025810D01*
X0090671Y0025680D01*
X0090647Y0025551D01*
X0090619Y0025423D01*
X0090588Y0025295D01*
X0090552Y0025168D01*
X0090513Y0025043D01*
X0090470Y0024919D01*
X0090423Y0024796D01*
X0090372Y0024675D01*
X0090318Y0024555D01*
X0090260Y0024437D01*
X0090199Y0024320D01*
X0090134Y0024206D01*
X0090066Y0024094D01*
X0089994Y0023984D01*
X0089919Y0023876D01*
X0089841Y0023770D01*
X0089760Y0023667D01*
X0089675Y0023566D01*
X0089588Y0023468D01*
X0089497Y0023373D01*
X0089404Y0023280D01*
X0089308Y0023190D01*
X0089209Y0023103D01*
X0089108Y0023020D01*
X0089004Y0022939D01*
X0088898Y0022862D01*
X0088789Y0022788D01*
X0088678Y0022717D01*
X0088566Y0022649D01*
X0088451Y0022585D01*
X0088334Y0022525D01*
X0088215Y0022468D01*
X0088095Y0022415D01*
X0087974Y0022365D01*
X0087850Y0022319D01*
X0087726Y0022277D01*
X0087600Y0022239D01*
X0087473Y0022204D01*
X0087345Y0022173D01*
X0087217Y0022147D01*
X0087087Y0022124D01*
X0086957Y0022105D01*
X0086827Y0022090D01*
X0086696Y0022079D01*
X0086564Y0022072D01*
X0086433Y0022069D01*
X0086301Y0022070D01*
X0086170Y0022075D01*
X0086039Y0022084D01*
X0085908Y0022097D01*
X0085778Y0022114D01*
X0085648Y0022135D01*
X0085519Y0022160D01*
X0085391Y0022188D01*
X0085263Y0022221D01*
X0085137Y0022257D01*
X0085012Y0022298D01*
X0084888Y0022342D01*
X0084765Y0022389D01*
X0084644Y0022441D01*
X0084525Y0022496D01*
X0084407Y0022555D01*
X0084292Y0022617D01*
X0084178Y0022683D01*
X0084066Y0022752D01*
X0083956Y0022824D01*
X0083849Y0022900D01*
X0083744Y0022979D01*
X0083641Y0023061D01*
X0083541Y0023146D01*
X0083444Y0023235D01*
X0083349Y0023326D01*
X0083257Y0023420D01*
X0083168Y0023517D01*
X0083082Y0023616D01*
X0082999Y0023718D01*
X0082919Y0023823D01*
X0082843Y0023929D01*
X0082770Y0024038D01*
X0082700Y0024150D01*
X0082633Y0024263D01*
X0082570Y0024378D01*
X0082510Y0024496D01*
X0082454Y0024614D01*
X0082402Y0024735D01*
X0082353Y0024857D01*
X0082308Y0024981D01*
X0082267Y0025105D01*
X0082230Y0025232D01*
X0082196Y0025359D01*
X0082166Y0025487D01*
X0082141Y0025616D01*
X0082119Y0025745D01*
X0082101Y0025875D01*
X0082087Y0026006D01*
X0082077Y0026137D01*
X0082071Y0026269D01*
X0082069Y0026400D01*
X0133319Y0026400D02*
X0133321Y0026531D01*
X0133327Y0026663D01*
X0133337Y0026794D01*
X0133351Y0026925D01*
X0133369Y0027055D01*
X0133391Y0027184D01*
X0133416Y0027313D01*
X0133446Y0027441D01*
X0133480Y0027568D01*
X0133517Y0027695D01*
X0133558Y0027819D01*
X0133603Y0027943D01*
X0133652Y0028065D01*
X0133704Y0028186D01*
X0133760Y0028304D01*
X0133820Y0028422D01*
X0133883Y0028537D01*
X0133950Y0028650D01*
X0134020Y0028762D01*
X0134093Y0028871D01*
X0134169Y0028977D01*
X0134249Y0029082D01*
X0134332Y0029184D01*
X0134418Y0029283D01*
X0134507Y0029380D01*
X0134599Y0029474D01*
X0134694Y0029565D01*
X0134791Y0029654D01*
X0134891Y0029739D01*
X0134994Y0029821D01*
X0135099Y0029900D01*
X0135206Y0029976D01*
X0135316Y0030048D01*
X0135428Y0030117D01*
X0135542Y0030183D01*
X0135657Y0030245D01*
X0135775Y0030304D01*
X0135894Y0030359D01*
X0136015Y0030411D01*
X0136138Y0030458D01*
X0136262Y0030502D01*
X0136387Y0030543D01*
X0136513Y0030579D01*
X0136641Y0030612D01*
X0136769Y0030640D01*
X0136898Y0030665D01*
X0137028Y0030686D01*
X0137158Y0030703D01*
X0137289Y0030716D01*
X0137420Y0030725D01*
X0137551Y0030730D01*
X0137683Y0030731D01*
X0137814Y0030728D01*
X0137946Y0030721D01*
X0138077Y0030710D01*
X0138207Y0030695D01*
X0138337Y0030676D01*
X0138467Y0030653D01*
X0138595Y0030627D01*
X0138723Y0030596D01*
X0138850Y0030561D01*
X0138976Y0030523D01*
X0139100Y0030481D01*
X0139224Y0030435D01*
X0139345Y0030385D01*
X0139465Y0030332D01*
X0139584Y0030275D01*
X0139701Y0030215D01*
X0139815Y0030151D01*
X0139928Y0030083D01*
X0140039Y0030012D01*
X0140148Y0029938D01*
X0140254Y0029861D01*
X0140358Y0029780D01*
X0140459Y0029697D01*
X0140558Y0029610D01*
X0140654Y0029520D01*
X0140747Y0029427D01*
X0140838Y0029332D01*
X0140925Y0029234D01*
X0141010Y0029133D01*
X0141091Y0029030D01*
X0141169Y0028924D01*
X0141244Y0028816D01*
X0141316Y0028706D01*
X0141384Y0028594D01*
X0141449Y0028480D01*
X0141510Y0028363D01*
X0141568Y0028245D01*
X0141622Y0028125D01*
X0141673Y0028004D01*
X0141720Y0027881D01*
X0141763Y0027757D01*
X0141802Y0027632D01*
X0141838Y0027505D01*
X0141869Y0027377D01*
X0141897Y0027249D01*
X0141921Y0027120D01*
X0141941Y0026990D01*
X0141957Y0026859D01*
X0141969Y0026728D01*
X0141977Y0026597D01*
X0141981Y0026466D01*
X0141981Y0026334D01*
X0141977Y0026203D01*
X0141969Y0026072D01*
X0141957Y0025941D01*
X0141941Y0025810D01*
X0141921Y0025680D01*
X0141897Y0025551D01*
X0141869Y0025423D01*
X0141838Y0025295D01*
X0141802Y0025168D01*
X0141763Y0025043D01*
X0141720Y0024919D01*
X0141673Y0024796D01*
X0141622Y0024675D01*
X0141568Y0024555D01*
X0141510Y0024437D01*
X0141449Y0024320D01*
X0141384Y0024206D01*
X0141316Y0024094D01*
X0141244Y0023984D01*
X0141169Y0023876D01*
X0141091Y0023770D01*
X0141010Y0023667D01*
X0140925Y0023566D01*
X0140838Y0023468D01*
X0140747Y0023373D01*
X0140654Y0023280D01*
X0140558Y0023190D01*
X0140459Y0023103D01*
X0140358Y0023020D01*
X0140254Y0022939D01*
X0140148Y0022862D01*
X0140039Y0022788D01*
X0139928Y0022717D01*
X0139816Y0022649D01*
X0139701Y0022585D01*
X0139584Y0022525D01*
X0139465Y0022468D01*
X0139345Y0022415D01*
X0139224Y0022365D01*
X0139100Y0022319D01*
X0138976Y0022277D01*
X0138850Y0022239D01*
X0138723Y0022204D01*
X0138595Y0022173D01*
X0138467Y0022147D01*
X0138337Y0022124D01*
X0138207Y0022105D01*
X0138077Y0022090D01*
X0137946Y0022079D01*
X0137814Y0022072D01*
X0137683Y0022069D01*
X0137551Y0022070D01*
X0137420Y0022075D01*
X0137289Y0022084D01*
X0137158Y0022097D01*
X0137028Y0022114D01*
X0136898Y0022135D01*
X0136769Y0022160D01*
X0136641Y0022188D01*
X0136513Y0022221D01*
X0136387Y0022257D01*
X0136262Y0022298D01*
X0136138Y0022342D01*
X0136015Y0022389D01*
X0135894Y0022441D01*
X0135775Y0022496D01*
X0135657Y0022555D01*
X0135542Y0022617D01*
X0135428Y0022683D01*
X0135316Y0022752D01*
X0135206Y0022824D01*
X0135099Y0022900D01*
X0134994Y0022979D01*
X0134891Y0023061D01*
X0134791Y0023146D01*
X0134694Y0023235D01*
X0134599Y0023326D01*
X0134507Y0023420D01*
X0134418Y0023517D01*
X0134332Y0023616D01*
X0134249Y0023718D01*
X0134169Y0023823D01*
X0134093Y0023929D01*
X0134020Y0024038D01*
X0133950Y0024150D01*
X0133883Y0024263D01*
X0133820Y0024378D01*
X0133760Y0024496D01*
X0133704Y0024614D01*
X0133652Y0024735D01*
X0133603Y0024857D01*
X0133558Y0024981D01*
X0133517Y0025105D01*
X0133480Y0025232D01*
X0133446Y0025359D01*
X0133416Y0025487D01*
X0133391Y0025616D01*
X0133369Y0025745D01*
X0133351Y0025875D01*
X0133337Y0026006D01*
X0133327Y0026137D01*
X0133321Y0026269D01*
X0133319Y0026400D01*
X0133319Y0083900D02*
X0133321Y0084031D01*
X0133327Y0084163D01*
X0133337Y0084294D01*
X0133351Y0084425D01*
X0133369Y0084555D01*
X0133391Y0084684D01*
X0133416Y0084813D01*
X0133446Y0084941D01*
X0133480Y0085068D01*
X0133517Y0085195D01*
X0133558Y0085319D01*
X0133603Y0085443D01*
X0133652Y0085565D01*
X0133704Y0085686D01*
X0133760Y0085804D01*
X0133820Y0085922D01*
X0133883Y0086037D01*
X0133950Y0086150D01*
X0134020Y0086262D01*
X0134093Y0086371D01*
X0134169Y0086477D01*
X0134249Y0086582D01*
X0134332Y0086684D01*
X0134418Y0086783D01*
X0134507Y0086880D01*
X0134599Y0086974D01*
X0134694Y0087065D01*
X0134791Y0087154D01*
X0134891Y0087239D01*
X0134994Y0087321D01*
X0135099Y0087400D01*
X0135206Y0087476D01*
X0135316Y0087548D01*
X0135428Y0087617D01*
X0135542Y0087683D01*
X0135657Y0087745D01*
X0135775Y0087804D01*
X0135894Y0087859D01*
X0136015Y0087911D01*
X0136138Y0087958D01*
X0136262Y0088002D01*
X0136387Y0088043D01*
X0136513Y0088079D01*
X0136641Y0088112D01*
X0136769Y0088140D01*
X0136898Y0088165D01*
X0137028Y0088186D01*
X0137158Y0088203D01*
X0137289Y0088216D01*
X0137420Y0088225D01*
X0137551Y0088230D01*
X0137683Y0088231D01*
X0137814Y0088228D01*
X0137946Y0088221D01*
X0138077Y0088210D01*
X0138207Y0088195D01*
X0138337Y0088176D01*
X0138467Y0088153D01*
X0138595Y0088127D01*
X0138723Y0088096D01*
X0138850Y0088061D01*
X0138976Y0088023D01*
X0139100Y0087981D01*
X0139224Y0087935D01*
X0139345Y0087885D01*
X0139465Y0087832D01*
X0139584Y0087775D01*
X0139701Y0087715D01*
X0139815Y0087651D01*
X0139928Y0087583D01*
X0140039Y0087512D01*
X0140148Y0087438D01*
X0140254Y0087361D01*
X0140358Y0087280D01*
X0140459Y0087197D01*
X0140558Y0087110D01*
X0140654Y0087020D01*
X0140747Y0086927D01*
X0140838Y0086832D01*
X0140925Y0086734D01*
X0141010Y0086633D01*
X0141091Y0086530D01*
X0141169Y0086424D01*
X0141244Y0086316D01*
X0141316Y0086206D01*
X0141384Y0086094D01*
X0141449Y0085980D01*
X0141510Y0085863D01*
X0141568Y0085745D01*
X0141622Y0085625D01*
X0141673Y0085504D01*
X0141720Y0085381D01*
X0141763Y0085257D01*
X0141802Y0085132D01*
X0141838Y0085005D01*
X0141869Y0084877D01*
X0141897Y0084749D01*
X0141921Y0084620D01*
X0141941Y0084490D01*
X0141957Y0084359D01*
X0141969Y0084228D01*
X0141977Y0084097D01*
X0141981Y0083966D01*
X0141981Y0083834D01*
X0141977Y0083703D01*
X0141969Y0083572D01*
X0141957Y0083441D01*
X0141941Y0083310D01*
X0141921Y0083180D01*
X0141897Y0083051D01*
X0141869Y0082923D01*
X0141838Y0082795D01*
X0141802Y0082668D01*
X0141763Y0082543D01*
X0141720Y0082419D01*
X0141673Y0082296D01*
X0141622Y0082175D01*
X0141568Y0082055D01*
X0141510Y0081937D01*
X0141449Y0081820D01*
X0141384Y0081706D01*
X0141316Y0081594D01*
X0141244Y0081484D01*
X0141169Y0081376D01*
X0141091Y0081270D01*
X0141010Y0081167D01*
X0140925Y0081066D01*
X0140838Y0080968D01*
X0140747Y0080873D01*
X0140654Y0080780D01*
X0140558Y0080690D01*
X0140459Y0080603D01*
X0140358Y0080520D01*
X0140254Y0080439D01*
X0140148Y0080362D01*
X0140039Y0080288D01*
X0139928Y0080217D01*
X0139816Y0080149D01*
X0139701Y0080085D01*
X0139584Y0080025D01*
X0139465Y0079968D01*
X0139345Y0079915D01*
X0139224Y0079865D01*
X0139100Y0079819D01*
X0138976Y0079777D01*
X0138850Y0079739D01*
X0138723Y0079704D01*
X0138595Y0079673D01*
X0138467Y0079647D01*
X0138337Y0079624D01*
X0138207Y0079605D01*
X0138077Y0079590D01*
X0137946Y0079579D01*
X0137814Y0079572D01*
X0137683Y0079569D01*
X0137551Y0079570D01*
X0137420Y0079575D01*
X0137289Y0079584D01*
X0137158Y0079597D01*
X0137028Y0079614D01*
X0136898Y0079635D01*
X0136769Y0079660D01*
X0136641Y0079688D01*
X0136513Y0079721D01*
X0136387Y0079757D01*
X0136262Y0079798D01*
X0136138Y0079842D01*
X0136015Y0079889D01*
X0135894Y0079941D01*
X0135775Y0079996D01*
X0135657Y0080055D01*
X0135542Y0080117D01*
X0135428Y0080183D01*
X0135316Y0080252D01*
X0135206Y0080324D01*
X0135099Y0080400D01*
X0134994Y0080479D01*
X0134891Y0080561D01*
X0134791Y0080646D01*
X0134694Y0080735D01*
X0134599Y0080826D01*
X0134507Y0080920D01*
X0134418Y0081017D01*
X0134332Y0081116D01*
X0134249Y0081218D01*
X0134169Y0081323D01*
X0134093Y0081429D01*
X0134020Y0081538D01*
X0133950Y0081650D01*
X0133883Y0081763D01*
X0133820Y0081878D01*
X0133760Y0081996D01*
X0133704Y0082114D01*
X0133652Y0082235D01*
X0133603Y0082357D01*
X0133558Y0082481D01*
X0133517Y0082605D01*
X0133480Y0082732D01*
X0133446Y0082859D01*
X0133416Y0082987D01*
X0133391Y0083116D01*
X0133369Y0083245D01*
X0133351Y0083375D01*
X0133337Y0083506D01*
X0133327Y0083637D01*
X0133321Y0083769D01*
X0133319Y0083900D01*
X0184569Y0083900D02*
X0184571Y0084031D01*
X0184577Y0084163D01*
X0184587Y0084294D01*
X0184601Y0084425D01*
X0184619Y0084555D01*
X0184641Y0084684D01*
X0184666Y0084813D01*
X0184696Y0084941D01*
X0184730Y0085068D01*
X0184767Y0085195D01*
X0184808Y0085319D01*
X0184853Y0085443D01*
X0184902Y0085565D01*
X0184954Y0085686D01*
X0185010Y0085804D01*
X0185070Y0085922D01*
X0185133Y0086037D01*
X0185200Y0086150D01*
X0185270Y0086262D01*
X0185343Y0086371D01*
X0185419Y0086477D01*
X0185499Y0086582D01*
X0185582Y0086684D01*
X0185668Y0086783D01*
X0185757Y0086880D01*
X0185849Y0086974D01*
X0185944Y0087065D01*
X0186041Y0087154D01*
X0186141Y0087239D01*
X0186244Y0087321D01*
X0186349Y0087400D01*
X0186456Y0087476D01*
X0186566Y0087548D01*
X0186678Y0087617D01*
X0186792Y0087683D01*
X0186907Y0087745D01*
X0187025Y0087804D01*
X0187144Y0087859D01*
X0187265Y0087911D01*
X0187388Y0087958D01*
X0187512Y0088002D01*
X0187637Y0088043D01*
X0187763Y0088079D01*
X0187891Y0088112D01*
X0188019Y0088140D01*
X0188148Y0088165D01*
X0188278Y0088186D01*
X0188408Y0088203D01*
X0188539Y0088216D01*
X0188670Y0088225D01*
X0188801Y0088230D01*
X0188933Y0088231D01*
X0189064Y0088228D01*
X0189196Y0088221D01*
X0189327Y0088210D01*
X0189457Y0088195D01*
X0189587Y0088176D01*
X0189717Y0088153D01*
X0189845Y0088127D01*
X0189973Y0088096D01*
X0190100Y0088061D01*
X0190226Y0088023D01*
X0190350Y0087981D01*
X0190474Y0087935D01*
X0190595Y0087885D01*
X0190715Y0087832D01*
X0190834Y0087775D01*
X0190951Y0087715D01*
X0191065Y0087651D01*
X0191178Y0087583D01*
X0191289Y0087512D01*
X0191398Y0087438D01*
X0191504Y0087361D01*
X0191608Y0087280D01*
X0191709Y0087197D01*
X0191808Y0087110D01*
X0191904Y0087020D01*
X0191997Y0086927D01*
X0192088Y0086832D01*
X0192175Y0086734D01*
X0192260Y0086633D01*
X0192341Y0086530D01*
X0192419Y0086424D01*
X0192494Y0086316D01*
X0192566Y0086206D01*
X0192634Y0086094D01*
X0192699Y0085980D01*
X0192760Y0085863D01*
X0192818Y0085745D01*
X0192872Y0085625D01*
X0192923Y0085504D01*
X0192970Y0085381D01*
X0193013Y0085257D01*
X0193052Y0085132D01*
X0193088Y0085005D01*
X0193119Y0084877D01*
X0193147Y0084749D01*
X0193171Y0084620D01*
X0193191Y0084490D01*
X0193207Y0084359D01*
X0193219Y0084228D01*
X0193227Y0084097D01*
X0193231Y0083966D01*
X0193231Y0083834D01*
X0193227Y0083703D01*
X0193219Y0083572D01*
X0193207Y0083441D01*
X0193191Y0083310D01*
X0193171Y0083180D01*
X0193147Y0083051D01*
X0193119Y0082923D01*
X0193088Y0082795D01*
X0193052Y0082668D01*
X0193013Y0082543D01*
X0192970Y0082419D01*
X0192923Y0082296D01*
X0192872Y0082175D01*
X0192818Y0082055D01*
X0192760Y0081937D01*
X0192699Y0081820D01*
X0192634Y0081706D01*
X0192566Y0081594D01*
X0192494Y0081484D01*
X0192419Y0081376D01*
X0192341Y0081270D01*
X0192260Y0081167D01*
X0192175Y0081066D01*
X0192088Y0080968D01*
X0191997Y0080873D01*
X0191904Y0080780D01*
X0191808Y0080690D01*
X0191709Y0080603D01*
X0191608Y0080520D01*
X0191504Y0080439D01*
X0191398Y0080362D01*
X0191289Y0080288D01*
X0191178Y0080217D01*
X0191066Y0080149D01*
X0190951Y0080085D01*
X0190834Y0080025D01*
X0190715Y0079968D01*
X0190595Y0079915D01*
X0190474Y0079865D01*
X0190350Y0079819D01*
X0190226Y0079777D01*
X0190100Y0079739D01*
X0189973Y0079704D01*
X0189845Y0079673D01*
X0189717Y0079647D01*
X0189587Y0079624D01*
X0189457Y0079605D01*
X0189327Y0079590D01*
X0189196Y0079579D01*
X0189064Y0079572D01*
X0188933Y0079569D01*
X0188801Y0079570D01*
X0188670Y0079575D01*
X0188539Y0079584D01*
X0188408Y0079597D01*
X0188278Y0079614D01*
X0188148Y0079635D01*
X0188019Y0079660D01*
X0187891Y0079688D01*
X0187763Y0079721D01*
X0187637Y0079757D01*
X0187512Y0079798D01*
X0187388Y0079842D01*
X0187265Y0079889D01*
X0187144Y0079941D01*
X0187025Y0079996D01*
X0186907Y0080055D01*
X0186792Y0080117D01*
X0186678Y0080183D01*
X0186566Y0080252D01*
X0186456Y0080324D01*
X0186349Y0080400D01*
X0186244Y0080479D01*
X0186141Y0080561D01*
X0186041Y0080646D01*
X0185944Y0080735D01*
X0185849Y0080826D01*
X0185757Y0080920D01*
X0185668Y0081017D01*
X0185582Y0081116D01*
X0185499Y0081218D01*
X0185419Y0081323D01*
X0185343Y0081429D01*
X0185270Y0081538D01*
X0185200Y0081650D01*
X0185133Y0081763D01*
X0185070Y0081878D01*
X0185010Y0081996D01*
X0184954Y0082114D01*
X0184902Y0082235D01*
X0184853Y0082357D01*
X0184808Y0082481D01*
X0184767Y0082605D01*
X0184730Y0082732D01*
X0184696Y0082859D01*
X0184666Y0082987D01*
X0184641Y0083116D01*
X0184619Y0083245D01*
X0184601Y0083375D01*
X0184587Y0083506D01*
X0184577Y0083637D01*
X0184571Y0083769D01*
X0184569Y0083900D01*
X0184569Y0026400D02*
X0184571Y0026531D01*
X0184577Y0026663D01*
X0184587Y0026794D01*
X0184601Y0026925D01*
X0184619Y0027055D01*
X0184641Y0027184D01*
X0184666Y0027313D01*
X0184696Y0027441D01*
X0184730Y0027568D01*
X0184767Y0027695D01*
X0184808Y0027819D01*
X0184853Y0027943D01*
X0184902Y0028065D01*
X0184954Y0028186D01*
X0185010Y0028304D01*
X0185070Y0028422D01*
X0185133Y0028537D01*
X0185200Y0028650D01*
X0185270Y0028762D01*
X0185343Y0028871D01*
X0185419Y0028977D01*
X0185499Y0029082D01*
X0185582Y0029184D01*
X0185668Y0029283D01*
X0185757Y0029380D01*
X0185849Y0029474D01*
X0185944Y0029565D01*
X0186041Y0029654D01*
X0186141Y0029739D01*
X0186244Y0029821D01*
X0186349Y0029900D01*
X0186456Y0029976D01*
X0186566Y0030048D01*
X0186678Y0030117D01*
X0186792Y0030183D01*
X0186907Y0030245D01*
X0187025Y0030304D01*
X0187144Y0030359D01*
X0187265Y0030411D01*
X0187388Y0030458D01*
X0187512Y0030502D01*
X0187637Y0030543D01*
X0187763Y0030579D01*
X0187891Y0030612D01*
X0188019Y0030640D01*
X0188148Y0030665D01*
X0188278Y0030686D01*
X0188408Y0030703D01*
X0188539Y0030716D01*
X0188670Y0030725D01*
X0188801Y0030730D01*
X0188933Y0030731D01*
X0189064Y0030728D01*
X0189196Y0030721D01*
X0189327Y0030710D01*
X0189457Y0030695D01*
X0189587Y0030676D01*
X0189717Y0030653D01*
X0189845Y0030627D01*
X0189973Y0030596D01*
X0190100Y0030561D01*
X0190226Y0030523D01*
X0190350Y0030481D01*
X0190474Y0030435D01*
X0190595Y0030385D01*
X0190715Y0030332D01*
X0190834Y0030275D01*
X0190951Y0030215D01*
X0191065Y0030151D01*
X0191178Y0030083D01*
X0191289Y0030012D01*
X0191398Y0029938D01*
X0191504Y0029861D01*
X0191608Y0029780D01*
X0191709Y0029697D01*
X0191808Y0029610D01*
X0191904Y0029520D01*
X0191997Y0029427D01*
X0192088Y0029332D01*
X0192175Y0029234D01*
X0192260Y0029133D01*
X0192341Y0029030D01*
X0192419Y0028924D01*
X0192494Y0028816D01*
X0192566Y0028706D01*
X0192634Y0028594D01*
X0192699Y0028480D01*
X0192760Y0028363D01*
X0192818Y0028245D01*
X0192872Y0028125D01*
X0192923Y0028004D01*
X0192970Y0027881D01*
X0193013Y0027757D01*
X0193052Y0027632D01*
X0193088Y0027505D01*
X0193119Y0027377D01*
X0193147Y0027249D01*
X0193171Y0027120D01*
X0193191Y0026990D01*
X0193207Y0026859D01*
X0193219Y0026728D01*
X0193227Y0026597D01*
X0193231Y0026466D01*
X0193231Y0026334D01*
X0193227Y0026203D01*
X0193219Y0026072D01*
X0193207Y0025941D01*
X0193191Y0025810D01*
X0193171Y0025680D01*
X0193147Y0025551D01*
X0193119Y0025423D01*
X0193088Y0025295D01*
X0193052Y0025168D01*
X0193013Y0025043D01*
X0192970Y0024919D01*
X0192923Y0024796D01*
X0192872Y0024675D01*
X0192818Y0024555D01*
X0192760Y0024437D01*
X0192699Y0024320D01*
X0192634Y0024206D01*
X0192566Y0024094D01*
X0192494Y0023984D01*
X0192419Y0023876D01*
X0192341Y0023770D01*
X0192260Y0023667D01*
X0192175Y0023566D01*
X0192088Y0023468D01*
X0191997Y0023373D01*
X0191904Y0023280D01*
X0191808Y0023190D01*
X0191709Y0023103D01*
X0191608Y0023020D01*
X0191504Y0022939D01*
X0191398Y0022862D01*
X0191289Y0022788D01*
X0191178Y0022717D01*
X0191066Y0022649D01*
X0190951Y0022585D01*
X0190834Y0022525D01*
X0190715Y0022468D01*
X0190595Y0022415D01*
X0190474Y0022365D01*
X0190350Y0022319D01*
X0190226Y0022277D01*
X0190100Y0022239D01*
X0189973Y0022204D01*
X0189845Y0022173D01*
X0189717Y0022147D01*
X0189587Y0022124D01*
X0189457Y0022105D01*
X0189327Y0022090D01*
X0189196Y0022079D01*
X0189064Y0022072D01*
X0188933Y0022069D01*
X0188801Y0022070D01*
X0188670Y0022075D01*
X0188539Y0022084D01*
X0188408Y0022097D01*
X0188278Y0022114D01*
X0188148Y0022135D01*
X0188019Y0022160D01*
X0187891Y0022188D01*
X0187763Y0022221D01*
X0187637Y0022257D01*
X0187512Y0022298D01*
X0187388Y0022342D01*
X0187265Y0022389D01*
X0187144Y0022441D01*
X0187025Y0022496D01*
X0186907Y0022555D01*
X0186792Y0022617D01*
X0186678Y0022683D01*
X0186566Y0022752D01*
X0186456Y0022824D01*
X0186349Y0022900D01*
X0186244Y0022979D01*
X0186141Y0023061D01*
X0186041Y0023146D01*
X0185944Y0023235D01*
X0185849Y0023326D01*
X0185757Y0023420D01*
X0185668Y0023517D01*
X0185582Y0023616D01*
X0185499Y0023718D01*
X0185419Y0023823D01*
X0185343Y0023929D01*
X0185270Y0024038D01*
X0185200Y0024150D01*
X0185133Y0024263D01*
X0185070Y0024378D01*
X0185010Y0024496D01*
X0184954Y0024614D01*
X0184902Y0024735D01*
X0184853Y0024857D01*
X0184808Y0024981D01*
X0184767Y0025105D01*
X0184730Y0025232D01*
X0184696Y0025359D01*
X0184666Y0025487D01*
X0184641Y0025616D01*
X0184619Y0025745D01*
X0184601Y0025875D01*
X0184587Y0026006D01*
X0184577Y0026137D01*
X0184571Y0026269D01*
X0184569Y0026400D01*
X0235819Y0026400D02*
X0235821Y0026531D01*
X0235827Y0026663D01*
X0235837Y0026794D01*
X0235851Y0026925D01*
X0235869Y0027055D01*
X0235891Y0027184D01*
X0235916Y0027313D01*
X0235946Y0027441D01*
X0235980Y0027568D01*
X0236017Y0027695D01*
X0236058Y0027819D01*
X0236103Y0027943D01*
X0236152Y0028065D01*
X0236204Y0028186D01*
X0236260Y0028304D01*
X0236320Y0028422D01*
X0236383Y0028537D01*
X0236450Y0028650D01*
X0236520Y0028762D01*
X0236593Y0028871D01*
X0236669Y0028977D01*
X0236749Y0029082D01*
X0236832Y0029184D01*
X0236918Y0029283D01*
X0237007Y0029380D01*
X0237099Y0029474D01*
X0237194Y0029565D01*
X0237291Y0029654D01*
X0237391Y0029739D01*
X0237494Y0029821D01*
X0237599Y0029900D01*
X0237706Y0029976D01*
X0237816Y0030048D01*
X0237928Y0030117D01*
X0238042Y0030183D01*
X0238157Y0030245D01*
X0238275Y0030304D01*
X0238394Y0030359D01*
X0238515Y0030411D01*
X0238638Y0030458D01*
X0238762Y0030502D01*
X0238887Y0030543D01*
X0239013Y0030579D01*
X0239141Y0030612D01*
X0239269Y0030640D01*
X0239398Y0030665D01*
X0239528Y0030686D01*
X0239658Y0030703D01*
X0239789Y0030716D01*
X0239920Y0030725D01*
X0240051Y0030730D01*
X0240183Y0030731D01*
X0240314Y0030728D01*
X0240446Y0030721D01*
X0240577Y0030710D01*
X0240707Y0030695D01*
X0240837Y0030676D01*
X0240967Y0030653D01*
X0241095Y0030627D01*
X0241223Y0030596D01*
X0241350Y0030561D01*
X0241476Y0030523D01*
X0241600Y0030481D01*
X0241724Y0030435D01*
X0241845Y0030385D01*
X0241965Y0030332D01*
X0242084Y0030275D01*
X0242201Y0030215D01*
X0242315Y0030151D01*
X0242428Y0030083D01*
X0242539Y0030012D01*
X0242648Y0029938D01*
X0242754Y0029861D01*
X0242858Y0029780D01*
X0242959Y0029697D01*
X0243058Y0029610D01*
X0243154Y0029520D01*
X0243247Y0029427D01*
X0243338Y0029332D01*
X0243425Y0029234D01*
X0243510Y0029133D01*
X0243591Y0029030D01*
X0243669Y0028924D01*
X0243744Y0028816D01*
X0243816Y0028706D01*
X0243884Y0028594D01*
X0243949Y0028480D01*
X0244010Y0028363D01*
X0244068Y0028245D01*
X0244122Y0028125D01*
X0244173Y0028004D01*
X0244220Y0027881D01*
X0244263Y0027757D01*
X0244302Y0027632D01*
X0244338Y0027505D01*
X0244369Y0027377D01*
X0244397Y0027249D01*
X0244421Y0027120D01*
X0244441Y0026990D01*
X0244457Y0026859D01*
X0244469Y0026728D01*
X0244477Y0026597D01*
X0244481Y0026466D01*
X0244481Y0026334D01*
X0244477Y0026203D01*
X0244469Y0026072D01*
X0244457Y0025941D01*
X0244441Y0025810D01*
X0244421Y0025680D01*
X0244397Y0025551D01*
X0244369Y0025423D01*
X0244338Y0025295D01*
X0244302Y0025168D01*
X0244263Y0025043D01*
X0244220Y0024919D01*
X0244173Y0024796D01*
X0244122Y0024675D01*
X0244068Y0024555D01*
X0244010Y0024437D01*
X0243949Y0024320D01*
X0243884Y0024206D01*
X0243816Y0024094D01*
X0243744Y0023984D01*
X0243669Y0023876D01*
X0243591Y0023770D01*
X0243510Y0023667D01*
X0243425Y0023566D01*
X0243338Y0023468D01*
X0243247Y0023373D01*
X0243154Y0023280D01*
X0243058Y0023190D01*
X0242959Y0023103D01*
X0242858Y0023020D01*
X0242754Y0022939D01*
X0242648Y0022862D01*
X0242539Y0022788D01*
X0242428Y0022717D01*
X0242316Y0022649D01*
X0242201Y0022585D01*
X0242084Y0022525D01*
X0241965Y0022468D01*
X0241845Y0022415D01*
X0241724Y0022365D01*
X0241600Y0022319D01*
X0241476Y0022277D01*
X0241350Y0022239D01*
X0241223Y0022204D01*
X0241095Y0022173D01*
X0240967Y0022147D01*
X0240837Y0022124D01*
X0240707Y0022105D01*
X0240577Y0022090D01*
X0240446Y0022079D01*
X0240314Y0022072D01*
X0240183Y0022069D01*
X0240051Y0022070D01*
X0239920Y0022075D01*
X0239789Y0022084D01*
X0239658Y0022097D01*
X0239528Y0022114D01*
X0239398Y0022135D01*
X0239269Y0022160D01*
X0239141Y0022188D01*
X0239013Y0022221D01*
X0238887Y0022257D01*
X0238762Y0022298D01*
X0238638Y0022342D01*
X0238515Y0022389D01*
X0238394Y0022441D01*
X0238275Y0022496D01*
X0238157Y0022555D01*
X0238042Y0022617D01*
X0237928Y0022683D01*
X0237816Y0022752D01*
X0237706Y0022824D01*
X0237599Y0022900D01*
X0237494Y0022979D01*
X0237391Y0023061D01*
X0237291Y0023146D01*
X0237194Y0023235D01*
X0237099Y0023326D01*
X0237007Y0023420D01*
X0236918Y0023517D01*
X0236832Y0023616D01*
X0236749Y0023718D01*
X0236669Y0023823D01*
X0236593Y0023929D01*
X0236520Y0024038D01*
X0236450Y0024150D01*
X0236383Y0024263D01*
X0236320Y0024378D01*
X0236260Y0024496D01*
X0236204Y0024614D01*
X0236152Y0024735D01*
X0236103Y0024857D01*
X0236058Y0024981D01*
X0236017Y0025105D01*
X0235980Y0025232D01*
X0235946Y0025359D01*
X0235916Y0025487D01*
X0235891Y0025616D01*
X0235869Y0025745D01*
X0235851Y0025875D01*
X0235837Y0026006D01*
X0235827Y0026137D01*
X0235821Y0026269D01*
X0235819Y0026400D01*
X0235819Y0083900D02*
X0235821Y0084031D01*
X0235827Y0084163D01*
X0235837Y0084294D01*
X0235851Y0084425D01*
X0235869Y0084555D01*
X0235891Y0084684D01*
X0235916Y0084813D01*
X0235946Y0084941D01*
X0235980Y0085068D01*
X0236017Y0085195D01*
X0236058Y0085319D01*
X0236103Y0085443D01*
X0236152Y0085565D01*
X0236204Y0085686D01*
X0236260Y0085804D01*
X0236320Y0085922D01*
X0236383Y0086037D01*
X0236450Y0086150D01*
X0236520Y0086262D01*
X0236593Y0086371D01*
X0236669Y0086477D01*
X0236749Y0086582D01*
X0236832Y0086684D01*
X0236918Y0086783D01*
X0237007Y0086880D01*
X0237099Y0086974D01*
X0237194Y0087065D01*
X0237291Y0087154D01*
X0237391Y0087239D01*
X0237494Y0087321D01*
X0237599Y0087400D01*
X0237706Y0087476D01*
X0237816Y0087548D01*
X0237928Y0087617D01*
X0238042Y0087683D01*
X0238157Y0087745D01*
X0238275Y0087804D01*
X0238394Y0087859D01*
X0238515Y0087911D01*
X0238638Y0087958D01*
X0238762Y0088002D01*
X0238887Y0088043D01*
X0239013Y0088079D01*
X0239141Y0088112D01*
X0239269Y0088140D01*
X0239398Y0088165D01*
X0239528Y0088186D01*
X0239658Y0088203D01*
X0239789Y0088216D01*
X0239920Y0088225D01*
X0240051Y0088230D01*
X0240183Y0088231D01*
X0240314Y0088228D01*
X0240446Y0088221D01*
X0240577Y0088210D01*
X0240707Y0088195D01*
X0240837Y0088176D01*
X0240967Y0088153D01*
X0241095Y0088127D01*
X0241223Y0088096D01*
X0241350Y0088061D01*
X0241476Y0088023D01*
X0241600Y0087981D01*
X0241724Y0087935D01*
X0241845Y0087885D01*
X0241965Y0087832D01*
X0242084Y0087775D01*
X0242201Y0087715D01*
X0242315Y0087651D01*
X0242428Y0087583D01*
X0242539Y0087512D01*
X0242648Y0087438D01*
X0242754Y0087361D01*
X0242858Y0087280D01*
X0242959Y0087197D01*
X0243058Y0087110D01*
X0243154Y0087020D01*
X0243247Y0086927D01*
X0243338Y0086832D01*
X0243425Y0086734D01*
X0243510Y0086633D01*
X0243591Y0086530D01*
X0243669Y0086424D01*
X0243744Y0086316D01*
X0243816Y0086206D01*
X0243884Y0086094D01*
X0243949Y0085980D01*
X0244010Y0085863D01*
X0244068Y0085745D01*
X0244122Y0085625D01*
X0244173Y0085504D01*
X0244220Y0085381D01*
X0244263Y0085257D01*
X0244302Y0085132D01*
X0244338Y0085005D01*
X0244369Y0084877D01*
X0244397Y0084749D01*
X0244421Y0084620D01*
X0244441Y0084490D01*
X0244457Y0084359D01*
X0244469Y0084228D01*
X0244477Y0084097D01*
X0244481Y0083966D01*
X0244481Y0083834D01*
X0244477Y0083703D01*
X0244469Y0083572D01*
X0244457Y0083441D01*
X0244441Y0083310D01*
X0244421Y0083180D01*
X0244397Y0083051D01*
X0244369Y0082923D01*
X0244338Y0082795D01*
X0244302Y0082668D01*
X0244263Y0082543D01*
X0244220Y0082419D01*
X0244173Y0082296D01*
X0244122Y0082175D01*
X0244068Y0082055D01*
X0244010Y0081937D01*
X0243949Y0081820D01*
X0243884Y0081706D01*
X0243816Y0081594D01*
X0243744Y0081484D01*
X0243669Y0081376D01*
X0243591Y0081270D01*
X0243510Y0081167D01*
X0243425Y0081066D01*
X0243338Y0080968D01*
X0243247Y0080873D01*
X0243154Y0080780D01*
X0243058Y0080690D01*
X0242959Y0080603D01*
X0242858Y0080520D01*
X0242754Y0080439D01*
X0242648Y0080362D01*
X0242539Y0080288D01*
X0242428Y0080217D01*
X0242316Y0080149D01*
X0242201Y0080085D01*
X0242084Y0080025D01*
X0241965Y0079968D01*
X0241845Y0079915D01*
X0241724Y0079865D01*
X0241600Y0079819D01*
X0241476Y0079777D01*
X0241350Y0079739D01*
X0241223Y0079704D01*
X0241095Y0079673D01*
X0240967Y0079647D01*
X0240837Y0079624D01*
X0240707Y0079605D01*
X0240577Y0079590D01*
X0240446Y0079579D01*
X0240314Y0079572D01*
X0240183Y0079569D01*
X0240051Y0079570D01*
X0239920Y0079575D01*
X0239789Y0079584D01*
X0239658Y0079597D01*
X0239528Y0079614D01*
X0239398Y0079635D01*
X0239269Y0079660D01*
X0239141Y0079688D01*
X0239013Y0079721D01*
X0238887Y0079757D01*
X0238762Y0079798D01*
X0238638Y0079842D01*
X0238515Y0079889D01*
X0238394Y0079941D01*
X0238275Y0079996D01*
X0238157Y0080055D01*
X0238042Y0080117D01*
X0237928Y0080183D01*
X0237816Y0080252D01*
X0237706Y0080324D01*
X0237599Y0080400D01*
X0237494Y0080479D01*
X0237391Y0080561D01*
X0237291Y0080646D01*
X0237194Y0080735D01*
X0237099Y0080826D01*
X0237007Y0080920D01*
X0236918Y0081017D01*
X0236832Y0081116D01*
X0236749Y0081218D01*
X0236669Y0081323D01*
X0236593Y0081429D01*
X0236520Y0081538D01*
X0236450Y0081650D01*
X0236383Y0081763D01*
X0236320Y0081878D01*
X0236260Y0081996D01*
X0236204Y0082114D01*
X0236152Y0082235D01*
X0236103Y0082357D01*
X0236058Y0082481D01*
X0236017Y0082605D01*
X0235980Y0082732D01*
X0235946Y0082859D01*
X0235916Y0082987D01*
X0235891Y0083116D01*
X0235869Y0083245D01*
X0235851Y0083375D01*
X0235837Y0083506D01*
X0235827Y0083637D01*
X0235821Y0083769D01*
X0235819Y0083900D01*
M02*
