G75*
%MOIN*%
%OFA0B0*%
%FSLAX25Y25*%
%IPPOS*%
%LPD*%
%AMOC8*
5,1,8,0,0,1.08239X$1,22.5*
%
%ADD10C,0.00000*%
D10*
X0001800Y0001800D02*
X0001800Y0406800D01*
X0386721Y0406800D01*
X0386721Y0001800D01*
X0001800Y0001800D01*
X0036219Y0126800D02*
X0036221Y0126931D01*
X0036227Y0127063D01*
X0036237Y0127194D01*
X0036251Y0127325D01*
X0036269Y0127455D01*
X0036291Y0127584D01*
X0036316Y0127713D01*
X0036346Y0127841D01*
X0036380Y0127968D01*
X0036417Y0128095D01*
X0036458Y0128219D01*
X0036503Y0128343D01*
X0036552Y0128465D01*
X0036604Y0128586D01*
X0036660Y0128704D01*
X0036720Y0128822D01*
X0036783Y0128937D01*
X0036850Y0129050D01*
X0036920Y0129162D01*
X0036993Y0129271D01*
X0037069Y0129377D01*
X0037149Y0129482D01*
X0037232Y0129584D01*
X0037318Y0129683D01*
X0037407Y0129780D01*
X0037499Y0129874D01*
X0037594Y0129965D01*
X0037691Y0130054D01*
X0037791Y0130139D01*
X0037894Y0130221D01*
X0037999Y0130300D01*
X0038106Y0130376D01*
X0038216Y0130448D01*
X0038328Y0130517D01*
X0038442Y0130583D01*
X0038557Y0130645D01*
X0038675Y0130704D01*
X0038794Y0130759D01*
X0038915Y0130811D01*
X0039038Y0130858D01*
X0039162Y0130902D01*
X0039287Y0130943D01*
X0039413Y0130979D01*
X0039541Y0131012D01*
X0039669Y0131040D01*
X0039798Y0131065D01*
X0039928Y0131086D01*
X0040058Y0131103D01*
X0040189Y0131116D01*
X0040320Y0131125D01*
X0040451Y0131130D01*
X0040583Y0131131D01*
X0040714Y0131128D01*
X0040846Y0131121D01*
X0040977Y0131110D01*
X0041107Y0131095D01*
X0041237Y0131076D01*
X0041367Y0131053D01*
X0041495Y0131027D01*
X0041623Y0130996D01*
X0041750Y0130961D01*
X0041876Y0130923D01*
X0042000Y0130881D01*
X0042124Y0130835D01*
X0042245Y0130785D01*
X0042365Y0130732D01*
X0042484Y0130675D01*
X0042601Y0130615D01*
X0042715Y0130551D01*
X0042828Y0130483D01*
X0042939Y0130412D01*
X0043048Y0130338D01*
X0043154Y0130261D01*
X0043258Y0130180D01*
X0043359Y0130097D01*
X0043458Y0130010D01*
X0043554Y0129920D01*
X0043647Y0129827D01*
X0043738Y0129732D01*
X0043825Y0129634D01*
X0043910Y0129533D01*
X0043991Y0129430D01*
X0044069Y0129324D01*
X0044144Y0129216D01*
X0044216Y0129106D01*
X0044284Y0128994D01*
X0044349Y0128880D01*
X0044410Y0128763D01*
X0044468Y0128645D01*
X0044522Y0128525D01*
X0044573Y0128404D01*
X0044620Y0128281D01*
X0044663Y0128157D01*
X0044702Y0128032D01*
X0044738Y0127905D01*
X0044769Y0127777D01*
X0044797Y0127649D01*
X0044821Y0127520D01*
X0044841Y0127390D01*
X0044857Y0127259D01*
X0044869Y0127128D01*
X0044877Y0126997D01*
X0044881Y0126866D01*
X0044881Y0126734D01*
X0044877Y0126603D01*
X0044869Y0126472D01*
X0044857Y0126341D01*
X0044841Y0126210D01*
X0044821Y0126080D01*
X0044797Y0125951D01*
X0044769Y0125823D01*
X0044738Y0125695D01*
X0044702Y0125568D01*
X0044663Y0125443D01*
X0044620Y0125319D01*
X0044573Y0125196D01*
X0044522Y0125075D01*
X0044468Y0124955D01*
X0044410Y0124837D01*
X0044349Y0124720D01*
X0044284Y0124606D01*
X0044216Y0124494D01*
X0044144Y0124384D01*
X0044069Y0124276D01*
X0043991Y0124170D01*
X0043910Y0124067D01*
X0043825Y0123966D01*
X0043738Y0123868D01*
X0043647Y0123773D01*
X0043554Y0123680D01*
X0043458Y0123590D01*
X0043359Y0123503D01*
X0043258Y0123420D01*
X0043154Y0123339D01*
X0043048Y0123262D01*
X0042939Y0123188D01*
X0042828Y0123117D01*
X0042716Y0123049D01*
X0042601Y0122985D01*
X0042484Y0122925D01*
X0042365Y0122868D01*
X0042245Y0122815D01*
X0042124Y0122765D01*
X0042000Y0122719D01*
X0041876Y0122677D01*
X0041750Y0122639D01*
X0041623Y0122604D01*
X0041495Y0122573D01*
X0041367Y0122547D01*
X0041237Y0122524D01*
X0041107Y0122505D01*
X0040977Y0122490D01*
X0040846Y0122479D01*
X0040714Y0122472D01*
X0040583Y0122469D01*
X0040451Y0122470D01*
X0040320Y0122475D01*
X0040189Y0122484D01*
X0040058Y0122497D01*
X0039928Y0122514D01*
X0039798Y0122535D01*
X0039669Y0122560D01*
X0039541Y0122588D01*
X0039413Y0122621D01*
X0039287Y0122657D01*
X0039162Y0122698D01*
X0039038Y0122742D01*
X0038915Y0122789D01*
X0038794Y0122841D01*
X0038675Y0122896D01*
X0038557Y0122955D01*
X0038442Y0123017D01*
X0038328Y0123083D01*
X0038216Y0123152D01*
X0038106Y0123224D01*
X0037999Y0123300D01*
X0037894Y0123379D01*
X0037791Y0123461D01*
X0037691Y0123546D01*
X0037594Y0123635D01*
X0037499Y0123726D01*
X0037407Y0123820D01*
X0037318Y0123917D01*
X0037232Y0124016D01*
X0037149Y0124118D01*
X0037069Y0124223D01*
X0036993Y0124329D01*
X0036920Y0124438D01*
X0036850Y0124550D01*
X0036783Y0124663D01*
X0036720Y0124778D01*
X0036660Y0124896D01*
X0036604Y0125014D01*
X0036552Y0125135D01*
X0036503Y0125257D01*
X0036458Y0125381D01*
X0036417Y0125505D01*
X0036380Y0125632D01*
X0036346Y0125759D01*
X0036316Y0125887D01*
X0036291Y0126016D01*
X0036269Y0126145D01*
X0036251Y0126275D01*
X0036237Y0126406D01*
X0036227Y0126537D01*
X0036221Y0126669D01*
X0036219Y0126800D01*
X0087469Y0126800D02*
X0087471Y0126931D01*
X0087477Y0127063D01*
X0087487Y0127194D01*
X0087501Y0127325D01*
X0087519Y0127455D01*
X0087541Y0127584D01*
X0087566Y0127713D01*
X0087596Y0127841D01*
X0087630Y0127968D01*
X0087667Y0128095D01*
X0087708Y0128219D01*
X0087753Y0128343D01*
X0087802Y0128465D01*
X0087854Y0128586D01*
X0087910Y0128704D01*
X0087970Y0128822D01*
X0088033Y0128937D01*
X0088100Y0129050D01*
X0088170Y0129162D01*
X0088243Y0129271D01*
X0088319Y0129377D01*
X0088399Y0129482D01*
X0088482Y0129584D01*
X0088568Y0129683D01*
X0088657Y0129780D01*
X0088749Y0129874D01*
X0088844Y0129965D01*
X0088941Y0130054D01*
X0089041Y0130139D01*
X0089144Y0130221D01*
X0089249Y0130300D01*
X0089356Y0130376D01*
X0089466Y0130448D01*
X0089578Y0130517D01*
X0089692Y0130583D01*
X0089807Y0130645D01*
X0089925Y0130704D01*
X0090044Y0130759D01*
X0090165Y0130811D01*
X0090288Y0130858D01*
X0090412Y0130902D01*
X0090537Y0130943D01*
X0090663Y0130979D01*
X0090791Y0131012D01*
X0090919Y0131040D01*
X0091048Y0131065D01*
X0091178Y0131086D01*
X0091308Y0131103D01*
X0091439Y0131116D01*
X0091570Y0131125D01*
X0091701Y0131130D01*
X0091833Y0131131D01*
X0091964Y0131128D01*
X0092096Y0131121D01*
X0092227Y0131110D01*
X0092357Y0131095D01*
X0092487Y0131076D01*
X0092617Y0131053D01*
X0092745Y0131027D01*
X0092873Y0130996D01*
X0093000Y0130961D01*
X0093126Y0130923D01*
X0093250Y0130881D01*
X0093374Y0130835D01*
X0093495Y0130785D01*
X0093615Y0130732D01*
X0093734Y0130675D01*
X0093851Y0130615D01*
X0093965Y0130551D01*
X0094078Y0130483D01*
X0094189Y0130412D01*
X0094298Y0130338D01*
X0094404Y0130261D01*
X0094508Y0130180D01*
X0094609Y0130097D01*
X0094708Y0130010D01*
X0094804Y0129920D01*
X0094897Y0129827D01*
X0094988Y0129732D01*
X0095075Y0129634D01*
X0095160Y0129533D01*
X0095241Y0129430D01*
X0095319Y0129324D01*
X0095394Y0129216D01*
X0095466Y0129106D01*
X0095534Y0128994D01*
X0095599Y0128880D01*
X0095660Y0128763D01*
X0095718Y0128645D01*
X0095772Y0128525D01*
X0095823Y0128404D01*
X0095870Y0128281D01*
X0095913Y0128157D01*
X0095952Y0128032D01*
X0095988Y0127905D01*
X0096019Y0127777D01*
X0096047Y0127649D01*
X0096071Y0127520D01*
X0096091Y0127390D01*
X0096107Y0127259D01*
X0096119Y0127128D01*
X0096127Y0126997D01*
X0096131Y0126866D01*
X0096131Y0126734D01*
X0096127Y0126603D01*
X0096119Y0126472D01*
X0096107Y0126341D01*
X0096091Y0126210D01*
X0096071Y0126080D01*
X0096047Y0125951D01*
X0096019Y0125823D01*
X0095988Y0125695D01*
X0095952Y0125568D01*
X0095913Y0125443D01*
X0095870Y0125319D01*
X0095823Y0125196D01*
X0095772Y0125075D01*
X0095718Y0124955D01*
X0095660Y0124837D01*
X0095599Y0124720D01*
X0095534Y0124606D01*
X0095466Y0124494D01*
X0095394Y0124384D01*
X0095319Y0124276D01*
X0095241Y0124170D01*
X0095160Y0124067D01*
X0095075Y0123966D01*
X0094988Y0123868D01*
X0094897Y0123773D01*
X0094804Y0123680D01*
X0094708Y0123590D01*
X0094609Y0123503D01*
X0094508Y0123420D01*
X0094404Y0123339D01*
X0094298Y0123262D01*
X0094189Y0123188D01*
X0094078Y0123117D01*
X0093966Y0123049D01*
X0093851Y0122985D01*
X0093734Y0122925D01*
X0093615Y0122868D01*
X0093495Y0122815D01*
X0093374Y0122765D01*
X0093250Y0122719D01*
X0093126Y0122677D01*
X0093000Y0122639D01*
X0092873Y0122604D01*
X0092745Y0122573D01*
X0092617Y0122547D01*
X0092487Y0122524D01*
X0092357Y0122505D01*
X0092227Y0122490D01*
X0092096Y0122479D01*
X0091964Y0122472D01*
X0091833Y0122469D01*
X0091701Y0122470D01*
X0091570Y0122475D01*
X0091439Y0122484D01*
X0091308Y0122497D01*
X0091178Y0122514D01*
X0091048Y0122535D01*
X0090919Y0122560D01*
X0090791Y0122588D01*
X0090663Y0122621D01*
X0090537Y0122657D01*
X0090412Y0122698D01*
X0090288Y0122742D01*
X0090165Y0122789D01*
X0090044Y0122841D01*
X0089925Y0122896D01*
X0089807Y0122955D01*
X0089692Y0123017D01*
X0089578Y0123083D01*
X0089466Y0123152D01*
X0089356Y0123224D01*
X0089249Y0123300D01*
X0089144Y0123379D01*
X0089041Y0123461D01*
X0088941Y0123546D01*
X0088844Y0123635D01*
X0088749Y0123726D01*
X0088657Y0123820D01*
X0088568Y0123917D01*
X0088482Y0124016D01*
X0088399Y0124118D01*
X0088319Y0124223D01*
X0088243Y0124329D01*
X0088170Y0124438D01*
X0088100Y0124550D01*
X0088033Y0124663D01*
X0087970Y0124778D01*
X0087910Y0124896D01*
X0087854Y0125014D01*
X0087802Y0125135D01*
X0087753Y0125257D01*
X0087708Y0125381D01*
X0087667Y0125505D01*
X0087630Y0125632D01*
X0087596Y0125759D01*
X0087566Y0125887D01*
X0087541Y0126016D01*
X0087519Y0126145D01*
X0087501Y0126275D01*
X0087487Y0126406D01*
X0087477Y0126537D01*
X0087471Y0126669D01*
X0087469Y0126800D01*
X0132469Y0126800D02*
X0132471Y0126931D01*
X0132477Y0127063D01*
X0132487Y0127194D01*
X0132501Y0127325D01*
X0132519Y0127455D01*
X0132541Y0127584D01*
X0132566Y0127713D01*
X0132596Y0127841D01*
X0132630Y0127968D01*
X0132667Y0128095D01*
X0132708Y0128219D01*
X0132753Y0128343D01*
X0132802Y0128465D01*
X0132854Y0128586D01*
X0132910Y0128704D01*
X0132970Y0128822D01*
X0133033Y0128937D01*
X0133100Y0129050D01*
X0133170Y0129162D01*
X0133243Y0129271D01*
X0133319Y0129377D01*
X0133399Y0129482D01*
X0133482Y0129584D01*
X0133568Y0129683D01*
X0133657Y0129780D01*
X0133749Y0129874D01*
X0133844Y0129965D01*
X0133941Y0130054D01*
X0134041Y0130139D01*
X0134144Y0130221D01*
X0134249Y0130300D01*
X0134356Y0130376D01*
X0134466Y0130448D01*
X0134578Y0130517D01*
X0134692Y0130583D01*
X0134807Y0130645D01*
X0134925Y0130704D01*
X0135044Y0130759D01*
X0135165Y0130811D01*
X0135288Y0130858D01*
X0135412Y0130902D01*
X0135537Y0130943D01*
X0135663Y0130979D01*
X0135791Y0131012D01*
X0135919Y0131040D01*
X0136048Y0131065D01*
X0136178Y0131086D01*
X0136308Y0131103D01*
X0136439Y0131116D01*
X0136570Y0131125D01*
X0136701Y0131130D01*
X0136833Y0131131D01*
X0136964Y0131128D01*
X0137096Y0131121D01*
X0137227Y0131110D01*
X0137357Y0131095D01*
X0137487Y0131076D01*
X0137617Y0131053D01*
X0137745Y0131027D01*
X0137873Y0130996D01*
X0138000Y0130961D01*
X0138126Y0130923D01*
X0138250Y0130881D01*
X0138374Y0130835D01*
X0138495Y0130785D01*
X0138615Y0130732D01*
X0138734Y0130675D01*
X0138851Y0130615D01*
X0138965Y0130551D01*
X0139078Y0130483D01*
X0139189Y0130412D01*
X0139298Y0130338D01*
X0139404Y0130261D01*
X0139508Y0130180D01*
X0139609Y0130097D01*
X0139708Y0130010D01*
X0139804Y0129920D01*
X0139897Y0129827D01*
X0139988Y0129732D01*
X0140075Y0129634D01*
X0140160Y0129533D01*
X0140241Y0129430D01*
X0140319Y0129324D01*
X0140394Y0129216D01*
X0140466Y0129106D01*
X0140534Y0128994D01*
X0140599Y0128880D01*
X0140660Y0128763D01*
X0140718Y0128645D01*
X0140772Y0128525D01*
X0140823Y0128404D01*
X0140870Y0128281D01*
X0140913Y0128157D01*
X0140952Y0128032D01*
X0140988Y0127905D01*
X0141019Y0127777D01*
X0141047Y0127649D01*
X0141071Y0127520D01*
X0141091Y0127390D01*
X0141107Y0127259D01*
X0141119Y0127128D01*
X0141127Y0126997D01*
X0141131Y0126866D01*
X0141131Y0126734D01*
X0141127Y0126603D01*
X0141119Y0126472D01*
X0141107Y0126341D01*
X0141091Y0126210D01*
X0141071Y0126080D01*
X0141047Y0125951D01*
X0141019Y0125823D01*
X0140988Y0125695D01*
X0140952Y0125568D01*
X0140913Y0125443D01*
X0140870Y0125319D01*
X0140823Y0125196D01*
X0140772Y0125075D01*
X0140718Y0124955D01*
X0140660Y0124837D01*
X0140599Y0124720D01*
X0140534Y0124606D01*
X0140466Y0124494D01*
X0140394Y0124384D01*
X0140319Y0124276D01*
X0140241Y0124170D01*
X0140160Y0124067D01*
X0140075Y0123966D01*
X0139988Y0123868D01*
X0139897Y0123773D01*
X0139804Y0123680D01*
X0139708Y0123590D01*
X0139609Y0123503D01*
X0139508Y0123420D01*
X0139404Y0123339D01*
X0139298Y0123262D01*
X0139189Y0123188D01*
X0139078Y0123117D01*
X0138966Y0123049D01*
X0138851Y0122985D01*
X0138734Y0122925D01*
X0138615Y0122868D01*
X0138495Y0122815D01*
X0138374Y0122765D01*
X0138250Y0122719D01*
X0138126Y0122677D01*
X0138000Y0122639D01*
X0137873Y0122604D01*
X0137745Y0122573D01*
X0137617Y0122547D01*
X0137487Y0122524D01*
X0137357Y0122505D01*
X0137227Y0122490D01*
X0137096Y0122479D01*
X0136964Y0122472D01*
X0136833Y0122469D01*
X0136701Y0122470D01*
X0136570Y0122475D01*
X0136439Y0122484D01*
X0136308Y0122497D01*
X0136178Y0122514D01*
X0136048Y0122535D01*
X0135919Y0122560D01*
X0135791Y0122588D01*
X0135663Y0122621D01*
X0135537Y0122657D01*
X0135412Y0122698D01*
X0135288Y0122742D01*
X0135165Y0122789D01*
X0135044Y0122841D01*
X0134925Y0122896D01*
X0134807Y0122955D01*
X0134692Y0123017D01*
X0134578Y0123083D01*
X0134466Y0123152D01*
X0134356Y0123224D01*
X0134249Y0123300D01*
X0134144Y0123379D01*
X0134041Y0123461D01*
X0133941Y0123546D01*
X0133844Y0123635D01*
X0133749Y0123726D01*
X0133657Y0123820D01*
X0133568Y0123917D01*
X0133482Y0124016D01*
X0133399Y0124118D01*
X0133319Y0124223D01*
X0133243Y0124329D01*
X0133170Y0124438D01*
X0133100Y0124550D01*
X0133033Y0124663D01*
X0132970Y0124778D01*
X0132910Y0124896D01*
X0132854Y0125014D01*
X0132802Y0125135D01*
X0132753Y0125257D01*
X0132708Y0125381D01*
X0132667Y0125505D01*
X0132630Y0125632D01*
X0132596Y0125759D01*
X0132566Y0125887D01*
X0132541Y0126016D01*
X0132519Y0126145D01*
X0132501Y0126275D01*
X0132487Y0126406D01*
X0132477Y0126537D01*
X0132471Y0126669D01*
X0132469Y0126800D01*
X0132469Y0206800D02*
X0132471Y0206931D01*
X0132477Y0207063D01*
X0132487Y0207194D01*
X0132501Y0207325D01*
X0132519Y0207455D01*
X0132541Y0207584D01*
X0132566Y0207713D01*
X0132596Y0207841D01*
X0132630Y0207968D01*
X0132667Y0208095D01*
X0132708Y0208219D01*
X0132753Y0208343D01*
X0132802Y0208465D01*
X0132854Y0208586D01*
X0132910Y0208704D01*
X0132970Y0208822D01*
X0133033Y0208937D01*
X0133100Y0209050D01*
X0133170Y0209162D01*
X0133243Y0209271D01*
X0133319Y0209377D01*
X0133399Y0209482D01*
X0133482Y0209584D01*
X0133568Y0209683D01*
X0133657Y0209780D01*
X0133749Y0209874D01*
X0133844Y0209965D01*
X0133941Y0210054D01*
X0134041Y0210139D01*
X0134144Y0210221D01*
X0134249Y0210300D01*
X0134356Y0210376D01*
X0134466Y0210448D01*
X0134578Y0210517D01*
X0134692Y0210583D01*
X0134807Y0210645D01*
X0134925Y0210704D01*
X0135044Y0210759D01*
X0135165Y0210811D01*
X0135288Y0210858D01*
X0135412Y0210902D01*
X0135537Y0210943D01*
X0135663Y0210979D01*
X0135791Y0211012D01*
X0135919Y0211040D01*
X0136048Y0211065D01*
X0136178Y0211086D01*
X0136308Y0211103D01*
X0136439Y0211116D01*
X0136570Y0211125D01*
X0136701Y0211130D01*
X0136833Y0211131D01*
X0136964Y0211128D01*
X0137096Y0211121D01*
X0137227Y0211110D01*
X0137357Y0211095D01*
X0137487Y0211076D01*
X0137617Y0211053D01*
X0137745Y0211027D01*
X0137873Y0210996D01*
X0138000Y0210961D01*
X0138126Y0210923D01*
X0138250Y0210881D01*
X0138374Y0210835D01*
X0138495Y0210785D01*
X0138615Y0210732D01*
X0138734Y0210675D01*
X0138851Y0210615D01*
X0138965Y0210551D01*
X0139078Y0210483D01*
X0139189Y0210412D01*
X0139298Y0210338D01*
X0139404Y0210261D01*
X0139508Y0210180D01*
X0139609Y0210097D01*
X0139708Y0210010D01*
X0139804Y0209920D01*
X0139897Y0209827D01*
X0139988Y0209732D01*
X0140075Y0209634D01*
X0140160Y0209533D01*
X0140241Y0209430D01*
X0140319Y0209324D01*
X0140394Y0209216D01*
X0140466Y0209106D01*
X0140534Y0208994D01*
X0140599Y0208880D01*
X0140660Y0208763D01*
X0140718Y0208645D01*
X0140772Y0208525D01*
X0140823Y0208404D01*
X0140870Y0208281D01*
X0140913Y0208157D01*
X0140952Y0208032D01*
X0140988Y0207905D01*
X0141019Y0207777D01*
X0141047Y0207649D01*
X0141071Y0207520D01*
X0141091Y0207390D01*
X0141107Y0207259D01*
X0141119Y0207128D01*
X0141127Y0206997D01*
X0141131Y0206866D01*
X0141131Y0206734D01*
X0141127Y0206603D01*
X0141119Y0206472D01*
X0141107Y0206341D01*
X0141091Y0206210D01*
X0141071Y0206080D01*
X0141047Y0205951D01*
X0141019Y0205823D01*
X0140988Y0205695D01*
X0140952Y0205568D01*
X0140913Y0205443D01*
X0140870Y0205319D01*
X0140823Y0205196D01*
X0140772Y0205075D01*
X0140718Y0204955D01*
X0140660Y0204837D01*
X0140599Y0204720D01*
X0140534Y0204606D01*
X0140466Y0204494D01*
X0140394Y0204384D01*
X0140319Y0204276D01*
X0140241Y0204170D01*
X0140160Y0204067D01*
X0140075Y0203966D01*
X0139988Y0203868D01*
X0139897Y0203773D01*
X0139804Y0203680D01*
X0139708Y0203590D01*
X0139609Y0203503D01*
X0139508Y0203420D01*
X0139404Y0203339D01*
X0139298Y0203262D01*
X0139189Y0203188D01*
X0139078Y0203117D01*
X0138966Y0203049D01*
X0138851Y0202985D01*
X0138734Y0202925D01*
X0138615Y0202868D01*
X0138495Y0202815D01*
X0138374Y0202765D01*
X0138250Y0202719D01*
X0138126Y0202677D01*
X0138000Y0202639D01*
X0137873Y0202604D01*
X0137745Y0202573D01*
X0137617Y0202547D01*
X0137487Y0202524D01*
X0137357Y0202505D01*
X0137227Y0202490D01*
X0137096Y0202479D01*
X0136964Y0202472D01*
X0136833Y0202469D01*
X0136701Y0202470D01*
X0136570Y0202475D01*
X0136439Y0202484D01*
X0136308Y0202497D01*
X0136178Y0202514D01*
X0136048Y0202535D01*
X0135919Y0202560D01*
X0135791Y0202588D01*
X0135663Y0202621D01*
X0135537Y0202657D01*
X0135412Y0202698D01*
X0135288Y0202742D01*
X0135165Y0202789D01*
X0135044Y0202841D01*
X0134925Y0202896D01*
X0134807Y0202955D01*
X0134692Y0203017D01*
X0134578Y0203083D01*
X0134466Y0203152D01*
X0134356Y0203224D01*
X0134249Y0203300D01*
X0134144Y0203379D01*
X0134041Y0203461D01*
X0133941Y0203546D01*
X0133844Y0203635D01*
X0133749Y0203726D01*
X0133657Y0203820D01*
X0133568Y0203917D01*
X0133482Y0204016D01*
X0133399Y0204118D01*
X0133319Y0204223D01*
X0133243Y0204329D01*
X0133170Y0204438D01*
X0133100Y0204550D01*
X0133033Y0204663D01*
X0132970Y0204778D01*
X0132910Y0204896D01*
X0132854Y0205014D01*
X0132802Y0205135D01*
X0132753Y0205257D01*
X0132708Y0205381D01*
X0132667Y0205505D01*
X0132630Y0205632D01*
X0132596Y0205759D01*
X0132566Y0205887D01*
X0132541Y0206016D01*
X0132519Y0206145D01*
X0132501Y0206275D01*
X0132487Y0206406D01*
X0132477Y0206537D01*
X0132471Y0206669D01*
X0132469Y0206800D01*
X0087469Y0206800D02*
X0087471Y0206931D01*
X0087477Y0207063D01*
X0087487Y0207194D01*
X0087501Y0207325D01*
X0087519Y0207455D01*
X0087541Y0207584D01*
X0087566Y0207713D01*
X0087596Y0207841D01*
X0087630Y0207968D01*
X0087667Y0208095D01*
X0087708Y0208219D01*
X0087753Y0208343D01*
X0087802Y0208465D01*
X0087854Y0208586D01*
X0087910Y0208704D01*
X0087970Y0208822D01*
X0088033Y0208937D01*
X0088100Y0209050D01*
X0088170Y0209162D01*
X0088243Y0209271D01*
X0088319Y0209377D01*
X0088399Y0209482D01*
X0088482Y0209584D01*
X0088568Y0209683D01*
X0088657Y0209780D01*
X0088749Y0209874D01*
X0088844Y0209965D01*
X0088941Y0210054D01*
X0089041Y0210139D01*
X0089144Y0210221D01*
X0089249Y0210300D01*
X0089356Y0210376D01*
X0089466Y0210448D01*
X0089578Y0210517D01*
X0089692Y0210583D01*
X0089807Y0210645D01*
X0089925Y0210704D01*
X0090044Y0210759D01*
X0090165Y0210811D01*
X0090288Y0210858D01*
X0090412Y0210902D01*
X0090537Y0210943D01*
X0090663Y0210979D01*
X0090791Y0211012D01*
X0090919Y0211040D01*
X0091048Y0211065D01*
X0091178Y0211086D01*
X0091308Y0211103D01*
X0091439Y0211116D01*
X0091570Y0211125D01*
X0091701Y0211130D01*
X0091833Y0211131D01*
X0091964Y0211128D01*
X0092096Y0211121D01*
X0092227Y0211110D01*
X0092357Y0211095D01*
X0092487Y0211076D01*
X0092617Y0211053D01*
X0092745Y0211027D01*
X0092873Y0210996D01*
X0093000Y0210961D01*
X0093126Y0210923D01*
X0093250Y0210881D01*
X0093374Y0210835D01*
X0093495Y0210785D01*
X0093615Y0210732D01*
X0093734Y0210675D01*
X0093851Y0210615D01*
X0093965Y0210551D01*
X0094078Y0210483D01*
X0094189Y0210412D01*
X0094298Y0210338D01*
X0094404Y0210261D01*
X0094508Y0210180D01*
X0094609Y0210097D01*
X0094708Y0210010D01*
X0094804Y0209920D01*
X0094897Y0209827D01*
X0094988Y0209732D01*
X0095075Y0209634D01*
X0095160Y0209533D01*
X0095241Y0209430D01*
X0095319Y0209324D01*
X0095394Y0209216D01*
X0095466Y0209106D01*
X0095534Y0208994D01*
X0095599Y0208880D01*
X0095660Y0208763D01*
X0095718Y0208645D01*
X0095772Y0208525D01*
X0095823Y0208404D01*
X0095870Y0208281D01*
X0095913Y0208157D01*
X0095952Y0208032D01*
X0095988Y0207905D01*
X0096019Y0207777D01*
X0096047Y0207649D01*
X0096071Y0207520D01*
X0096091Y0207390D01*
X0096107Y0207259D01*
X0096119Y0207128D01*
X0096127Y0206997D01*
X0096131Y0206866D01*
X0096131Y0206734D01*
X0096127Y0206603D01*
X0096119Y0206472D01*
X0096107Y0206341D01*
X0096091Y0206210D01*
X0096071Y0206080D01*
X0096047Y0205951D01*
X0096019Y0205823D01*
X0095988Y0205695D01*
X0095952Y0205568D01*
X0095913Y0205443D01*
X0095870Y0205319D01*
X0095823Y0205196D01*
X0095772Y0205075D01*
X0095718Y0204955D01*
X0095660Y0204837D01*
X0095599Y0204720D01*
X0095534Y0204606D01*
X0095466Y0204494D01*
X0095394Y0204384D01*
X0095319Y0204276D01*
X0095241Y0204170D01*
X0095160Y0204067D01*
X0095075Y0203966D01*
X0094988Y0203868D01*
X0094897Y0203773D01*
X0094804Y0203680D01*
X0094708Y0203590D01*
X0094609Y0203503D01*
X0094508Y0203420D01*
X0094404Y0203339D01*
X0094298Y0203262D01*
X0094189Y0203188D01*
X0094078Y0203117D01*
X0093966Y0203049D01*
X0093851Y0202985D01*
X0093734Y0202925D01*
X0093615Y0202868D01*
X0093495Y0202815D01*
X0093374Y0202765D01*
X0093250Y0202719D01*
X0093126Y0202677D01*
X0093000Y0202639D01*
X0092873Y0202604D01*
X0092745Y0202573D01*
X0092617Y0202547D01*
X0092487Y0202524D01*
X0092357Y0202505D01*
X0092227Y0202490D01*
X0092096Y0202479D01*
X0091964Y0202472D01*
X0091833Y0202469D01*
X0091701Y0202470D01*
X0091570Y0202475D01*
X0091439Y0202484D01*
X0091308Y0202497D01*
X0091178Y0202514D01*
X0091048Y0202535D01*
X0090919Y0202560D01*
X0090791Y0202588D01*
X0090663Y0202621D01*
X0090537Y0202657D01*
X0090412Y0202698D01*
X0090288Y0202742D01*
X0090165Y0202789D01*
X0090044Y0202841D01*
X0089925Y0202896D01*
X0089807Y0202955D01*
X0089692Y0203017D01*
X0089578Y0203083D01*
X0089466Y0203152D01*
X0089356Y0203224D01*
X0089249Y0203300D01*
X0089144Y0203379D01*
X0089041Y0203461D01*
X0088941Y0203546D01*
X0088844Y0203635D01*
X0088749Y0203726D01*
X0088657Y0203820D01*
X0088568Y0203917D01*
X0088482Y0204016D01*
X0088399Y0204118D01*
X0088319Y0204223D01*
X0088243Y0204329D01*
X0088170Y0204438D01*
X0088100Y0204550D01*
X0088033Y0204663D01*
X0087970Y0204778D01*
X0087910Y0204896D01*
X0087854Y0205014D01*
X0087802Y0205135D01*
X0087753Y0205257D01*
X0087708Y0205381D01*
X0087667Y0205505D01*
X0087630Y0205632D01*
X0087596Y0205759D01*
X0087566Y0205887D01*
X0087541Y0206016D01*
X0087519Y0206145D01*
X0087501Y0206275D01*
X0087487Y0206406D01*
X0087477Y0206537D01*
X0087471Y0206669D01*
X0087469Y0206800D01*
X0036219Y0206800D02*
X0036221Y0206931D01*
X0036227Y0207063D01*
X0036237Y0207194D01*
X0036251Y0207325D01*
X0036269Y0207455D01*
X0036291Y0207584D01*
X0036316Y0207713D01*
X0036346Y0207841D01*
X0036380Y0207968D01*
X0036417Y0208095D01*
X0036458Y0208219D01*
X0036503Y0208343D01*
X0036552Y0208465D01*
X0036604Y0208586D01*
X0036660Y0208704D01*
X0036720Y0208822D01*
X0036783Y0208937D01*
X0036850Y0209050D01*
X0036920Y0209162D01*
X0036993Y0209271D01*
X0037069Y0209377D01*
X0037149Y0209482D01*
X0037232Y0209584D01*
X0037318Y0209683D01*
X0037407Y0209780D01*
X0037499Y0209874D01*
X0037594Y0209965D01*
X0037691Y0210054D01*
X0037791Y0210139D01*
X0037894Y0210221D01*
X0037999Y0210300D01*
X0038106Y0210376D01*
X0038216Y0210448D01*
X0038328Y0210517D01*
X0038442Y0210583D01*
X0038557Y0210645D01*
X0038675Y0210704D01*
X0038794Y0210759D01*
X0038915Y0210811D01*
X0039038Y0210858D01*
X0039162Y0210902D01*
X0039287Y0210943D01*
X0039413Y0210979D01*
X0039541Y0211012D01*
X0039669Y0211040D01*
X0039798Y0211065D01*
X0039928Y0211086D01*
X0040058Y0211103D01*
X0040189Y0211116D01*
X0040320Y0211125D01*
X0040451Y0211130D01*
X0040583Y0211131D01*
X0040714Y0211128D01*
X0040846Y0211121D01*
X0040977Y0211110D01*
X0041107Y0211095D01*
X0041237Y0211076D01*
X0041367Y0211053D01*
X0041495Y0211027D01*
X0041623Y0210996D01*
X0041750Y0210961D01*
X0041876Y0210923D01*
X0042000Y0210881D01*
X0042124Y0210835D01*
X0042245Y0210785D01*
X0042365Y0210732D01*
X0042484Y0210675D01*
X0042601Y0210615D01*
X0042715Y0210551D01*
X0042828Y0210483D01*
X0042939Y0210412D01*
X0043048Y0210338D01*
X0043154Y0210261D01*
X0043258Y0210180D01*
X0043359Y0210097D01*
X0043458Y0210010D01*
X0043554Y0209920D01*
X0043647Y0209827D01*
X0043738Y0209732D01*
X0043825Y0209634D01*
X0043910Y0209533D01*
X0043991Y0209430D01*
X0044069Y0209324D01*
X0044144Y0209216D01*
X0044216Y0209106D01*
X0044284Y0208994D01*
X0044349Y0208880D01*
X0044410Y0208763D01*
X0044468Y0208645D01*
X0044522Y0208525D01*
X0044573Y0208404D01*
X0044620Y0208281D01*
X0044663Y0208157D01*
X0044702Y0208032D01*
X0044738Y0207905D01*
X0044769Y0207777D01*
X0044797Y0207649D01*
X0044821Y0207520D01*
X0044841Y0207390D01*
X0044857Y0207259D01*
X0044869Y0207128D01*
X0044877Y0206997D01*
X0044881Y0206866D01*
X0044881Y0206734D01*
X0044877Y0206603D01*
X0044869Y0206472D01*
X0044857Y0206341D01*
X0044841Y0206210D01*
X0044821Y0206080D01*
X0044797Y0205951D01*
X0044769Y0205823D01*
X0044738Y0205695D01*
X0044702Y0205568D01*
X0044663Y0205443D01*
X0044620Y0205319D01*
X0044573Y0205196D01*
X0044522Y0205075D01*
X0044468Y0204955D01*
X0044410Y0204837D01*
X0044349Y0204720D01*
X0044284Y0204606D01*
X0044216Y0204494D01*
X0044144Y0204384D01*
X0044069Y0204276D01*
X0043991Y0204170D01*
X0043910Y0204067D01*
X0043825Y0203966D01*
X0043738Y0203868D01*
X0043647Y0203773D01*
X0043554Y0203680D01*
X0043458Y0203590D01*
X0043359Y0203503D01*
X0043258Y0203420D01*
X0043154Y0203339D01*
X0043048Y0203262D01*
X0042939Y0203188D01*
X0042828Y0203117D01*
X0042716Y0203049D01*
X0042601Y0202985D01*
X0042484Y0202925D01*
X0042365Y0202868D01*
X0042245Y0202815D01*
X0042124Y0202765D01*
X0042000Y0202719D01*
X0041876Y0202677D01*
X0041750Y0202639D01*
X0041623Y0202604D01*
X0041495Y0202573D01*
X0041367Y0202547D01*
X0041237Y0202524D01*
X0041107Y0202505D01*
X0040977Y0202490D01*
X0040846Y0202479D01*
X0040714Y0202472D01*
X0040583Y0202469D01*
X0040451Y0202470D01*
X0040320Y0202475D01*
X0040189Y0202484D01*
X0040058Y0202497D01*
X0039928Y0202514D01*
X0039798Y0202535D01*
X0039669Y0202560D01*
X0039541Y0202588D01*
X0039413Y0202621D01*
X0039287Y0202657D01*
X0039162Y0202698D01*
X0039038Y0202742D01*
X0038915Y0202789D01*
X0038794Y0202841D01*
X0038675Y0202896D01*
X0038557Y0202955D01*
X0038442Y0203017D01*
X0038328Y0203083D01*
X0038216Y0203152D01*
X0038106Y0203224D01*
X0037999Y0203300D01*
X0037894Y0203379D01*
X0037791Y0203461D01*
X0037691Y0203546D01*
X0037594Y0203635D01*
X0037499Y0203726D01*
X0037407Y0203820D01*
X0037318Y0203917D01*
X0037232Y0204016D01*
X0037149Y0204118D01*
X0037069Y0204223D01*
X0036993Y0204329D01*
X0036920Y0204438D01*
X0036850Y0204550D01*
X0036783Y0204663D01*
X0036720Y0204778D01*
X0036660Y0204896D01*
X0036604Y0205014D01*
X0036552Y0205135D01*
X0036503Y0205257D01*
X0036458Y0205381D01*
X0036417Y0205505D01*
X0036380Y0205632D01*
X0036346Y0205759D01*
X0036316Y0205887D01*
X0036291Y0206016D01*
X0036269Y0206145D01*
X0036251Y0206275D01*
X0036237Y0206406D01*
X0036227Y0206537D01*
X0036221Y0206669D01*
X0036219Y0206800D01*
X0036219Y0286800D02*
X0036221Y0286931D01*
X0036227Y0287063D01*
X0036237Y0287194D01*
X0036251Y0287325D01*
X0036269Y0287455D01*
X0036291Y0287584D01*
X0036316Y0287713D01*
X0036346Y0287841D01*
X0036380Y0287968D01*
X0036417Y0288095D01*
X0036458Y0288219D01*
X0036503Y0288343D01*
X0036552Y0288465D01*
X0036604Y0288586D01*
X0036660Y0288704D01*
X0036720Y0288822D01*
X0036783Y0288937D01*
X0036850Y0289050D01*
X0036920Y0289162D01*
X0036993Y0289271D01*
X0037069Y0289377D01*
X0037149Y0289482D01*
X0037232Y0289584D01*
X0037318Y0289683D01*
X0037407Y0289780D01*
X0037499Y0289874D01*
X0037594Y0289965D01*
X0037691Y0290054D01*
X0037791Y0290139D01*
X0037894Y0290221D01*
X0037999Y0290300D01*
X0038106Y0290376D01*
X0038216Y0290448D01*
X0038328Y0290517D01*
X0038442Y0290583D01*
X0038557Y0290645D01*
X0038675Y0290704D01*
X0038794Y0290759D01*
X0038915Y0290811D01*
X0039038Y0290858D01*
X0039162Y0290902D01*
X0039287Y0290943D01*
X0039413Y0290979D01*
X0039541Y0291012D01*
X0039669Y0291040D01*
X0039798Y0291065D01*
X0039928Y0291086D01*
X0040058Y0291103D01*
X0040189Y0291116D01*
X0040320Y0291125D01*
X0040451Y0291130D01*
X0040583Y0291131D01*
X0040714Y0291128D01*
X0040846Y0291121D01*
X0040977Y0291110D01*
X0041107Y0291095D01*
X0041237Y0291076D01*
X0041367Y0291053D01*
X0041495Y0291027D01*
X0041623Y0290996D01*
X0041750Y0290961D01*
X0041876Y0290923D01*
X0042000Y0290881D01*
X0042124Y0290835D01*
X0042245Y0290785D01*
X0042365Y0290732D01*
X0042484Y0290675D01*
X0042601Y0290615D01*
X0042715Y0290551D01*
X0042828Y0290483D01*
X0042939Y0290412D01*
X0043048Y0290338D01*
X0043154Y0290261D01*
X0043258Y0290180D01*
X0043359Y0290097D01*
X0043458Y0290010D01*
X0043554Y0289920D01*
X0043647Y0289827D01*
X0043738Y0289732D01*
X0043825Y0289634D01*
X0043910Y0289533D01*
X0043991Y0289430D01*
X0044069Y0289324D01*
X0044144Y0289216D01*
X0044216Y0289106D01*
X0044284Y0288994D01*
X0044349Y0288880D01*
X0044410Y0288763D01*
X0044468Y0288645D01*
X0044522Y0288525D01*
X0044573Y0288404D01*
X0044620Y0288281D01*
X0044663Y0288157D01*
X0044702Y0288032D01*
X0044738Y0287905D01*
X0044769Y0287777D01*
X0044797Y0287649D01*
X0044821Y0287520D01*
X0044841Y0287390D01*
X0044857Y0287259D01*
X0044869Y0287128D01*
X0044877Y0286997D01*
X0044881Y0286866D01*
X0044881Y0286734D01*
X0044877Y0286603D01*
X0044869Y0286472D01*
X0044857Y0286341D01*
X0044841Y0286210D01*
X0044821Y0286080D01*
X0044797Y0285951D01*
X0044769Y0285823D01*
X0044738Y0285695D01*
X0044702Y0285568D01*
X0044663Y0285443D01*
X0044620Y0285319D01*
X0044573Y0285196D01*
X0044522Y0285075D01*
X0044468Y0284955D01*
X0044410Y0284837D01*
X0044349Y0284720D01*
X0044284Y0284606D01*
X0044216Y0284494D01*
X0044144Y0284384D01*
X0044069Y0284276D01*
X0043991Y0284170D01*
X0043910Y0284067D01*
X0043825Y0283966D01*
X0043738Y0283868D01*
X0043647Y0283773D01*
X0043554Y0283680D01*
X0043458Y0283590D01*
X0043359Y0283503D01*
X0043258Y0283420D01*
X0043154Y0283339D01*
X0043048Y0283262D01*
X0042939Y0283188D01*
X0042828Y0283117D01*
X0042716Y0283049D01*
X0042601Y0282985D01*
X0042484Y0282925D01*
X0042365Y0282868D01*
X0042245Y0282815D01*
X0042124Y0282765D01*
X0042000Y0282719D01*
X0041876Y0282677D01*
X0041750Y0282639D01*
X0041623Y0282604D01*
X0041495Y0282573D01*
X0041367Y0282547D01*
X0041237Y0282524D01*
X0041107Y0282505D01*
X0040977Y0282490D01*
X0040846Y0282479D01*
X0040714Y0282472D01*
X0040583Y0282469D01*
X0040451Y0282470D01*
X0040320Y0282475D01*
X0040189Y0282484D01*
X0040058Y0282497D01*
X0039928Y0282514D01*
X0039798Y0282535D01*
X0039669Y0282560D01*
X0039541Y0282588D01*
X0039413Y0282621D01*
X0039287Y0282657D01*
X0039162Y0282698D01*
X0039038Y0282742D01*
X0038915Y0282789D01*
X0038794Y0282841D01*
X0038675Y0282896D01*
X0038557Y0282955D01*
X0038442Y0283017D01*
X0038328Y0283083D01*
X0038216Y0283152D01*
X0038106Y0283224D01*
X0037999Y0283300D01*
X0037894Y0283379D01*
X0037791Y0283461D01*
X0037691Y0283546D01*
X0037594Y0283635D01*
X0037499Y0283726D01*
X0037407Y0283820D01*
X0037318Y0283917D01*
X0037232Y0284016D01*
X0037149Y0284118D01*
X0037069Y0284223D01*
X0036993Y0284329D01*
X0036920Y0284438D01*
X0036850Y0284550D01*
X0036783Y0284663D01*
X0036720Y0284778D01*
X0036660Y0284896D01*
X0036604Y0285014D01*
X0036552Y0285135D01*
X0036503Y0285257D01*
X0036458Y0285381D01*
X0036417Y0285505D01*
X0036380Y0285632D01*
X0036346Y0285759D01*
X0036316Y0285887D01*
X0036291Y0286016D01*
X0036269Y0286145D01*
X0036251Y0286275D01*
X0036237Y0286406D01*
X0036227Y0286537D01*
X0036221Y0286669D01*
X0036219Y0286800D01*
X0087469Y0286800D02*
X0087471Y0286931D01*
X0087477Y0287063D01*
X0087487Y0287194D01*
X0087501Y0287325D01*
X0087519Y0287455D01*
X0087541Y0287584D01*
X0087566Y0287713D01*
X0087596Y0287841D01*
X0087630Y0287968D01*
X0087667Y0288095D01*
X0087708Y0288219D01*
X0087753Y0288343D01*
X0087802Y0288465D01*
X0087854Y0288586D01*
X0087910Y0288704D01*
X0087970Y0288822D01*
X0088033Y0288937D01*
X0088100Y0289050D01*
X0088170Y0289162D01*
X0088243Y0289271D01*
X0088319Y0289377D01*
X0088399Y0289482D01*
X0088482Y0289584D01*
X0088568Y0289683D01*
X0088657Y0289780D01*
X0088749Y0289874D01*
X0088844Y0289965D01*
X0088941Y0290054D01*
X0089041Y0290139D01*
X0089144Y0290221D01*
X0089249Y0290300D01*
X0089356Y0290376D01*
X0089466Y0290448D01*
X0089578Y0290517D01*
X0089692Y0290583D01*
X0089807Y0290645D01*
X0089925Y0290704D01*
X0090044Y0290759D01*
X0090165Y0290811D01*
X0090288Y0290858D01*
X0090412Y0290902D01*
X0090537Y0290943D01*
X0090663Y0290979D01*
X0090791Y0291012D01*
X0090919Y0291040D01*
X0091048Y0291065D01*
X0091178Y0291086D01*
X0091308Y0291103D01*
X0091439Y0291116D01*
X0091570Y0291125D01*
X0091701Y0291130D01*
X0091833Y0291131D01*
X0091964Y0291128D01*
X0092096Y0291121D01*
X0092227Y0291110D01*
X0092357Y0291095D01*
X0092487Y0291076D01*
X0092617Y0291053D01*
X0092745Y0291027D01*
X0092873Y0290996D01*
X0093000Y0290961D01*
X0093126Y0290923D01*
X0093250Y0290881D01*
X0093374Y0290835D01*
X0093495Y0290785D01*
X0093615Y0290732D01*
X0093734Y0290675D01*
X0093851Y0290615D01*
X0093965Y0290551D01*
X0094078Y0290483D01*
X0094189Y0290412D01*
X0094298Y0290338D01*
X0094404Y0290261D01*
X0094508Y0290180D01*
X0094609Y0290097D01*
X0094708Y0290010D01*
X0094804Y0289920D01*
X0094897Y0289827D01*
X0094988Y0289732D01*
X0095075Y0289634D01*
X0095160Y0289533D01*
X0095241Y0289430D01*
X0095319Y0289324D01*
X0095394Y0289216D01*
X0095466Y0289106D01*
X0095534Y0288994D01*
X0095599Y0288880D01*
X0095660Y0288763D01*
X0095718Y0288645D01*
X0095772Y0288525D01*
X0095823Y0288404D01*
X0095870Y0288281D01*
X0095913Y0288157D01*
X0095952Y0288032D01*
X0095988Y0287905D01*
X0096019Y0287777D01*
X0096047Y0287649D01*
X0096071Y0287520D01*
X0096091Y0287390D01*
X0096107Y0287259D01*
X0096119Y0287128D01*
X0096127Y0286997D01*
X0096131Y0286866D01*
X0096131Y0286734D01*
X0096127Y0286603D01*
X0096119Y0286472D01*
X0096107Y0286341D01*
X0096091Y0286210D01*
X0096071Y0286080D01*
X0096047Y0285951D01*
X0096019Y0285823D01*
X0095988Y0285695D01*
X0095952Y0285568D01*
X0095913Y0285443D01*
X0095870Y0285319D01*
X0095823Y0285196D01*
X0095772Y0285075D01*
X0095718Y0284955D01*
X0095660Y0284837D01*
X0095599Y0284720D01*
X0095534Y0284606D01*
X0095466Y0284494D01*
X0095394Y0284384D01*
X0095319Y0284276D01*
X0095241Y0284170D01*
X0095160Y0284067D01*
X0095075Y0283966D01*
X0094988Y0283868D01*
X0094897Y0283773D01*
X0094804Y0283680D01*
X0094708Y0283590D01*
X0094609Y0283503D01*
X0094508Y0283420D01*
X0094404Y0283339D01*
X0094298Y0283262D01*
X0094189Y0283188D01*
X0094078Y0283117D01*
X0093966Y0283049D01*
X0093851Y0282985D01*
X0093734Y0282925D01*
X0093615Y0282868D01*
X0093495Y0282815D01*
X0093374Y0282765D01*
X0093250Y0282719D01*
X0093126Y0282677D01*
X0093000Y0282639D01*
X0092873Y0282604D01*
X0092745Y0282573D01*
X0092617Y0282547D01*
X0092487Y0282524D01*
X0092357Y0282505D01*
X0092227Y0282490D01*
X0092096Y0282479D01*
X0091964Y0282472D01*
X0091833Y0282469D01*
X0091701Y0282470D01*
X0091570Y0282475D01*
X0091439Y0282484D01*
X0091308Y0282497D01*
X0091178Y0282514D01*
X0091048Y0282535D01*
X0090919Y0282560D01*
X0090791Y0282588D01*
X0090663Y0282621D01*
X0090537Y0282657D01*
X0090412Y0282698D01*
X0090288Y0282742D01*
X0090165Y0282789D01*
X0090044Y0282841D01*
X0089925Y0282896D01*
X0089807Y0282955D01*
X0089692Y0283017D01*
X0089578Y0283083D01*
X0089466Y0283152D01*
X0089356Y0283224D01*
X0089249Y0283300D01*
X0089144Y0283379D01*
X0089041Y0283461D01*
X0088941Y0283546D01*
X0088844Y0283635D01*
X0088749Y0283726D01*
X0088657Y0283820D01*
X0088568Y0283917D01*
X0088482Y0284016D01*
X0088399Y0284118D01*
X0088319Y0284223D01*
X0088243Y0284329D01*
X0088170Y0284438D01*
X0088100Y0284550D01*
X0088033Y0284663D01*
X0087970Y0284778D01*
X0087910Y0284896D01*
X0087854Y0285014D01*
X0087802Y0285135D01*
X0087753Y0285257D01*
X0087708Y0285381D01*
X0087667Y0285505D01*
X0087630Y0285632D01*
X0087596Y0285759D01*
X0087566Y0285887D01*
X0087541Y0286016D01*
X0087519Y0286145D01*
X0087501Y0286275D01*
X0087487Y0286406D01*
X0087477Y0286537D01*
X0087471Y0286669D01*
X0087469Y0286800D01*
X0132469Y0286800D02*
X0132471Y0286931D01*
X0132477Y0287063D01*
X0132487Y0287194D01*
X0132501Y0287325D01*
X0132519Y0287455D01*
X0132541Y0287584D01*
X0132566Y0287713D01*
X0132596Y0287841D01*
X0132630Y0287968D01*
X0132667Y0288095D01*
X0132708Y0288219D01*
X0132753Y0288343D01*
X0132802Y0288465D01*
X0132854Y0288586D01*
X0132910Y0288704D01*
X0132970Y0288822D01*
X0133033Y0288937D01*
X0133100Y0289050D01*
X0133170Y0289162D01*
X0133243Y0289271D01*
X0133319Y0289377D01*
X0133399Y0289482D01*
X0133482Y0289584D01*
X0133568Y0289683D01*
X0133657Y0289780D01*
X0133749Y0289874D01*
X0133844Y0289965D01*
X0133941Y0290054D01*
X0134041Y0290139D01*
X0134144Y0290221D01*
X0134249Y0290300D01*
X0134356Y0290376D01*
X0134466Y0290448D01*
X0134578Y0290517D01*
X0134692Y0290583D01*
X0134807Y0290645D01*
X0134925Y0290704D01*
X0135044Y0290759D01*
X0135165Y0290811D01*
X0135288Y0290858D01*
X0135412Y0290902D01*
X0135537Y0290943D01*
X0135663Y0290979D01*
X0135791Y0291012D01*
X0135919Y0291040D01*
X0136048Y0291065D01*
X0136178Y0291086D01*
X0136308Y0291103D01*
X0136439Y0291116D01*
X0136570Y0291125D01*
X0136701Y0291130D01*
X0136833Y0291131D01*
X0136964Y0291128D01*
X0137096Y0291121D01*
X0137227Y0291110D01*
X0137357Y0291095D01*
X0137487Y0291076D01*
X0137617Y0291053D01*
X0137745Y0291027D01*
X0137873Y0290996D01*
X0138000Y0290961D01*
X0138126Y0290923D01*
X0138250Y0290881D01*
X0138374Y0290835D01*
X0138495Y0290785D01*
X0138615Y0290732D01*
X0138734Y0290675D01*
X0138851Y0290615D01*
X0138965Y0290551D01*
X0139078Y0290483D01*
X0139189Y0290412D01*
X0139298Y0290338D01*
X0139404Y0290261D01*
X0139508Y0290180D01*
X0139609Y0290097D01*
X0139708Y0290010D01*
X0139804Y0289920D01*
X0139897Y0289827D01*
X0139988Y0289732D01*
X0140075Y0289634D01*
X0140160Y0289533D01*
X0140241Y0289430D01*
X0140319Y0289324D01*
X0140394Y0289216D01*
X0140466Y0289106D01*
X0140534Y0288994D01*
X0140599Y0288880D01*
X0140660Y0288763D01*
X0140718Y0288645D01*
X0140772Y0288525D01*
X0140823Y0288404D01*
X0140870Y0288281D01*
X0140913Y0288157D01*
X0140952Y0288032D01*
X0140988Y0287905D01*
X0141019Y0287777D01*
X0141047Y0287649D01*
X0141071Y0287520D01*
X0141091Y0287390D01*
X0141107Y0287259D01*
X0141119Y0287128D01*
X0141127Y0286997D01*
X0141131Y0286866D01*
X0141131Y0286734D01*
X0141127Y0286603D01*
X0141119Y0286472D01*
X0141107Y0286341D01*
X0141091Y0286210D01*
X0141071Y0286080D01*
X0141047Y0285951D01*
X0141019Y0285823D01*
X0140988Y0285695D01*
X0140952Y0285568D01*
X0140913Y0285443D01*
X0140870Y0285319D01*
X0140823Y0285196D01*
X0140772Y0285075D01*
X0140718Y0284955D01*
X0140660Y0284837D01*
X0140599Y0284720D01*
X0140534Y0284606D01*
X0140466Y0284494D01*
X0140394Y0284384D01*
X0140319Y0284276D01*
X0140241Y0284170D01*
X0140160Y0284067D01*
X0140075Y0283966D01*
X0139988Y0283868D01*
X0139897Y0283773D01*
X0139804Y0283680D01*
X0139708Y0283590D01*
X0139609Y0283503D01*
X0139508Y0283420D01*
X0139404Y0283339D01*
X0139298Y0283262D01*
X0139189Y0283188D01*
X0139078Y0283117D01*
X0138966Y0283049D01*
X0138851Y0282985D01*
X0138734Y0282925D01*
X0138615Y0282868D01*
X0138495Y0282815D01*
X0138374Y0282765D01*
X0138250Y0282719D01*
X0138126Y0282677D01*
X0138000Y0282639D01*
X0137873Y0282604D01*
X0137745Y0282573D01*
X0137617Y0282547D01*
X0137487Y0282524D01*
X0137357Y0282505D01*
X0137227Y0282490D01*
X0137096Y0282479D01*
X0136964Y0282472D01*
X0136833Y0282469D01*
X0136701Y0282470D01*
X0136570Y0282475D01*
X0136439Y0282484D01*
X0136308Y0282497D01*
X0136178Y0282514D01*
X0136048Y0282535D01*
X0135919Y0282560D01*
X0135791Y0282588D01*
X0135663Y0282621D01*
X0135537Y0282657D01*
X0135412Y0282698D01*
X0135288Y0282742D01*
X0135165Y0282789D01*
X0135044Y0282841D01*
X0134925Y0282896D01*
X0134807Y0282955D01*
X0134692Y0283017D01*
X0134578Y0283083D01*
X0134466Y0283152D01*
X0134356Y0283224D01*
X0134249Y0283300D01*
X0134144Y0283379D01*
X0134041Y0283461D01*
X0133941Y0283546D01*
X0133844Y0283635D01*
X0133749Y0283726D01*
X0133657Y0283820D01*
X0133568Y0283917D01*
X0133482Y0284016D01*
X0133399Y0284118D01*
X0133319Y0284223D01*
X0133243Y0284329D01*
X0133170Y0284438D01*
X0133100Y0284550D01*
X0133033Y0284663D01*
X0132970Y0284778D01*
X0132910Y0284896D01*
X0132854Y0285014D01*
X0132802Y0285135D01*
X0132753Y0285257D01*
X0132708Y0285381D01*
X0132667Y0285505D01*
X0132630Y0285632D01*
X0132596Y0285759D01*
X0132566Y0285887D01*
X0132541Y0286016D01*
X0132519Y0286145D01*
X0132501Y0286275D01*
X0132487Y0286406D01*
X0132477Y0286537D01*
X0132471Y0286669D01*
X0132469Y0286800D01*
X0132469Y0366800D02*
X0132471Y0366931D01*
X0132477Y0367063D01*
X0132487Y0367194D01*
X0132501Y0367325D01*
X0132519Y0367455D01*
X0132541Y0367584D01*
X0132566Y0367713D01*
X0132596Y0367841D01*
X0132630Y0367968D01*
X0132667Y0368095D01*
X0132708Y0368219D01*
X0132753Y0368343D01*
X0132802Y0368465D01*
X0132854Y0368586D01*
X0132910Y0368704D01*
X0132970Y0368822D01*
X0133033Y0368937D01*
X0133100Y0369050D01*
X0133170Y0369162D01*
X0133243Y0369271D01*
X0133319Y0369377D01*
X0133399Y0369482D01*
X0133482Y0369584D01*
X0133568Y0369683D01*
X0133657Y0369780D01*
X0133749Y0369874D01*
X0133844Y0369965D01*
X0133941Y0370054D01*
X0134041Y0370139D01*
X0134144Y0370221D01*
X0134249Y0370300D01*
X0134356Y0370376D01*
X0134466Y0370448D01*
X0134578Y0370517D01*
X0134692Y0370583D01*
X0134807Y0370645D01*
X0134925Y0370704D01*
X0135044Y0370759D01*
X0135165Y0370811D01*
X0135288Y0370858D01*
X0135412Y0370902D01*
X0135537Y0370943D01*
X0135663Y0370979D01*
X0135791Y0371012D01*
X0135919Y0371040D01*
X0136048Y0371065D01*
X0136178Y0371086D01*
X0136308Y0371103D01*
X0136439Y0371116D01*
X0136570Y0371125D01*
X0136701Y0371130D01*
X0136833Y0371131D01*
X0136964Y0371128D01*
X0137096Y0371121D01*
X0137227Y0371110D01*
X0137357Y0371095D01*
X0137487Y0371076D01*
X0137617Y0371053D01*
X0137745Y0371027D01*
X0137873Y0370996D01*
X0138000Y0370961D01*
X0138126Y0370923D01*
X0138250Y0370881D01*
X0138374Y0370835D01*
X0138495Y0370785D01*
X0138615Y0370732D01*
X0138734Y0370675D01*
X0138851Y0370615D01*
X0138965Y0370551D01*
X0139078Y0370483D01*
X0139189Y0370412D01*
X0139298Y0370338D01*
X0139404Y0370261D01*
X0139508Y0370180D01*
X0139609Y0370097D01*
X0139708Y0370010D01*
X0139804Y0369920D01*
X0139897Y0369827D01*
X0139988Y0369732D01*
X0140075Y0369634D01*
X0140160Y0369533D01*
X0140241Y0369430D01*
X0140319Y0369324D01*
X0140394Y0369216D01*
X0140466Y0369106D01*
X0140534Y0368994D01*
X0140599Y0368880D01*
X0140660Y0368763D01*
X0140718Y0368645D01*
X0140772Y0368525D01*
X0140823Y0368404D01*
X0140870Y0368281D01*
X0140913Y0368157D01*
X0140952Y0368032D01*
X0140988Y0367905D01*
X0141019Y0367777D01*
X0141047Y0367649D01*
X0141071Y0367520D01*
X0141091Y0367390D01*
X0141107Y0367259D01*
X0141119Y0367128D01*
X0141127Y0366997D01*
X0141131Y0366866D01*
X0141131Y0366734D01*
X0141127Y0366603D01*
X0141119Y0366472D01*
X0141107Y0366341D01*
X0141091Y0366210D01*
X0141071Y0366080D01*
X0141047Y0365951D01*
X0141019Y0365823D01*
X0140988Y0365695D01*
X0140952Y0365568D01*
X0140913Y0365443D01*
X0140870Y0365319D01*
X0140823Y0365196D01*
X0140772Y0365075D01*
X0140718Y0364955D01*
X0140660Y0364837D01*
X0140599Y0364720D01*
X0140534Y0364606D01*
X0140466Y0364494D01*
X0140394Y0364384D01*
X0140319Y0364276D01*
X0140241Y0364170D01*
X0140160Y0364067D01*
X0140075Y0363966D01*
X0139988Y0363868D01*
X0139897Y0363773D01*
X0139804Y0363680D01*
X0139708Y0363590D01*
X0139609Y0363503D01*
X0139508Y0363420D01*
X0139404Y0363339D01*
X0139298Y0363262D01*
X0139189Y0363188D01*
X0139078Y0363117D01*
X0138966Y0363049D01*
X0138851Y0362985D01*
X0138734Y0362925D01*
X0138615Y0362868D01*
X0138495Y0362815D01*
X0138374Y0362765D01*
X0138250Y0362719D01*
X0138126Y0362677D01*
X0138000Y0362639D01*
X0137873Y0362604D01*
X0137745Y0362573D01*
X0137617Y0362547D01*
X0137487Y0362524D01*
X0137357Y0362505D01*
X0137227Y0362490D01*
X0137096Y0362479D01*
X0136964Y0362472D01*
X0136833Y0362469D01*
X0136701Y0362470D01*
X0136570Y0362475D01*
X0136439Y0362484D01*
X0136308Y0362497D01*
X0136178Y0362514D01*
X0136048Y0362535D01*
X0135919Y0362560D01*
X0135791Y0362588D01*
X0135663Y0362621D01*
X0135537Y0362657D01*
X0135412Y0362698D01*
X0135288Y0362742D01*
X0135165Y0362789D01*
X0135044Y0362841D01*
X0134925Y0362896D01*
X0134807Y0362955D01*
X0134692Y0363017D01*
X0134578Y0363083D01*
X0134466Y0363152D01*
X0134356Y0363224D01*
X0134249Y0363300D01*
X0134144Y0363379D01*
X0134041Y0363461D01*
X0133941Y0363546D01*
X0133844Y0363635D01*
X0133749Y0363726D01*
X0133657Y0363820D01*
X0133568Y0363917D01*
X0133482Y0364016D01*
X0133399Y0364118D01*
X0133319Y0364223D01*
X0133243Y0364329D01*
X0133170Y0364438D01*
X0133100Y0364550D01*
X0133033Y0364663D01*
X0132970Y0364778D01*
X0132910Y0364896D01*
X0132854Y0365014D01*
X0132802Y0365135D01*
X0132753Y0365257D01*
X0132708Y0365381D01*
X0132667Y0365505D01*
X0132630Y0365632D01*
X0132596Y0365759D01*
X0132566Y0365887D01*
X0132541Y0366016D01*
X0132519Y0366145D01*
X0132501Y0366275D01*
X0132487Y0366406D01*
X0132477Y0366537D01*
X0132471Y0366669D01*
X0132469Y0366800D01*
X0087469Y0366800D02*
X0087471Y0366931D01*
X0087477Y0367063D01*
X0087487Y0367194D01*
X0087501Y0367325D01*
X0087519Y0367455D01*
X0087541Y0367584D01*
X0087566Y0367713D01*
X0087596Y0367841D01*
X0087630Y0367968D01*
X0087667Y0368095D01*
X0087708Y0368219D01*
X0087753Y0368343D01*
X0087802Y0368465D01*
X0087854Y0368586D01*
X0087910Y0368704D01*
X0087970Y0368822D01*
X0088033Y0368937D01*
X0088100Y0369050D01*
X0088170Y0369162D01*
X0088243Y0369271D01*
X0088319Y0369377D01*
X0088399Y0369482D01*
X0088482Y0369584D01*
X0088568Y0369683D01*
X0088657Y0369780D01*
X0088749Y0369874D01*
X0088844Y0369965D01*
X0088941Y0370054D01*
X0089041Y0370139D01*
X0089144Y0370221D01*
X0089249Y0370300D01*
X0089356Y0370376D01*
X0089466Y0370448D01*
X0089578Y0370517D01*
X0089692Y0370583D01*
X0089807Y0370645D01*
X0089925Y0370704D01*
X0090044Y0370759D01*
X0090165Y0370811D01*
X0090288Y0370858D01*
X0090412Y0370902D01*
X0090537Y0370943D01*
X0090663Y0370979D01*
X0090791Y0371012D01*
X0090919Y0371040D01*
X0091048Y0371065D01*
X0091178Y0371086D01*
X0091308Y0371103D01*
X0091439Y0371116D01*
X0091570Y0371125D01*
X0091701Y0371130D01*
X0091833Y0371131D01*
X0091964Y0371128D01*
X0092096Y0371121D01*
X0092227Y0371110D01*
X0092357Y0371095D01*
X0092487Y0371076D01*
X0092617Y0371053D01*
X0092745Y0371027D01*
X0092873Y0370996D01*
X0093000Y0370961D01*
X0093126Y0370923D01*
X0093250Y0370881D01*
X0093374Y0370835D01*
X0093495Y0370785D01*
X0093615Y0370732D01*
X0093734Y0370675D01*
X0093851Y0370615D01*
X0093965Y0370551D01*
X0094078Y0370483D01*
X0094189Y0370412D01*
X0094298Y0370338D01*
X0094404Y0370261D01*
X0094508Y0370180D01*
X0094609Y0370097D01*
X0094708Y0370010D01*
X0094804Y0369920D01*
X0094897Y0369827D01*
X0094988Y0369732D01*
X0095075Y0369634D01*
X0095160Y0369533D01*
X0095241Y0369430D01*
X0095319Y0369324D01*
X0095394Y0369216D01*
X0095466Y0369106D01*
X0095534Y0368994D01*
X0095599Y0368880D01*
X0095660Y0368763D01*
X0095718Y0368645D01*
X0095772Y0368525D01*
X0095823Y0368404D01*
X0095870Y0368281D01*
X0095913Y0368157D01*
X0095952Y0368032D01*
X0095988Y0367905D01*
X0096019Y0367777D01*
X0096047Y0367649D01*
X0096071Y0367520D01*
X0096091Y0367390D01*
X0096107Y0367259D01*
X0096119Y0367128D01*
X0096127Y0366997D01*
X0096131Y0366866D01*
X0096131Y0366734D01*
X0096127Y0366603D01*
X0096119Y0366472D01*
X0096107Y0366341D01*
X0096091Y0366210D01*
X0096071Y0366080D01*
X0096047Y0365951D01*
X0096019Y0365823D01*
X0095988Y0365695D01*
X0095952Y0365568D01*
X0095913Y0365443D01*
X0095870Y0365319D01*
X0095823Y0365196D01*
X0095772Y0365075D01*
X0095718Y0364955D01*
X0095660Y0364837D01*
X0095599Y0364720D01*
X0095534Y0364606D01*
X0095466Y0364494D01*
X0095394Y0364384D01*
X0095319Y0364276D01*
X0095241Y0364170D01*
X0095160Y0364067D01*
X0095075Y0363966D01*
X0094988Y0363868D01*
X0094897Y0363773D01*
X0094804Y0363680D01*
X0094708Y0363590D01*
X0094609Y0363503D01*
X0094508Y0363420D01*
X0094404Y0363339D01*
X0094298Y0363262D01*
X0094189Y0363188D01*
X0094078Y0363117D01*
X0093966Y0363049D01*
X0093851Y0362985D01*
X0093734Y0362925D01*
X0093615Y0362868D01*
X0093495Y0362815D01*
X0093374Y0362765D01*
X0093250Y0362719D01*
X0093126Y0362677D01*
X0093000Y0362639D01*
X0092873Y0362604D01*
X0092745Y0362573D01*
X0092617Y0362547D01*
X0092487Y0362524D01*
X0092357Y0362505D01*
X0092227Y0362490D01*
X0092096Y0362479D01*
X0091964Y0362472D01*
X0091833Y0362469D01*
X0091701Y0362470D01*
X0091570Y0362475D01*
X0091439Y0362484D01*
X0091308Y0362497D01*
X0091178Y0362514D01*
X0091048Y0362535D01*
X0090919Y0362560D01*
X0090791Y0362588D01*
X0090663Y0362621D01*
X0090537Y0362657D01*
X0090412Y0362698D01*
X0090288Y0362742D01*
X0090165Y0362789D01*
X0090044Y0362841D01*
X0089925Y0362896D01*
X0089807Y0362955D01*
X0089692Y0363017D01*
X0089578Y0363083D01*
X0089466Y0363152D01*
X0089356Y0363224D01*
X0089249Y0363300D01*
X0089144Y0363379D01*
X0089041Y0363461D01*
X0088941Y0363546D01*
X0088844Y0363635D01*
X0088749Y0363726D01*
X0088657Y0363820D01*
X0088568Y0363917D01*
X0088482Y0364016D01*
X0088399Y0364118D01*
X0088319Y0364223D01*
X0088243Y0364329D01*
X0088170Y0364438D01*
X0088100Y0364550D01*
X0088033Y0364663D01*
X0087970Y0364778D01*
X0087910Y0364896D01*
X0087854Y0365014D01*
X0087802Y0365135D01*
X0087753Y0365257D01*
X0087708Y0365381D01*
X0087667Y0365505D01*
X0087630Y0365632D01*
X0087596Y0365759D01*
X0087566Y0365887D01*
X0087541Y0366016D01*
X0087519Y0366145D01*
X0087501Y0366275D01*
X0087487Y0366406D01*
X0087477Y0366537D01*
X0087471Y0366669D01*
X0087469Y0366800D01*
X0036219Y0366800D02*
X0036221Y0366931D01*
X0036227Y0367063D01*
X0036237Y0367194D01*
X0036251Y0367325D01*
X0036269Y0367455D01*
X0036291Y0367584D01*
X0036316Y0367713D01*
X0036346Y0367841D01*
X0036380Y0367968D01*
X0036417Y0368095D01*
X0036458Y0368219D01*
X0036503Y0368343D01*
X0036552Y0368465D01*
X0036604Y0368586D01*
X0036660Y0368704D01*
X0036720Y0368822D01*
X0036783Y0368937D01*
X0036850Y0369050D01*
X0036920Y0369162D01*
X0036993Y0369271D01*
X0037069Y0369377D01*
X0037149Y0369482D01*
X0037232Y0369584D01*
X0037318Y0369683D01*
X0037407Y0369780D01*
X0037499Y0369874D01*
X0037594Y0369965D01*
X0037691Y0370054D01*
X0037791Y0370139D01*
X0037894Y0370221D01*
X0037999Y0370300D01*
X0038106Y0370376D01*
X0038216Y0370448D01*
X0038328Y0370517D01*
X0038442Y0370583D01*
X0038557Y0370645D01*
X0038675Y0370704D01*
X0038794Y0370759D01*
X0038915Y0370811D01*
X0039038Y0370858D01*
X0039162Y0370902D01*
X0039287Y0370943D01*
X0039413Y0370979D01*
X0039541Y0371012D01*
X0039669Y0371040D01*
X0039798Y0371065D01*
X0039928Y0371086D01*
X0040058Y0371103D01*
X0040189Y0371116D01*
X0040320Y0371125D01*
X0040451Y0371130D01*
X0040583Y0371131D01*
X0040714Y0371128D01*
X0040846Y0371121D01*
X0040977Y0371110D01*
X0041107Y0371095D01*
X0041237Y0371076D01*
X0041367Y0371053D01*
X0041495Y0371027D01*
X0041623Y0370996D01*
X0041750Y0370961D01*
X0041876Y0370923D01*
X0042000Y0370881D01*
X0042124Y0370835D01*
X0042245Y0370785D01*
X0042365Y0370732D01*
X0042484Y0370675D01*
X0042601Y0370615D01*
X0042715Y0370551D01*
X0042828Y0370483D01*
X0042939Y0370412D01*
X0043048Y0370338D01*
X0043154Y0370261D01*
X0043258Y0370180D01*
X0043359Y0370097D01*
X0043458Y0370010D01*
X0043554Y0369920D01*
X0043647Y0369827D01*
X0043738Y0369732D01*
X0043825Y0369634D01*
X0043910Y0369533D01*
X0043991Y0369430D01*
X0044069Y0369324D01*
X0044144Y0369216D01*
X0044216Y0369106D01*
X0044284Y0368994D01*
X0044349Y0368880D01*
X0044410Y0368763D01*
X0044468Y0368645D01*
X0044522Y0368525D01*
X0044573Y0368404D01*
X0044620Y0368281D01*
X0044663Y0368157D01*
X0044702Y0368032D01*
X0044738Y0367905D01*
X0044769Y0367777D01*
X0044797Y0367649D01*
X0044821Y0367520D01*
X0044841Y0367390D01*
X0044857Y0367259D01*
X0044869Y0367128D01*
X0044877Y0366997D01*
X0044881Y0366866D01*
X0044881Y0366734D01*
X0044877Y0366603D01*
X0044869Y0366472D01*
X0044857Y0366341D01*
X0044841Y0366210D01*
X0044821Y0366080D01*
X0044797Y0365951D01*
X0044769Y0365823D01*
X0044738Y0365695D01*
X0044702Y0365568D01*
X0044663Y0365443D01*
X0044620Y0365319D01*
X0044573Y0365196D01*
X0044522Y0365075D01*
X0044468Y0364955D01*
X0044410Y0364837D01*
X0044349Y0364720D01*
X0044284Y0364606D01*
X0044216Y0364494D01*
X0044144Y0364384D01*
X0044069Y0364276D01*
X0043991Y0364170D01*
X0043910Y0364067D01*
X0043825Y0363966D01*
X0043738Y0363868D01*
X0043647Y0363773D01*
X0043554Y0363680D01*
X0043458Y0363590D01*
X0043359Y0363503D01*
X0043258Y0363420D01*
X0043154Y0363339D01*
X0043048Y0363262D01*
X0042939Y0363188D01*
X0042828Y0363117D01*
X0042716Y0363049D01*
X0042601Y0362985D01*
X0042484Y0362925D01*
X0042365Y0362868D01*
X0042245Y0362815D01*
X0042124Y0362765D01*
X0042000Y0362719D01*
X0041876Y0362677D01*
X0041750Y0362639D01*
X0041623Y0362604D01*
X0041495Y0362573D01*
X0041367Y0362547D01*
X0041237Y0362524D01*
X0041107Y0362505D01*
X0040977Y0362490D01*
X0040846Y0362479D01*
X0040714Y0362472D01*
X0040583Y0362469D01*
X0040451Y0362470D01*
X0040320Y0362475D01*
X0040189Y0362484D01*
X0040058Y0362497D01*
X0039928Y0362514D01*
X0039798Y0362535D01*
X0039669Y0362560D01*
X0039541Y0362588D01*
X0039413Y0362621D01*
X0039287Y0362657D01*
X0039162Y0362698D01*
X0039038Y0362742D01*
X0038915Y0362789D01*
X0038794Y0362841D01*
X0038675Y0362896D01*
X0038557Y0362955D01*
X0038442Y0363017D01*
X0038328Y0363083D01*
X0038216Y0363152D01*
X0038106Y0363224D01*
X0037999Y0363300D01*
X0037894Y0363379D01*
X0037791Y0363461D01*
X0037691Y0363546D01*
X0037594Y0363635D01*
X0037499Y0363726D01*
X0037407Y0363820D01*
X0037318Y0363917D01*
X0037232Y0364016D01*
X0037149Y0364118D01*
X0037069Y0364223D01*
X0036993Y0364329D01*
X0036920Y0364438D01*
X0036850Y0364550D01*
X0036783Y0364663D01*
X0036720Y0364778D01*
X0036660Y0364896D01*
X0036604Y0365014D01*
X0036552Y0365135D01*
X0036503Y0365257D01*
X0036458Y0365381D01*
X0036417Y0365505D01*
X0036380Y0365632D01*
X0036346Y0365759D01*
X0036316Y0365887D01*
X0036291Y0366016D01*
X0036269Y0366145D01*
X0036251Y0366275D01*
X0036237Y0366406D01*
X0036227Y0366537D01*
X0036221Y0366669D01*
X0036219Y0366800D01*
X0296219Y0366800D02*
X0296221Y0366931D01*
X0296227Y0367063D01*
X0296237Y0367194D01*
X0296251Y0367325D01*
X0296269Y0367455D01*
X0296291Y0367584D01*
X0296316Y0367713D01*
X0296346Y0367841D01*
X0296380Y0367968D01*
X0296417Y0368095D01*
X0296458Y0368219D01*
X0296503Y0368343D01*
X0296552Y0368465D01*
X0296604Y0368586D01*
X0296660Y0368704D01*
X0296720Y0368822D01*
X0296783Y0368937D01*
X0296850Y0369050D01*
X0296920Y0369162D01*
X0296993Y0369271D01*
X0297069Y0369377D01*
X0297149Y0369482D01*
X0297232Y0369584D01*
X0297318Y0369683D01*
X0297407Y0369780D01*
X0297499Y0369874D01*
X0297594Y0369965D01*
X0297691Y0370054D01*
X0297791Y0370139D01*
X0297894Y0370221D01*
X0297999Y0370300D01*
X0298106Y0370376D01*
X0298216Y0370448D01*
X0298328Y0370517D01*
X0298442Y0370583D01*
X0298557Y0370645D01*
X0298675Y0370704D01*
X0298794Y0370759D01*
X0298915Y0370811D01*
X0299038Y0370858D01*
X0299162Y0370902D01*
X0299287Y0370943D01*
X0299413Y0370979D01*
X0299541Y0371012D01*
X0299669Y0371040D01*
X0299798Y0371065D01*
X0299928Y0371086D01*
X0300058Y0371103D01*
X0300189Y0371116D01*
X0300320Y0371125D01*
X0300451Y0371130D01*
X0300583Y0371131D01*
X0300714Y0371128D01*
X0300846Y0371121D01*
X0300977Y0371110D01*
X0301107Y0371095D01*
X0301237Y0371076D01*
X0301367Y0371053D01*
X0301495Y0371027D01*
X0301623Y0370996D01*
X0301750Y0370961D01*
X0301876Y0370923D01*
X0302000Y0370881D01*
X0302124Y0370835D01*
X0302245Y0370785D01*
X0302365Y0370732D01*
X0302484Y0370675D01*
X0302601Y0370615D01*
X0302715Y0370551D01*
X0302828Y0370483D01*
X0302939Y0370412D01*
X0303048Y0370338D01*
X0303154Y0370261D01*
X0303258Y0370180D01*
X0303359Y0370097D01*
X0303458Y0370010D01*
X0303554Y0369920D01*
X0303647Y0369827D01*
X0303738Y0369732D01*
X0303825Y0369634D01*
X0303910Y0369533D01*
X0303991Y0369430D01*
X0304069Y0369324D01*
X0304144Y0369216D01*
X0304216Y0369106D01*
X0304284Y0368994D01*
X0304349Y0368880D01*
X0304410Y0368763D01*
X0304468Y0368645D01*
X0304522Y0368525D01*
X0304573Y0368404D01*
X0304620Y0368281D01*
X0304663Y0368157D01*
X0304702Y0368032D01*
X0304738Y0367905D01*
X0304769Y0367777D01*
X0304797Y0367649D01*
X0304821Y0367520D01*
X0304841Y0367390D01*
X0304857Y0367259D01*
X0304869Y0367128D01*
X0304877Y0366997D01*
X0304881Y0366866D01*
X0304881Y0366734D01*
X0304877Y0366603D01*
X0304869Y0366472D01*
X0304857Y0366341D01*
X0304841Y0366210D01*
X0304821Y0366080D01*
X0304797Y0365951D01*
X0304769Y0365823D01*
X0304738Y0365695D01*
X0304702Y0365568D01*
X0304663Y0365443D01*
X0304620Y0365319D01*
X0304573Y0365196D01*
X0304522Y0365075D01*
X0304468Y0364955D01*
X0304410Y0364837D01*
X0304349Y0364720D01*
X0304284Y0364606D01*
X0304216Y0364494D01*
X0304144Y0364384D01*
X0304069Y0364276D01*
X0303991Y0364170D01*
X0303910Y0364067D01*
X0303825Y0363966D01*
X0303738Y0363868D01*
X0303647Y0363773D01*
X0303554Y0363680D01*
X0303458Y0363590D01*
X0303359Y0363503D01*
X0303258Y0363420D01*
X0303154Y0363339D01*
X0303048Y0363262D01*
X0302939Y0363188D01*
X0302828Y0363117D01*
X0302716Y0363049D01*
X0302601Y0362985D01*
X0302484Y0362925D01*
X0302365Y0362868D01*
X0302245Y0362815D01*
X0302124Y0362765D01*
X0302000Y0362719D01*
X0301876Y0362677D01*
X0301750Y0362639D01*
X0301623Y0362604D01*
X0301495Y0362573D01*
X0301367Y0362547D01*
X0301237Y0362524D01*
X0301107Y0362505D01*
X0300977Y0362490D01*
X0300846Y0362479D01*
X0300714Y0362472D01*
X0300583Y0362469D01*
X0300451Y0362470D01*
X0300320Y0362475D01*
X0300189Y0362484D01*
X0300058Y0362497D01*
X0299928Y0362514D01*
X0299798Y0362535D01*
X0299669Y0362560D01*
X0299541Y0362588D01*
X0299413Y0362621D01*
X0299287Y0362657D01*
X0299162Y0362698D01*
X0299038Y0362742D01*
X0298915Y0362789D01*
X0298794Y0362841D01*
X0298675Y0362896D01*
X0298557Y0362955D01*
X0298442Y0363017D01*
X0298328Y0363083D01*
X0298216Y0363152D01*
X0298106Y0363224D01*
X0297999Y0363300D01*
X0297894Y0363379D01*
X0297791Y0363461D01*
X0297691Y0363546D01*
X0297594Y0363635D01*
X0297499Y0363726D01*
X0297407Y0363820D01*
X0297318Y0363917D01*
X0297232Y0364016D01*
X0297149Y0364118D01*
X0297069Y0364223D01*
X0296993Y0364329D01*
X0296920Y0364438D01*
X0296850Y0364550D01*
X0296783Y0364663D01*
X0296720Y0364778D01*
X0296660Y0364896D01*
X0296604Y0365014D01*
X0296552Y0365135D01*
X0296503Y0365257D01*
X0296458Y0365381D01*
X0296417Y0365505D01*
X0296380Y0365632D01*
X0296346Y0365759D01*
X0296316Y0365887D01*
X0296291Y0366016D01*
X0296269Y0366145D01*
X0296251Y0366275D01*
X0296237Y0366406D01*
X0296227Y0366537D01*
X0296221Y0366669D01*
X0296219Y0366800D01*
X0296219Y0286800D02*
X0296221Y0286931D01*
X0296227Y0287063D01*
X0296237Y0287194D01*
X0296251Y0287325D01*
X0296269Y0287455D01*
X0296291Y0287584D01*
X0296316Y0287713D01*
X0296346Y0287841D01*
X0296380Y0287968D01*
X0296417Y0288095D01*
X0296458Y0288219D01*
X0296503Y0288343D01*
X0296552Y0288465D01*
X0296604Y0288586D01*
X0296660Y0288704D01*
X0296720Y0288822D01*
X0296783Y0288937D01*
X0296850Y0289050D01*
X0296920Y0289162D01*
X0296993Y0289271D01*
X0297069Y0289377D01*
X0297149Y0289482D01*
X0297232Y0289584D01*
X0297318Y0289683D01*
X0297407Y0289780D01*
X0297499Y0289874D01*
X0297594Y0289965D01*
X0297691Y0290054D01*
X0297791Y0290139D01*
X0297894Y0290221D01*
X0297999Y0290300D01*
X0298106Y0290376D01*
X0298216Y0290448D01*
X0298328Y0290517D01*
X0298442Y0290583D01*
X0298557Y0290645D01*
X0298675Y0290704D01*
X0298794Y0290759D01*
X0298915Y0290811D01*
X0299038Y0290858D01*
X0299162Y0290902D01*
X0299287Y0290943D01*
X0299413Y0290979D01*
X0299541Y0291012D01*
X0299669Y0291040D01*
X0299798Y0291065D01*
X0299928Y0291086D01*
X0300058Y0291103D01*
X0300189Y0291116D01*
X0300320Y0291125D01*
X0300451Y0291130D01*
X0300583Y0291131D01*
X0300714Y0291128D01*
X0300846Y0291121D01*
X0300977Y0291110D01*
X0301107Y0291095D01*
X0301237Y0291076D01*
X0301367Y0291053D01*
X0301495Y0291027D01*
X0301623Y0290996D01*
X0301750Y0290961D01*
X0301876Y0290923D01*
X0302000Y0290881D01*
X0302124Y0290835D01*
X0302245Y0290785D01*
X0302365Y0290732D01*
X0302484Y0290675D01*
X0302601Y0290615D01*
X0302715Y0290551D01*
X0302828Y0290483D01*
X0302939Y0290412D01*
X0303048Y0290338D01*
X0303154Y0290261D01*
X0303258Y0290180D01*
X0303359Y0290097D01*
X0303458Y0290010D01*
X0303554Y0289920D01*
X0303647Y0289827D01*
X0303738Y0289732D01*
X0303825Y0289634D01*
X0303910Y0289533D01*
X0303991Y0289430D01*
X0304069Y0289324D01*
X0304144Y0289216D01*
X0304216Y0289106D01*
X0304284Y0288994D01*
X0304349Y0288880D01*
X0304410Y0288763D01*
X0304468Y0288645D01*
X0304522Y0288525D01*
X0304573Y0288404D01*
X0304620Y0288281D01*
X0304663Y0288157D01*
X0304702Y0288032D01*
X0304738Y0287905D01*
X0304769Y0287777D01*
X0304797Y0287649D01*
X0304821Y0287520D01*
X0304841Y0287390D01*
X0304857Y0287259D01*
X0304869Y0287128D01*
X0304877Y0286997D01*
X0304881Y0286866D01*
X0304881Y0286734D01*
X0304877Y0286603D01*
X0304869Y0286472D01*
X0304857Y0286341D01*
X0304841Y0286210D01*
X0304821Y0286080D01*
X0304797Y0285951D01*
X0304769Y0285823D01*
X0304738Y0285695D01*
X0304702Y0285568D01*
X0304663Y0285443D01*
X0304620Y0285319D01*
X0304573Y0285196D01*
X0304522Y0285075D01*
X0304468Y0284955D01*
X0304410Y0284837D01*
X0304349Y0284720D01*
X0304284Y0284606D01*
X0304216Y0284494D01*
X0304144Y0284384D01*
X0304069Y0284276D01*
X0303991Y0284170D01*
X0303910Y0284067D01*
X0303825Y0283966D01*
X0303738Y0283868D01*
X0303647Y0283773D01*
X0303554Y0283680D01*
X0303458Y0283590D01*
X0303359Y0283503D01*
X0303258Y0283420D01*
X0303154Y0283339D01*
X0303048Y0283262D01*
X0302939Y0283188D01*
X0302828Y0283117D01*
X0302716Y0283049D01*
X0302601Y0282985D01*
X0302484Y0282925D01*
X0302365Y0282868D01*
X0302245Y0282815D01*
X0302124Y0282765D01*
X0302000Y0282719D01*
X0301876Y0282677D01*
X0301750Y0282639D01*
X0301623Y0282604D01*
X0301495Y0282573D01*
X0301367Y0282547D01*
X0301237Y0282524D01*
X0301107Y0282505D01*
X0300977Y0282490D01*
X0300846Y0282479D01*
X0300714Y0282472D01*
X0300583Y0282469D01*
X0300451Y0282470D01*
X0300320Y0282475D01*
X0300189Y0282484D01*
X0300058Y0282497D01*
X0299928Y0282514D01*
X0299798Y0282535D01*
X0299669Y0282560D01*
X0299541Y0282588D01*
X0299413Y0282621D01*
X0299287Y0282657D01*
X0299162Y0282698D01*
X0299038Y0282742D01*
X0298915Y0282789D01*
X0298794Y0282841D01*
X0298675Y0282896D01*
X0298557Y0282955D01*
X0298442Y0283017D01*
X0298328Y0283083D01*
X0298216Y0283152D01*
X0298106Y0283224D01*
X0297999Y0283300D01*
X0297894Y0283379D01*
X0297791Y0283461D01*
X0297691Y0283546D01*
X0297594Y0283635D01*
X0297499Y0283726D01*
X0297407Y0283820D01*
X0297318Y0283917D01*
X0297232Y0284016D01*
X0297149Y0284118D01*
X0297069Y0284223D01*
X0296993Y0284329D01*
X0296920Y0284438D01*
X0296850Y0284550D01*
X0296783Y0284663D01*
X0296720Y0284778D01*
X0296660Y0284896D01*
X0296604Y0285014D01*
X0296552Y0285135D01*
X0296503Y0285257D01*
X0296458Y0285381D01*
X0296417Y0285505D01*
X0296380Y0285632D01*
X0296346Y0285759D01*
X0296316Y0285887D01*
X0296291Y0286016D01*
X0296269Y0286145D01*
X0296251Y0286275D01*
X0296237Y0286406D01*
X0296227Y0286537D01*
X0296221Y0286669D01*
X0296219Y0286800D01*
X0296219Y0206800D02*
X0296221Y0206931D01*
X0296227Y0207063D01*
X0296237Y0207194D01*
X0296251Y0207325D01*
X0296269Y0207455D01*
X0296291Y0207584D01*
X0296316Y0207713D01*
X0296346Y0207841D01*
X0296380Y0207968D01*
X0296417Y0208095D01*
X0296458Y0208219D01*
X0296503Y0208343D01*
X0296552Y0208465D01*
X0296604Y0208586D01*
X0296660Y0208704D01*
X0296720Y0208822D01*
X0296783Y0208937D01*
X0296850Y0209050D01*
X0296920Y0209162D01*
X0296993Y0209271D01*
X0297069Y0209377D01*
X0297149Y0209482D01*
X0297232Y0209584D01*
X0297318Y0209683D01*
X0297407Y0209780D01*
X0297499Y0209874D01*
X0297594Y0209965D01*
X0297691Y0210054D01*
X0297791Y0210139D01*
X0297894Y0210221D01*
X0297999Y0210300D01*
X0298106Y0210376D01*
X0298216Y0210448D01*
X0298328Y0210517D01*
X0298442Y0210583D01*
X0298557Y0210645D01*
X0298675Y0210704D01*
X0298794Y0210759D01*
X0298915Y0210811D01*
X0299038Y0210858D01*
X0299162Y0210902D01*
X0299287Y0210943D01*
X0299413Y0210979D01*
X0299541Y0211012D01*
X0299669Y0211040D01*
X0299798Y0211065D01*
X0299928Y0211086D01*
X0300058Y0211103D01*
X0300189Y0211116D01*
X0300320Y0211125D01*
X0300451Y0211130D01*
X0300583Y0211131D01*
X0300714Y0211128D01*
X0300846Y0211121D01*
X0300977Y0211110D01*
X0301107Y0211095D01*
X0301237Y0211076D01*
X0301367Y0211053D01*
X0301495Y0211027D01*
X0301623Y0210996D01*
X0301750Y0210961D01*
X0301876Y0210923D01*
X0302000Y0210881D01*
X0302124Y0210835D01*
X0302245Y0210785D01*
X0302365Y0210732D01*
X0302484Y0210675D01*
X0302601Y0210615D01*
X0302715Y0210551D01*
X0302828Y0210483D01*
X0302939Y0210412D01*
X0303048Y0210338D01*
X0303154Y0210261D01*
X0303258Y0210180D01*
X0303359Y0210097D01*
X0303458Y0210010D01*
X0303554Y0209920D01*
X0303647Y0209827D01*
X0303738Y0209732D01*
X0303825Y0209634D01*
X0303910Y0209533D01*
X0303991Y0209430D01*
X0304069Y0209324D01*
X0304144Y0209216D01*
X0304216Y0209106D01*
X0304284Y0208994D01*
X0304349Y0208880D01*
X0304410Y0208763D01*
X0304468Y0208645D01*
X0304522Y0208525D01*
X0304573Y0208404D01*
X0304620Y0208281D01*
X0304663Y0208157D01*
X0304702Y0208032D01*
X0304738Y0207905D01*
X0304769Y0207777D01*
X0304797Y0207649D01*
X0304821Y0207520D01*
X0304841Y0207390D01*
X0304857Y0207259D01*
X0304869Y0207128D01*
X0304877Y0206997D01*
X0304881Y0206866D01*
X0304881Y0206734D01*
X0304877Y0206603D01*
X0304869Y0206472D01*
X0304857Y0206341D01*
X0304841Y0206210D01*
X0304821Y0206080D01*
X0304797Y0205951D01*
X0304769Y0205823D01*
X0304738Y0205695D01*
X0304702Y0205568D01*
X0304663Y0205443D01*
X0304620Y0205319D01*
X0304573Y0205196D01*
X0304522Y0205075D01*
X0304468Y0204955D01*
X0304410Y0204837D01*
X0304349Y0204720D01*
X0304284Y0204606D01*
X0304216Y0204494D01*
X0304144Y0204384D01*
X0304069Y0204276D01*
X0303991Y0204170D01*
X0303910Y0204067D01*
X0303825Y0203966D01*
X0303738Y0203868D01*
X0303647Y0203773D01*
X0303554Y0203680D01*
X0303458Y0203590D01*
X0303359Y0203503D01*
X0303258Y0203420D01*
X0303154Y0203339D01*
X0303048Y0203262D01*
X0302939Y0203188D01*
X0302828Y0203117D01*
X0302716Y0203049D01*
X0302601Y0202985D01*
X0302484Y0202925D01*
X0302365Y0202868D01*
X0302245Y0202815D01*
X0302124Y0202765D01*
X0302000Y0202719D01*
X0301876Y0202677D01*
X0301750Y0202639D01*
X0301623Y0202604D01*
X0301495Y0202573D01*
X0301367Y0202547D01*
X0301237Y0202524D01*
X0301107Y0202505D01*
X0300977Y0202490D01*
X0300846Y0202479D01*
X0300714Y0202472D01*
X0300583Y0202469D01*
X0300451Y0202470D01*
X0300320Y0202475D01*
X0300189Y0202484D01*
X0300058Y0202497D01*
X0299928Y0202514D01*
X0299798Y0202535D01*
X0299669Y0202560D01*
X0299541Y0202588D01*
X0299413Y0202621D01*
X0299287Y0202657D01*
X0299162Y0202698D01*
X0299038Y0202742D01*
X0298915Y0202789D01*
X0298794Y0202841D01*
X0298675Y0202896D01*
X0298557Y0202955D01*
X0298442Y0203017D01*
X0298328Y0203083D01*
X0298216Y0203152D01*
X0298106Y0203224D01*
X0297999Y0203300D01*
X0297894Y0203379D01*
X0297791Y0203461D01*
X0297691Y0203546D01*
X0297594Y0203635D01*
X0297499Y0203726D01*
X0297407Y0203820D01*
X0297318Y0203917D01*
X0297232Y0204016D01*
X0297149Y0204118D01*
X0297069Y0204223D01*
X0296993Y0204329D01*
X0296920Y0204438D01*
X0296850Y0204550D01*
X0296783Y0204663D01*
X0296720Y0204778D01*
X0296660Y0204896D01*
X0296604Y0205014D01*
X0296552Y0205135D01*
X0296503Y0205257D01*
X0296458Y0205381D01*
X0296417Y0205505D01*
X0296380Y0205632D01*
X0296346Y0205759D01*
X0296316Y0205887D01*
X0296291Y0206016D01*
X0296269Y0206145D01*
X0296251Y0206275D01*
X0296237Y0206406D01*
X0296227Y0206537D01*
X0296221Y0206669D01*
X0296219Y0206800D01*
X0296219Y0126800D02*
X0296221Y0126931D01*
X0296227Y0127063D01*
X0296237Y0127194D01*
X0296251Y0127325D01*
X0296269Y0127455D01*
X0296291Y0127584D01*
X0296316Y0127713D01*
X0296346Y0127841D01*
X0296380Y0127968D01*
X0296417Y0128095D01*
X0296458Y0128219D01*
X0296503Y0128343D01*
X0296552Y0128465D01*
X0296604Y0128586D01*
X0296660Y0128704D01*
X0296720Y0128822D01*
X0296783Y0128937D01*
X0296850Y0129050D01*
X0296920Y0129162D01*
X0296993Y0129271D01*
X0297069Y0129377D01*
X0297149Y0129482D01*
X0297232Y0129584D01*
X0297318Y0129683D01*
X0297407Y0129780D01*
X0297499Y0129874D01*
X0297594Y0129965D01*
X0297691Y0130054D01*
X0297791Y0130139D01*
X0297894Y0130221D01*
X0297999Y0130300D01*
X0298106Y0130376D01*
X0298216Y0130448D01*
X0298328Y0130517D01*
X0298442Y0130583D01*
X0298557Y0130645D01*
X0298675Y0130704D01*
X0298794Y0130759D01*
X0298915Y0130811D01*
X0299038Y0130858D01*
X0299162Y0130902D01*
X0299287Y0130943D01*
X0299413Y0130979D01*
X0299541Y0131012D01*
X0299669Y0131040D01*
X0299798Y0131065D01*
X0299928Y0131086D01*
X0300058Y0131103D01*
X0300189Y0131116D01*
X0300320Y0131125D01*
X0300451Y0131130D01*
X0300583Y0131131D01*
X0300714Y0131128D01*
X0300846Y0131121D01*
X0300977Y0131110D01*
X0301107Y0131095D01*
X0301237Y0131076D01*
X0301367Y0131053D01*
X0301495Y0131027D01*
X0301623Y0130996D01*
X0301750Y0130961D01*
X0301876Y0130923D01*
X0302000Y0130881D01*
X0302124Y0130835D01*
X0302245Y0130785D01*
X0302365Y0130732D01*
X0302484Y0130675D01*
X0302601Y0130615D01*
X0302715Y0130551D01*
X0302828Y0130483D01*
X0302939Y0130412D01*
X0303048Y0130338D01*
X0303154Y0130261D01*
X0303258Y0130180D01*
X0303359Y0130097D01*
X0303458Y0130010D01*
X0303554Y0129920D01*
X0303647Y0129827D01*
X0303738Y0129732D01*
X0303825Y0129634D01*
X0303910Y0129533D01*
X0303991Y0129430D01*
X0304069Y0129324D01*
X0304144Y0129216D01*
X0304216Y0129106D01*
X0304284Y0128994D01*
X0304349Y0128880D01*
X0304410Y0128763D01*
X0304468Y0128645D01*
X0304522Y0128525D01*
X0304573Y0128404D01*
X0304620Y0128281D01*
X0304663Y0128157D01*
X0304702Y0128032D01*
X0304738Y0127905D01*
X0304769Y0127777D01*
X0304797Y0127649D01*
X0304821Y0127520D01*
X0304841Y0127390D01*
X0304857Y0127259D01*
X0304869Y0127128D01*
X0304877Y0126997D01*
X0304881Y0126866D01*
X0304881Y0126734D01*
X0304877Y0126603D01*
X0304869Y0126472D01*
X0304857Y0126341D01*
X0304841Y0126210D01*
X0304821Y0126080D01*
X0304797Y0125951D01*
X0304769Y0125823D01*
X0304738Y0125695D01*
X0304702Y0125568D01*
X0304663Y0125443D01*
X0304620Y0125319D01*
X0304573Y0125196D01*
X0304522Y0125075D01*
X0304468Y0124955D01*
X0304410Y0124837D01*
X0304349Y0124720D01*
X0304284Y0124606D01*
X0304216Y0124494D01*
X0304144Y0124384D01*
X0304069Y0124276D01*
X0303991Y0124170D01*
X0303910Y0124067D01*
X0303825Y0123966D01*
X0303738Y0123868D01*
X0303647Y0123773D01*
X0303554Y0123680D01*
X0303458Y0123590D01*
X0303359Y0123503D01*
X0303258Y0123420D01*
X0303154Y0123339D01*
X0303048Y0123262D01*
X0302939Y0123188D01*
X0302828Y0123117D01*
X0302716Y0123049D01*
X0302601Y0122985D01*
X0302484Y0122925D01*
X0302365Y0122868D01*
X0302245Y0122815D01*
X0302124Y0122765D01*
X0302000Y0122719D01*
X0301876Y0122677D01*
X0301750Y0122639D01*
X0301623Y0122604D01*
X0301495Y0122573D01*
X0301367Y0122547D01*
X0301237Y0122524D01*
X0301107Y0122505D01*
X0300977Y0122490D01*
X0300846Y0122479D01*
X0300714Y0122472D01*
X0300583Y0122469D01*
X0300451Y0122470D01*
X0300320Y0122475D01*
X0300189Y0122484D01*
X0300058Y0122497D01*
X0299928Y0122514D01*
X0299798Y0122535D01*
X0299669Y0122560D01*
X0299541Y0122588D01*
X0299413Y0122621D01*
X0299287Y0122657D01*
X0299162Y0122698D01*
X0299038Y0122742D01*
X0298915Y0122789D01*
X0298794Y0122841D01*
X0298675Y0122896D01*
X0298557Y0122955D01*
X0298442Y0123017D01*
X0298328Y0123083D01*
X0298216Y0123152D01*
X0298106Y0123224D01*
X0297999Y0123300D01*
X0297894Y0123379D01*
X0297791Y0123461D01*
X0297691Y0123546D01*
X0297594Y0123635D01*
X0297499Y0123726D01*
X0297407Y0123820D01*
X0297318Y0123917D01*
X0297232Y0124016D01*
X0297149Y0124118D01*
X0297069Y0124223D01*
X0296993Y0124329D01*
X0296920Y0124438D01*
X0296850Y0124550D01*
X0296783Y0124663D01*
X0296720Y0124778D01*
X0296660Y0124896D01*
X0296604Y0125014D01*
X0296552Y0125135D01*
X0296503Y0125257D01*
X0296458Y0125381D01*
X0296417Y0125505D01*
X0296380Y0125632D01*
X0296346Y0125759D01*
X0296316Y0125887D01*
X0296291Y0126016D01*
X0296269Y0126145D01*
X0296251Y0126275D01*
X0296237Y0126406D01*
X0296227Y0126537D01*
X0296221Y0126669D01*
X0296219Y0126800D01*
X0347469Y0029300D02*
X0347471Y0029431D01*
X0347477Y0029563D01*
X0347487Y0029694D01*
X0347501Y0029825D01*
X0347519Y0029955D01*
X0347541Y0030084D01*
X0347566Y0030213D01*
X0347596Y0030341D01*
X0347630Y0030468D01*
X0347667Y0030595D01*
X0347708Y0030719D01*
X0347753Y0030843D01*
X0347802Y0030965D01*
X0347854Y0031086D01*
X0347910Y0031204D01*
X0347970Y0031322D01*
X0348033Y0031437D01*
X0348100Y0031550D01*
X0348170Y0031662D01*
X0348243Y0031771D01*
X0348319Y0031877D01*
X0348399Y0031982D01*
X0348482Y0032084D01*
X0348568Y0032183D01*
X0348657Y0032280D01*
X0348749Y0032374D01*
X0348844Y0032465D01*
X0348941Y0032554D01*
X0349041Y0032639D01*
X0349144Y0032721D01*
X0349249Y0032800D01*
X0349356Y0032876D01*
X0349466Y0032948D01*
X0349578Y0033017D01*
X0349692Y0033083D01*
X0349807Y0033145D01*
X0349925Y0033204D01*
X0350044Y0033259D01*
X0350165Y0033311D01*
X0350288Y0033358D01*
X0350412Y0033402D01*
X0350537Y0033443D01*
X0350663Y0033479D01*
X0350791Y0033512D01*
X0350919Y0033540D01*
X0351048Y0033565D01*
X0351178Y0033586D01*
X0351308Y0033603D01*
X0351439Y0033616D01*
X0351570Y0033625D01*
X0351701Y0033630D01*
X0351833Y0033631D01*
X0351964Y0033628D01*
X0352096Y0033621D01*
X0352227Y0033610D01*
X0352357Y0033595D01*
X0352487Y0033576D01*
X0352617Y0033553D01*
X0352745Y0033527D01*
X0352873Y0033496D01*
X0353000Y0033461D01*
X0353126Y0033423D01*
X0353250Y0033381D01*
X0353374Y0033335D01*
X0353495Y0033285D01*
X0353615Y0033232D01*
X0353734Y0033175D01*
X0353851Y0033115D01*
X0353965Y0033051D01*
X0354078Y0032983D01*
X0354189Y0032912D01*
X0354298Y0032838D01*
X0354404Y0032761D01*
X0354508Y0032680D01*
X0354609Y0032597D01*
X0354708Y0032510D01*
X0354804Y0032420D01*
X0354897Y0032327D01*
X0354988Y0032232D01*
X0355075Y0032134D01*
X0355160Y0032033D01*
X0355241Y0031930D01*
X0355319Y0031824D01*
X0355394Y0031716D01*
X0355466Y0031606D01*
X0355534Y0031494D01*
X0355599Y0031380D01*
X0355660Y0031263D01*
X0355718Y0031145D01*
X0355772Y0031025D01*
X0355823Y0030904D01*
X0355870Y0030781D01*
X0355913Y0030657D01*
X0355952Y0030532D01*
X0355988Y0030405D01*
X0356019Y0030277D01*
X0356047Y0030149D01*
X0356071Y0030020D01*
X0356091Y0029890D01*
X0356107Y0029759D01*
X0356119Y0029628D01*
X0356127Y0029497D01*
X0356131Y0029366D01*
X0356131Y0029234D01*
X0356127Y0029103D01*
X0356119Y0028972D01*
X0356107Y0028841D01*
X0356091Y0028710D01*
X0356071Y0028580D01*
X0356047Y0028451D01*
X0356019Y0028323D01*
X0355988Y0028195D01*
X0355952Y0028068D01*
X0355913Y0027943D01*
X0355870Y0027819D01*
X0355823Y0027696D01*
X0355772Y0027575D01*
X0355718Y0027455D01*
X0355660Y0027337D01*
X0355599Y0027220D01*
X0355534Y0027106D01*
X0355466Y0026994D01*
X0355394Y0026884D01*
X0355319Y0026776D01*
X0355241Y0026670D01*
X0355160Y0026567D01*
X0355075Y0026466D01*
X0354988Y0026368D01*
X0354897Y0026273D01*
X0354804Y0026180D01*
X0354708Y0026090D01*
X0354609Y0026003D01*
X0354508Y0025920D01*
X0354404Y0025839D01*
X0354298Y0025762D01*
X0354189Y0025688D01*
X0354078Y0025617D01*
X0353966Y0025549D01*
X0353851Y0025485D01*
X0353734Y0025425D01*
X0353615Y0025368D01*
X0353495Y0025315D01*
X0353374Y0025265D01*
X0353250Y0025219D01*
X0353126Y0025177D01*
X0353000Y0025139D01*
X0352873Y0025104D01*
X0352745Y0025073D01*
X0352617Y0025047D01*
X0352487Y0025024D01*
X0352357Y0025005D01*
X0352227Y0024990D01*
X0352096Y0024979D01*
X0351964Y0024972D01*
X0351833Y0024969D01*
X0351701Y0024970D01*
X0351570Y0024975D01*
X0351439Y0024984D01*
X0351308Y0024997D01*
X0351178Y0025014D01*
X0351048Y0025035D01*
X0350919Y0025060D01*
X0350791Y0025088D01*
X0350663Y0025121D01*
X0350537Y0025157D01*
X0350412Y0025198D01*
X0350288Y0025242D01*
X0350165Y0025289D01*
X0350044Y0025341D01*
X0349925Y0025396D01*
X0349807Y0025455D01*
X0349692Y0025517D01*
X0349578Y0025583D01*
X0349466Y0025652D01*
X0349356Y0025724D01*
X0349249Y0025800D01*
X0349144Y0025879D01*
X0349041Y0025961D01*
X0348941Y0026046D01*
X0348844Y0026135D01*
X0348749Y0026226D01*
X0348657Y0026320D01*
X0348568Y0026417D01*
X0348482Y0026516D01*
X0348399Y0026618D01*
X0348319Y0026723D01*
X0348243Y0026829D01*
X0348170Y0026938D01*
X0348100Y0027050D01*
X0348033Y0027163D01*
X0347970Y0027278D01*
X0347910Y0027396D01*
X0347854Y0027514D01*
X0347802Y0027635D01*
X0347753Y0027757D01*
X0347708Y0027881D01*
X0347667Y0028005D01*
X0347630Y0028132D01*
X0347596Y0028259D01*
X0347566Y0028387D01*
X0347541Y0028516D01*
X0347519Y0028645D01*
X0347501Y0028775D01*
X0347487Y0028906D01*
X0347477Y0029037D01*
X0347471Y0029169D01*
X0347469Y0029300D01*
M02*
