G75*
%MOIN*%
%OFA0B0*%
%FSLAX25Y25*%
%IPPOS*%
%LPD*%
%AMOC8*
5,1,8,0,0,1.08239X$1,22.5*
%
%ADD10C,0.00000*%
D10*
X0186815Y0041250D02*
X0264315Y0041250D01*
X0264315Y0353750D01*
X0186815Y0353750D01*
X0186815Y0041250D01*
X0220909Y0288750D02*
X0220911Y0288903D01*
X0220917Y0289057D01*
X0220927Y0289210D01*
X0220941Y0289362D01*
X0220959Y0289515D01*
X0220981Y0289666D01*
X0221006Y0289817D01*
X0221036Y0289968D01*
X0221070Y0290118D01*
X0221107Y0290266D01*
X0221148Y0290414D01*
X0221193Y0290560D01*
X0221242Y0290706D01*
X0221295Y0290850D01*
X0221351Y0290992D01*
X0221411Y0291133D01*
X0221475Y0291273D01*
X0221542Y0291411D01*
X0221613Y0291547D01*
X0221688Y0291681D01*
X0221765Y0291813D01*
X0221847Y0291943D01*
X0221931Y0292071D01*
X0222019Y0292197D01*
X0222110Y0292320D01*
X0222204Y0292441D01*
X0222302Y0292559D01*
X0222402Y0292675D01*
X0222506Y0292788D01*
X0222612Y0292899D01*
X0222721Y0293007D01*
X0222833Y0293112D01*
X0222947Y0293213D01*
X0223065Y0293312D01*
X0223184Y0293408D01*
X0223306Y0293501D01*
X0223431Y0293590D01*
X0223558Y0293677D01*
X0223687Y0293759D01*
X0223818Y0293839D01*
X0223951Y0293915D01*
X0224086Y0293988D01*
X0224223Y0294057D01*
X0224362Y0294122D01*
X0224502Y0294184D01*
X0224644Y0294242D01*
X0224787Y0294297D01*
X0224932Y0294348D01*
X0225078Y0294395D01*
X0225225Y0294438D01*
X0225373Y0294477D01*
X0225522Y0294513D01*
X0225672Y0294544D01*
X0225823Y0294572D01*
X0225974Y0294596D01*
X0226127Y0294616D01*
X0226279Y0294632D01*
X0226432Y0294644D01*
X0226585Y0294652D01*
X0226738Y0294656D01*
X0226892Y0294656D01*
X0227045Y0294652D01*
X0227198Y0294644D01*
X0227351Y0294632D01*
X0227503Y0294616D01*
X0227656Y0294596D01*
X0227807Y0294572D01*
X0227958Y0294544D01*
X0228108Y0294513D01*
X0228257Y0294477D01*
X0228405Y0294438D01*
X0228552Y0294395D01*
X0228698Y0294348D01*
X0228843Y0294297D01*
X0228986Y0294242D01*
X0229128Y0294184D01*
X0229268Y0294122D01*
X0229407Y0294057D01*
X0229544Y0293988D01*
X0229679Y0293915D01*
X0229812Y0293839D01*
X0229943Y0293759D01*
X0230072Y0293677D01*
X0230199Y0293590D01*
X0230324Y0293501D01*
X0230446Y0293408D01*
X0230565Y0293312D01*
X0230683Y0293213D01*
X0230797Y0293112D01*
X0230909Y0293007D01*
X0231018Y0292899D01*
X0231124Y0292788D01*
X0231228Y0292675D01*
X0231328Y0292559D01*
X0231426Y0292441D01*
X0231520Y0292320D01*
X0231611Y0292197D01*
X0231699Y0292071D01*
X0231783Y0291943D01*
X0231865Y0291813D01*
X0231942Y0291681D01*
X0232017Y0291547D01*
X0232088Y0291411D01*
X0232155Y0291273D01*
X0232219Y0291133D01*
X0232279Y0290992D01*
X0232335Y0290850D01*
X0232388Y0290706D01*
X0232437Y0290560D01*
X0232482Y0290414D01*
X0232523Y0290266D01*
X0232560Y0290118D01*
X0232594Y0289968D01*
X0232624Y0289817D01*
X0232649Y0289666D01*
X0232671Y0289515D01*
X0232689Y0289362D01*
X0232703Y0289210D01*
X0232713Y0289057D01*
X0232719Y0288903D01*
X0232721Y0288750D01*
X0232719Y0288597D01*
X0232713Y0288443D01*
X0232703Y0288290D01*
X0232689Y0288138D01*
X0232671Y0287985D01*
X0232649Y0287834D01*
X0232624Y0287683D01*
X0232594Y0287532D01*
X0232560Y0287382D01*
X0232523Y0287234D01*
X0232482Y0287086D01*
X0232437Y0286940D01*
X0232388Y0286794D01*
X0232335Y0286650D01*
X0232279Y0286508D01*
X0232219Y0286367D01*
X0232155Y0286227D01*
X0232088Y0286089D01*
X0232017Y0285953D01*
X0231942Y0285819D01*
X0231865Y0285687D01*
X0231783Y0285557D01*
X0231699Y0285429D01*
X0231611Y0285303D01*
X0231520Y0285180D01*
X0231426Y0285059D01*
X0231328Y0284941D01*
X0231228Y0284825D01*
X0231124Y0284712D01*
X0231018Y0284601D01*
X0230909Y0284493D01*
X0230797Y0284388D01*
X0230683Y0284287D01*
X0230565Y0284188D01*
X0230446Y0284092D01*
X0230324Y0283999D01*
X0230199Y0283910D01*
X0230072Y0283823D01*
X0229943Y0283741D01*
X0229812Y0283661D01*
X0229679Y0283585D01*
X0229544Y0283512D01*
X0229407Y0283443D01*
X0229268Y0283378D01*
X0229128Y0283316D01*
X0228986Y0283258D01*
X0228843Y0283203D01*
X0228698Y0283152D01*
X0228552Y0283105D01*
X0228405Y0283062D01*
X0228257Y0283023D01*
X0228108Y0282987D01*
X0227958Y0282956D01*
X0227807Y0282928D01*
X0227656Y0282904D01*
X0227503Y0282884D01*
X0227351Y0282868D01*
X0227198Y0282856D01*
X0227045Y0282848D01*
X0226892Y0282844D01*
X0226738Y0282844D01*
X0226585Y0282848D01*
X0226432Y0282856D01*
X0226279Y0282868D01*
X0226127Y0282884D01*
X0225974Y0282904D01*
X0225823Y0282928D01*
X0225672Y0282956D01*
X0225522Y0282987D01*
X0225373Y0283023D01*
X0225225Y0283062D01*
X0225078Y0283105D01*
X0224932Y0283152D01*
X0224787Y0283203D01*
X0224644Y0283258D01*
X0224502Y0283316D01*
X0224362Y0283378D01*
X0224223Y0283443D01*
X0224086Y0283512D01*
X0223951Y0283585D01*
X0223818Y0283661D01*
X0223687Y0283741D01*
X0223558Y0283823D01*
X0223431Y0283910D01*
X0223306Y0283999D01*
X0223184Y0284092D01*
X0223065Y0284188D01*
X0222947Y0284287D01*
X0222833Y0284388D01*
X0222721Y0284493D01*
X0222612Y0284601D01*
X0222506Y0284712D01*
X0222402Y0284825D01*
X0222302Y0284941D01*
X0222204Y0285059D01*
X0222110Y0285180D01*
X0222019Y0285303D01*
X0221931Y0285429D01*
X0221847Y0285557D01*
X0221765Y0285687D01*
X0221688Y0285819D01*
X0221613Y0285953D01*
X0221542Y0286089D01*
X0221475Y0286227D01*
X0221411Y0286367D01*
X0221351Y0286508D01*
X0221295Y0286650D01*
X0221242Y0286794D01*
X0221193Y0286940D01*
X0221148Y0287086D01*
X0221107Y0287234D01*
X0221070Y0287382D01*
X0221036Y0287532D01*
X0221006Y0287683D01*
X0220981Y0287834D01*
X0220959Y0287985D01*
X0220941Y0288138D01*
X0220927Y0288290D01*
X0220917Y0288443D01*
X0220911Y0288597D01*
X0220909Y0288750D01*
M02*
