G75*
%MOIN*%
%OFA0B0*%
%FSLAX25Y25*%
%IPPOS*%
%LPD*%
%AMOC8*
5,1,8,0,0,1.08239X$1,22.5*
%
%ADD10C,0.00000*%
%ADD11R,0.03937X0.04331*%
%ADD12R,0.07600X0.21000*%
%ADD13R,0.07874X0.06299*%
%ADD14R,0.07874X0.05906*%
%ADD15R,0.10236X0.05512*%
%ADD16R,0.04331X0.03937*%
%ADD17R,0.04724X0.05906*%
D10*
X0190643Y0043750D02*
X0423065Y0043750D01*
X0423065Y0463750D01*
X0190643Y0463750D01*
X0190643Y0043750D01*
X0324659Y0061250D02*
X0324661Y0061403D01*
X0324667Y0061557D01*
X0324677Y0061710D01*
X0324691Y0061862D01*
X0324709Y0062015D01*
X0324731Y0062166D01*
X0324756Y0062317D01*
X0324786Y0062468D01*
X0324820Y0062618D01*
X0324857Y0062766D01*
X0324898Y0062914D01*
X0324943Y0063060D01*
X0324992Y0063206D01*
X0325045Y0063350D01*
X0325101Y0063492D01*
X0325161Y0063633D01*
X0325225Y0063773D01*
X0325292Y0063911D01*
X0325363Y0064047D01*
X0325438Y0064181D01*
X0325515Y0064313D01*
X0325597Y0064443D01*
X0325681Y0064571D01*
X0325769Y0064697D01*
X0325860Y0064820D01*
X0325954Y0064941D01*
X0326052Y0065059D01*
X0326152Y0065175D01*
X0326256Y0065288D01*
X0326362Y0065399D01*
X0326471Y0065507D01*
X0326583Y0065612D01*
X0326697Y0065713D01*
X0326815Y0065812D01*
X0326934Y0065908D01*
X0327056Y0066001D01*
X0327181Y0066090D01*
X0327308Y0066177D01*
X0327437Y0066259D01*
X0327568Y0066339D01*
X0327701Y0066415D01*
X0327836Y0066488D01*
X0327973Y0066557D01*
X0328112Y0066622D01*
X0328252Y0066684D01*
X0328394Y0066742D01*
X0328537Y0066797D01*
X0328682Y0066848D01*
X0328828Y0066895D01*
X0328975Y0066938D01*
X0329123Y0066977D01*
X0329272Y0067013D01*
X0329422Y0067044D01*
X0329573Y0067072D01*
X0329724Y0067096D01*
X0329877Y0067116D01*
X0330029Y0067132D01*
X0330182Y0067144D01*
X0330335Y0067152D01*
X0330488Y0067156D01*
X0330642Y0067156D01*
X0330795Y0067152D01*
X0330948Y0067144D01*
X0331101Y0067132D01*
X0331253Y0067116D01*
X0331406Y0067096D01*
X0331557Y0067072D01*
X0331708Y0067044D01*
X0331858Y0067013D01*
X0332007Y0066977D01*
X0332155Y0066938D01*
X0332302Y0066895D01*
X0332448Y0066848D01*
X0332593Y0066797D01*
X0332736Y0066742D01*
X0332878Y0066684D01*
X0333018Y0066622D01*
X0333157Y0066557D01*
X0333294Y0066488D01*
X0333429Y0066415D01*
X0333562Y0066339D01*
X0333693Y0066259D01*
X0333822Y0066177D01*
X0333949Y0066090D01*
X0334074Y0066001D01*
X0334196Y0065908D01*
X0334315Y0065812D01*
X0334433Y0065713D01*
X0334547Y0065612D01*
X0334659Y0065507D01*
X0334768Y0065399D01*
X0334874Y0065288D01*
X0334978Y0065175D01*
X0335078Y0065059D01*
X0335176Y0064941D01*
X0335270Y0064820D01*
X0335361Y0064697D01*
X0335449Y0064571D01*
X0335533Y0064443D01*
X0335615Y0064313D01*
X0335692Y0064181D01*
X0335767Y0064047D01*
X0335838Y0063911D01*
X0335905Y0063773D01*
X0335969Y0063633D01*
X0336029Y0063492D01*
X0336085Y0063350D01*
X0336138Y0063206D01*
X0336187Y0063060D01*
X0336232Y0062914D01*
X0336273Y0062766D01*
X0336310Y0062618D01*
X0336344Y0062468D01*
X0336374Y0062317D01*
X0336399Y0062166D01*
X0336421Y0062015D01*
X0336439Y0061862D01*
X0336453Y0061710D01*
X0336463Y0061557D01*
X0336469Y0061403D01*
X0336471Y0061250D01*
X0336469Y0061097D01*
X0336463Y0060943D01*
X0336453Y0060790D01*
X0336439Y0060638D01*
X0336421Y0060485D01*
X0336399Y0060334D01*
X0336374Y0060183D01*
X0336344Y0060032D01*
X0336310Y0059882D01*
X0336273Y0059734D01*
X0336232Y0059586D01*
X0336187Y0059440D01*
X0336138Y0059294D01*
X0336085Y0059150D01*
X0336029Y0059008D01*
X0335969Y0058867D01*
X0335905Y0058727D01*
X0335838Y0058589D01*
X0335767Y0058453D01*
X0335692Y0058319D01*
X0335615Y0058187D01*
X0335533Y0058057D01*
X0335449Y0057929D01*
X0335361Y0057803D01*
X0335270Y0057680D01*
X0335176Y0057559D01*
X0335078Y0057441D01*
X0334978Y0057325D01*
X0334874Y0057212D01*
X0334768Y0057101D01*
X0334659Y0056993D01*
X0334547Y0056888D01*
X0334433Y0056787D01*
X0334315Y0056688D01*
X0334196Y0056592D01*
X0334074Y0056499D01*
X0333949Y0056410D01*
X0333822Y0056323D01*
X0333693Y0056241D01*
X0333562Y0056161D01*
X0333429Y0056085D01*
X0333294Y0056012D01*
X0333157Y0055943D01*
X0333018Y0055878D01*
X0332878Y0055816D01*
X0332736Y0055758D01*
X0332593Y0055703D01*
X0332448Y0055652D01*
X0332302Y0055605D01*
X0332155Y0055562D01*
X0332007Y0055523D01*
X0331858Y0055487D01*
X0331708Y0055456D01*
X0331557Y0055428D01*
X0331406Y0055404D01*
X0331253Y0055384D01*
X0331101Y0055368D01*
X0330948Y0055356D01*
X0330795Y0055348D01*
X0330642Y0055344D01*
X0330488Y0055344D01*
X0330335Y0055348D01*
X0330182Y0055356D01*
X0330029Y0055368D01*
X0329877Y0055384D01*
X0329724Y0055404D01*
X0329573Y0055428D01*
X0329422Y0055456D01*
X0329272Y0055487D01*
X0329123Y0055523D01*
X0328975Y0055562D01*
X0328828Y0055605D01*
X0328682Y0055652D01*
X0328537Y0055703D01*
X0328394Y0055758D01*
X0328252Y0055816D01*
X0328112Y0055878D01*
X0327973Y0055943D01*
X0327836Y0056012D01*
X0327701Y0056085D01*
X0327568Y0056161D01*
X0327437Y0056241D01*
X0327308Y0056323D01*
X0327181Y0056410D01*
X0327056Y0056499D01*
X0326934Y0056592D01*
X0326815Y0056688D01*
X0326697Y0056787D01*
X0326583Y0056888D01*
X0326471Y0056993D01*
X0326362Y0057101D01*
X0326256Y0057212D01*
X0326152Y0057325D01*
X0326052Y0057441D01*
X0325954Y0057559D01*
X0325860Y0057680D01*
X0325769Y0057803D01*
X0325681Y0057929D01*
X0325597Y0058057D01*
X0325515Y0058187D01*
X0325438Y0058319D01*
X0325363Y0058453D01*
X0325292Y0058589D01*
X0325225Y0058727D01*
X0325161Y0058867D01*
X0325101Y0059008D01*
X0325045Y0059150D01*
X0324992Y0059294D01*
X0324943Y0059440D01*
X0324898Y0059586D01*
X0324857Y0059734D01*
X0324820Y0059882D01*
X0324786Y0060032D01*
X0324756Y0060183D01*
X0324731Y0060334D01*
X0324709Y0060485D01*
X0324691Y0060638D01*
X0324677Y0060790D01*
X0324667Y0060943D01*
X0324661Y0061097D01*
X0324659Y0061250D01*
X0394659Y0140000D02*
X0394661Y0140153D01*
X0394667Y0140307D01*
X0394677Y0140460D01*
X0394691Y0140612D01*
X0394709Y0140765D01*
X0394731Y0140916D01*
X0394756Y0141067D01*
X0394786Y0141218D01*
X0394820Y0141368D01*
X0394857Y0141516D01*
X0394898Y0141664D01*
X0394943Y0141810D01*
X0394992Y0141956D01*
X0395045Y0142100D01*
X0395101Y0142242D01*
X0395161Y0142383D01*
X0395225Y0142523D01*
X0395292Y0142661D01*
X0395363Y0142797D01*
X0395438Y0142931D01*
X0395515Y0143063D01*
X0395597Y0143193D01*
X0395681Y0143321D01*
X0395769Y0143447D01*
X0395860Y0143570D01*
X0395954Y0143691D01*
X0396052Y0143809D01*
X0396152Y0143925D01*
X0396256Y0144038D01*
X0396362Y0144149D01*
X0396471Y0144257D01*
X0396583Y0144362D01*
X0396697Y0144463D01*
X0396815Y0144562D01*
X0396934Y0144658D01*
X0397056Y0144751D01*
X0397181Y0144840D01*
X0397308Y0144927D01*
X0397437Y0145009D01*
X0397568Y0145089D01*
X0397701Y0145165D01*
X0397836Y0145238D01*
X0397973Y0145307D01*
X0398112Y0145372D01*
X0398252Y0145434D01*
X0398394Y0145492D01*
X0398537Y0145547D01*
X0398682Y0145598D01*
X0398828Y0145645D01*
X0398975Y0145688D01*
X0399123Y0145727D01*
X0399272Y0145763D01*
X0399422Y0145794D01*
X0399573Y0145822D01*
X0399724Y0145846D01*
X0399877Y0145866D01*
X0400029Y0145882D01*
X0400182Y0145894D01*
X0400335Y0145902D01*
X0400488Y0145906D01*
X0400642Y0145906D01*
X0400795Y0145902D01*
X0400948Y0145894D01*
X0401101Y0145882D01*
X0401253Y0145866D01*
X0401406Y0145846D01*
X0401557Y0145822D01*
X0401708Y0145794D01*
X0401858Y0145763D01*
X0402007Y0145727D01*
X0402155Y0145688D01*
X0402302Y0145645D01*
X0402448Y0145598D01*
X0402593Y0145547D01*
X0402736Y0145492D01*
X0402878Y0145434D01*
X0403018Y0145372D01*
X0403157Y0145307D01*
X0403294Y0145238D01*
X0403429Y0145165D01*
X0403562Y0145089D01*
X0403693Y0145009D01*
X0403822Y0144927D01*
X0403949Y0144840D01*
X0404074Y0144751D01*
X0404196Y0144658D01*
X0404315Y0144562D01*
X0404433Y0144463D01*
X0404547Y0144362D01*
X0404659Y0144257D01*
X0404768Y0144149D01*
X0404874Y0144038D01*
X0404978Y0143925D01*
X0405078Y0143809D01*
X0405176Y0143691D01*
X0405270Y0143570D01*
X0405361Y0143447D01*
X0405449Y0143321D01*
X0405533Y0143193D01*
X0405615Y0143063D01*
X0405692Y0142931D01*
X0405767Y0142797D01*
X0405838Y0142661D01*
X0405905Y0142523D01*
X0405969Y0142383D01*
X0406029Y0142242D01*
X0406085Y0142100D01*
X0406138Y0141956D01*
X0406187Y0141810D01*
X0406232Y0141664D01*
X0406273Y0141516D01*
X0406310Y0141368D01*
X0406344Y0141218D01*
X0406374Y0141067D01*
X0406399Y0140916D01*
X0406421Y0140765D01*
X0406439Y0140612D01*
X0406453Y0140460D01*
X0406463Y0140307D01*
X0406469Y0140153D01*
X0406471Y0140000D01*
X0406469Y0139847D01*
X0406463Y0139693D01*
X0406453Y0139540D01*
X0406439Y0139388D01*
X0406421Y0139235D01*
X0406399Y0139084D01*
X0406374Y0138933D01*
X0406344Y0138782D01*
X0406310Y0138632D01*
X0406273Y0138484D01*
X0406232Y0138336D01*
X0406187Y0138190D01*
X0406138Y0138044D01*
X0406085Y0137900D01*
X0406029Y0137758D01*
X0405969Y0137617D01*
X0405905Y0137477D01*
X0405838Y0137339D01*
X0405767Y0137203D01*
X0405692Y0137069D01*
X0405615Y0136937D01*
X0405533Y0136807D01*
X0405449Y0136679D01*
X0405361Y0136553D01*
X0405270Y0136430D01*
X0405176Y0136309D01*
X0405078Y0136191D01*
X0404978Y0136075D01*
X0404874Y0135962D01*
X0404768Y0135851D01*
X0404659Y0135743D01*
X0404547Y0135638D01*
X0404433Y0135537D01*
X0404315Y0135438D01*
X0404196Y0135342D01*
X0404074Y0135249D01*
X0403949Y0135160D01*
X0403822Y0135073D01*
X0403693Y0134991D01*
X0403562Y0134911D01*
X0403429Y0134835D01*
X0403294Y0134762D01*
X0403157Y0134693D01*
X0403018Y0134628D01*
X0402878Y0134566D01*
X0402736Y0134508D01*
X0402593Y0134453D01*
X0402448Y0134402D01*
X0402302Y0134355D01*
X0402155Y0134312D01*
X0402007Y0134273D01*
X0401858Y0134237D01*
X0401708Y0134206D01*
X0401557Y0134178D01*
X0401406Y0134154D01*
X0401253Y0134134D01*
X0401101Y0134118D01*
X0400948Y0134106D01*
X0400795Y0134098D01*
X0400642Y0134094D01*
X0400488Y0134094D01*
X0400335Y0134098D01*
X0400182Y0134106D01*
X0400029Y0134118D01*
X0399877Y0134134D01*
X0399724Y0134154D01*
X0399573Y0134178D01*
X0399422Y0134206D01*
X0399272Y0134237D01*
X0399123Y0134273D01*
X0398975Y0134312D01*
X0398828Y0134355D01*
X0398682Y0134402D01*
X0398537Y0134453D01*
X0398394Y0134508D01*
X0398252Y0134566D01*
X0398112Y0134628D01*
X0397973Y0134693D01*
X0397836Y0134762D01*
X0397701Y0134835D01*
X0397568Y0134911D01*
X0397437Y0134991D01*
X0397308Y0135073D01*
X0397181Y0135160D01*
X0397056Y0135249D01*
X0396934Y0135342D01*
X0396815Y0135438D01*
X0396697Y0135537D01*
X0396583Y0135638D01*
X0396471Y0135743D01*
X0396362Y0135851D01*
X0396256Y0135962D01*
X0396152Y0136075D01*
X0396052Y0136191D01*
X0395954Y0136309D01*
X0395860Y0136430D01*
X0395769Y0136553D01*
X0395681Y0136679D01*
X0395597Y0136807D01*
X0395515Y0136937D01*
X0395438Y0137069D01*
X0395363Y0137203D01*
X0395292Y0137339D01*
X0395225Y0137477D01*
X0395161Y0137617D01*
X0395101Y0137758D01*
X0395045Y0137900D01*
X0394992Y0138044D01*
X0394943Y0138190D01*
X0394898Y0138336D01*
X0394857Y0138484D01*
X0394820Y0138632D01*
X0394786Y0138782D01*
X0394756Y0138933D01*
X0394731Y0139084D01*
X0394709Y0139235D01*
X0394691Y0139388D01*
X0394677Y0139540D01*
X0394667Y0139693D01*
X0394661Y0139847D01*
X0394659Y0140000D01*
X0324659Y0218750D02*
X0324661Y0218903D01*
X0324667Y0219057D01*
X0324677Y0219210D01*
X0324691Y0219362D01*
X0324709Y0219515D01*
X0324731Y0219666D01*
X0324756Y0219817D01*
X0324786Y0219968D01*
X0324820Y0220118D01*
X0324857Y0220266D01*
X0324898Y0220414D01*
X0324943Y0220560D01*
X0324992Y0220706D01*
X0325045Y0220850D01*
X0325101Y0220992D01*
X0325161Y0221133D01*
X0325225Y0221273D01*
X0325292Y0221411D01*
X0325363Y0221547D01*
X0325438Y0221681D01*
X0325515Y0221813D01*
X0325597Y0221943D01*
X0325681Y0222071D01*
X0325769Y0222197D01*
X0325860Y0222320D01*
X0325954Y0222441D01*
X0326052Y0222559D01*
X0326152Y0222675D01*
X0326256Y0222788D01*
X0326362Y0222899D01*
X0326471Y0223007D01*
X0326583Y0223112D01*
X0326697Y0223213D01*
X0326815Y0223312D01*
X0326934Y0223408D01*
X0327056Y0223501D01*
X0327181Y0223590D01*
X0327308Y0223677D01*
X0327437Y0223759D01*
X0327568Y0223839D01*
X0327701Y0223915D01*
X0327836Y0223988D01*
X0327973Y0224057D01*
X0328112Y0224122D01*
X0328252Y0224184D01*
X0328394Y0224242D01*
X0328537Y0224297D01*
X0328682Y0224348D01*
X0328828Y0224395D01*
X0328975Y0224438D01*
X0329123Y0224477D01*
X0329272Y0224513D01*
X0329422Y0224544D01*
X0329573Y0224572D01*
X0329724Y0224596D01*
X0329877Y0224616D01*
X0330029Y0224632D01*
X0330182Y0224644D01*
X0330335Y0224652D01*
X0330488Y0224656D01*
X0330642Y0224656D01*
X0330795Y0224652D01*
X0330948Y0224644D01*
X0331101Y0224632D01*
X0331253Y0224616D01*
X0331406Y0224596D01*
X0331557Y0224572D01*
X0331708Y0224544D01*
X0331858Y0224513D01*
X0332007Y0224477D01*
X0332155Y0224438D01*
X0332302Y0224395D01*
X0332448Y0224348D01*
X0332593Y0224297D01*
X0332736Y0224242D01*
X0332878Y0224184D01*
X0333018Y0224122D01*
X0333157Y0224057D01*
X0333294Y0223988D01*
X0333429Y0223915D01*
X0333562Y0223839D01*
X0333693Y0223759D01*
X0333822Y0223677D01*
X0333949Y0223590D01*
X0334074Y0223501D01*
X0334196Y0223408D01*
X0334315Y0223312D01*
X0334433Y0223213D01*
X0334547Y0223112D01*
X0334659Y0223007D01*
X0334768Y0222899D01*
X0334874Y0222788D01*
X0334978Y0222675D01*
X0335078Y0222559D01*
X0335176Y0222441D01*
X0335270Y0222320D01*
X0335361Y0222197D01*
X0335449Y0222071D01*
X0335533Y0221943D01*
X0335615Y0221813D01*
X0335692Y0221681D01*
X0335767Y0221547D01*
X0335838Y0221411D01*
X0335905Y0221273D01*
X0335969Y0221133D01*
X0336029Y0220992D01*
X0336085Y0220850D01*
X0336138Y0220706D01*
X0336187Y0220560D01*
X0336232Y0220414D01*
X0336273Y0220266D01*
X0336310Y0220118D01*
X0336344Y0219968D01*
X0336374Y0219817D01*
X0336399Y0219666D01*
X0336421Y0219515D01*
X0336439Y0219362D01*
X0336453Y0219210D01*
X0336463Y0219057D01*
X0336469Y0218903D01*
X0336471Y0218750D01*
X0336469Y0218597D01*
X0336463Y0218443D01*
X0336453Y0218290D01*
X0336439Y0218138D01*
X0336421Y0217985D01*
X0336399Y0217834D01*
X0336374Y0217683D01*
X0336344Y0217532D01*
X0336310Y0217382D01*
X0336273Y0217234D01*
X0336232Y0217086D01*
X0336187Y0216940D01*
X0336138Y0216794D01*
X0336085Y0216650D01*
X0336029Y0216508D01*
X0335969Y0216367D01*
X0335905Y0216227D01*
X0335838Y0216089D01*
X0335767Y0215953D01*
X0335692Y0215819D01*
X0335615Y0215687D01*
X0335533Y0215557D01*
X0335449Y0215429D01*
X0335361Y0215303D01*
X0335270Y0215180D01*
X0335176Y0215059D01*
X0335078Y0214941D01*
X0334978Y0214825D01*
X0334874Y0214712D01*
X0334768Y0214601D01*
X0334659Y0214493D01*
X0334547Y0214388D01*
X0334433Y0214287D01*
X0334315Y0214188D01*
X0334196Y0214092D01*
X0334074Y0213999D01*
X0333949Y0213910D01*
X0333822Y0213823D01*
X0333693Y0213741D01*
X0333562Y0213661D01*
X0333429Y0213585D01*
X0333294Y0213512D01*
X0333157Y0213443D01*
X0333018Y0213378D01*
X0332878Y0213316D01*
X0332736Y0213258D01*
X0332593Y0213203D01*
X0332448Y0213152D01*
X0332302Y0213105D01*
X0332155Y0213062D01*
X0332007Y0213023D01*
X0331858Y0212987D01*
X0331708Y0212956D01*
X0331557Y0212928D01*
X0331406Y0212904D01*
X0331253Y0212884D01*
X0331101Y0212868D01*
X0330948Y0212856D01*
X0330795Y0212848D01*
X0330642Y0212844D01*
X0330488Y0212844D01*
X0330335Y0212848D01*
X0330182Y0212856D01*
X0330029Y0212868D01*
X0329877Y0212884D01*
X0329724Y0212904D01*
X0329573Y0212928D01*
X0329422Y0212956D01*
X0329272Y0212987D01*
X0329123Y0213023D01*
X0328975Y0213062D01*
X0328828Y0213105D01*
X0328682Y0213152D01*
X0328537Y0213203D01*
X0328394Y0213258D01*
X0328252Y0213316D01*
X0328112Y0213378D01*
X0327973Y0213443D01*
X0327836Y0213512D01*
X0327701Y0213585D01*
X0327568Y0213661D01*
X0327437Y0213741D01*
X0327308Y0213823D01*
X0327181Y0213910D01*
X0327056Y0213999D01*
X0326934Y0214092D01*
X0326815Y0214188D01*
X0326697Y0214287D01*
X0326583Y0214388D01*
X0326471Y0214493D01*
X0326362Y0214601D01*
X0326256Y0214712D01*
X0326152Y0214825D01*
X0326052Y0214941D01*
X0325954Y0215059D01*
X0325860Y0215180D01*
X0325769Y0215303D01*
X0325681Y0215429D01*
X0325597Y0215557D01*
X0325515Y0215687D01*
X0325438Y0215819D01*
X0325363Y0215953D01*
X0325292Y0216089D01*
X0325225Y0216227D01*
X0325161Y0216367D01*
X0325101Y0216508D01*
X0325045Y0216650D01*
X0324992Y0216794D01*
X0324943Y0216940D01*
X0324898Y0217086D01*
X0324857Y0217234D01*
X0324820Y0217382D01*
X0324786Y0217532D01*
X0324756Y0217683D01*
X0324731Y0217834D01*
X0324709Y0217985D01*
X0324691Y0218138D01*
X0324677Y0218290D01*
X0324667Y0218443D01*
X0324661Y0218597D01*
X0324659Y0218750D01*
D11*
X0316815Y0155846D03*
X0316815Y0149154D03*
D12*
X0213065Y0329750D03*
X0213065Y0367750D03*
D13*
X0325535Y0155000D03*
X0325535Y0145000D03*
X0325535Y0135000D03*
X0325535Y0125000D03*
X0363094Y0125000D03*
X0363094Y0135000D03*
X0363094Y0145000D03*
X0363094Y0155000D03*
D14*
X0209433Y0397500D03*
X0199196Y0397500D03*
X0199196Y0412500D03*
X0209433Y0412500D03*
D15*
X0281244Y0426250D03*
X0297385Y0426250D03*
X0297385Y0448750D03*
X0281244Y0448750D03*
D16*
X0374315Y0153346D03*
X0374315Y0146654D03*
X0316815Y0140846D03*
X0316815Y0134154D03*
D17*
X0374315Y0139459D03*
X0374315Y0128041D03*
M02*
